<?xml version="1.0" standalone="no"?>
<!DOCTYPE svg PUBLIC "-//W3C//DTD SVG 20010904//EN"
 "http://www.w3.org/TR/2001/REC-SVG-20010904/DTD/svg10.dtd">
<svg version="1.0" xmlns="http://www.w3.org/2000/svg"
 width="1024.000000pt" height="627.000000pt" viewBox="0 0 1024.000000 627.000000"
 preserveAspectRatio="xMidYMid meet">

<g transform="translate(0.000000,627.000000) scale(0.100000,-0.100000)"
fill="#000000" stroke="none">
<path d="M1250 6045 l0 -115 25 0 25 0 0 115 0 115 -25 0 -25 0 0 -115z"/>
<path d="M1720 6135 c0 -16 -6 -25 -15 -25 -8 0 -15 -7 -15 -15 0 -8 7 -15 15
-15 12 0 15 -14 15 -69 0 -72 6 -81 51 -81 22 0 26 25 4 34 -11 4 -15 21 -15
61 0 42 3 55 15 55 8 0 15 7 15 15 0 8 -7 15 -15 15 -9 0 -15 9 -15 25 0 18
-5 25 -20 25 -15 0 -20 -7 -20 -25z"/>
<path d="M2320 6136 c0 -14 -4 -26 -10 -26 -5 0 -10 -7 -10 -15 0 -8 5 -15 10
-15 6 0 10 -28 10 -63 0 -68 10 -87 47 -87 23 0 32 23 13 35 -5 3 -10 31 -10
61 0 30 5 54 10 54 6 0 10 7 10 15 0 8 -4 15 -9 15 -5 0 -11 10 -13 23 -2 14
-11 23 -25 25 -19 3 -23 -1 -23 -22z"/>
<path d="M3028 6113 c-31 -64 -31 -141 1 -205 12 -27 29 -48 37 -48 18 0 18
-1 -7 72 -23 71 -20 127 12 190 19 38 19 38 0 38 -13 0 -27 -15 -43 -47z"/>
<path d="M5160 6120 c0 -37 -2 -39 -18 -29 -44 28 -102 -22 -102 -86 0 -52 75
-96 108 -63 9 9 12 9 12 0 0 -7 11 -12 25 -12 l25 0 0 115 0 115 -25 0 c-23 0
-25 -4 -25 -40z m-12 -72 c27 -27 7 -78 -29 -78 -21 0 -33 32 -25 66 7 26 34
32 54 12z"/>
<path d="M5250 6140 c0 -13 7 -20 20 -20 13 0 20 7 20 20 0 13 -7 20 -20 20
-13 0 -20 -7 -20 -20z"/>
<path d="M5720 6135 c0 -16 -6 -25 -15 -25 -8 0 -15 -7 -15 -15 0 -8 7 -15 15
-15 12 0 15 -14 15 -69 0 -72 6 -81 51 -81 22 0 26 25 4 34 -11 4 -15 21 -15
61 0 42 3 55 15 55 8 0 15 7 15 15 0 8 -7 15 -15 15 -9 0 -15 9 -15 25 0 18
-5 25 -20 25 -15 0 -20 -7 -20 -25z"/>
<path d="M6240 6045 l0 -115 25 0 c23 0 24 3 27 78 l3 77 44 -77 c36 -62 50
-78 68 -78 23 0 23 2 23 115 0 108 -1 115 -20 115 -18 0 -20 -7 -20 -70 0 -38
-3 -70 -7 -70 -5 0 -26 32 -48 70 -34 60 -44 70 -67 70 l-28 0 0 -115z"/>
<path d="M6600 6153 c-37 -13 -55 -78 -27 -101 7 -7 37 -16 65 -23 57 -12 70
-23 52 -44 -16 -19 -64 -19 -80 0 -7 8 -23 15 -35 15 -32 0 -22 -36 16 -55 79
-42 174 11 148 82 -8 22 -17 26 -79 38 -47 10 -64 24 -49 41 15 18 53 18 69
-1 14 -17 60 -20 60 -5 0 6 -11 22 -25 35 -24 24 -75 32 -115 18z"/>
<path d="M6780 6045 c0 -108 1 -115 20 -115 18 0 20 7 20 54 0 56 17 83 45 72
11 -4 15 -21 15 -66 0 -57 1 -60 25 -60 24 0 25 2 25 63 0 92 -33 127 -91 97
-17 -10 -19 -7 -19 30 0 33 -3 40 -20 40 -19 0 -20 -7 -20 -115z"/>
<path d="M7920 6045 c0 -108 1 -115 20 -115 16 0 20 7 20 33 0 18 6 41 13 51
12 17 16 14 52 -33 31 -41 45 -51 68 -51 l29 0 -52 66 -52 66 48 49 48 49 -31
0 c-25 0 -39 -9 -69 -45 -20 -25 -40 -45 -45 -45 -5 0 -9 20 -9 45 0 38 -3 45
-20 45 -19 0 -20 -7 -20 -115z"/>
<path d="M8925 6143 c37 -89 42 -147 19 -208 -26 -69 -27 -75 -12 -75 8 0 25
19 39 43 32 57 33 153 1 215 -12 23 -30 42 -38 42 -11 0 -14 -5 -9 -17z"/>
<path d="M1340 6015 c0 -78 2 -85 20 -85 17 0 20 7 20 53 0 55 12 77 41 77 22
0 29 -20 29 -81 0 -42 3 -49 20 -49 18 0 20 7 20 69 0 92 -31 123 -91 91 -13
-7 -19 -7 -19 0 0 5 -9 10 -20 10 -18 0 -20 -7 -20 -85z"/>
<path d="M1552 6084 c-16 -11 -22 -24 -20 -42 2 -22 11 -29 51 -40 26 -7 47
-17 47 -23 0 -13 -47 -11 -70 3 -31 20 -48 -4 -21 -31 28 -28 93 -29 121 -1
36 36 24 62 -37 80 -48 15 -57 30 -18 30 14 0 25 -4 25 -10 0 -5 9 -10 20 -10
27 0 25 25 -2 44 -29 20 -67 20 -96 0z"/>
<path d="M1820 6015 c0 -78 2 -85 20 -85 17 0 20 7 20 48 0 54 7 68 35 73 12
3 21 14 23 27 4 26 -14 29 -40 5 -17 -15 -18 -15 -18 0 0 10 -8 17 -20 17 -18
0 -20 -7 -20 -85z"/>
<path d="M1940 6032 c0 -54 4 -72 18 -85 22 -20 63 -22 80 -5 9 9 12 9 12 0 0
-7 11 -12 25 -12 25 0 25 1 25 85 0 84 0 85 -25 85 -23 0 -24 -4 -27 -62 -3
-60 -4 -63 -30 -66 l-28 -3 0 65 c0 64 -1 66 -25 66 -24 0 -25 -2 -25 -68z"/>
<path d="M2155 6075 c-72 -71 21 -187 103 -129 12 8 22 22 22 30 0 16 -36 19
-45 4 -11 -17 -44 -11 -56 11 -8 16 -8 28 0 45 11 24 45 33 56 14 9 -15 45
-12 45 4 0 21 -40 46 -73 46 -16 0 -38 -10 -52 -25z"/>
<path d="M2447 6080 c-66 -52 -29 -150 57 -150 13 0 35 9 50 21 21 16 26 29
26 64 0 35 -5 48 -26 64 -34 26 -74 27 -107 1z m83 -34 c28 -35 -11 -93 -47
-70 -36 22 -23 84 17 84 10 0 23 -7 30 -14z"/>
<path d="M2620 6015 c0 -78 2 -85 20 -85 17 0 20 7 20 48 0 54 7 68 35 73 12
3 21 14 23 27 4 26 -14 29 -40 5 -17 -15 -18 -15 -18 0 0 10 -8 17 -20 17 -18
0 -20 -7 -20 -85z"/>
<path d="M2762 6084 c-16 -11 -22 -24 -20 -42 2 -22 11 -29 51 -40 26 -7 47
-17 47 -23 0 -13 -47 -11 -70 3 -31 20 -48 -4 -21 -31 28 -28 93 -29 121 -1
36 36 24 62 -37 80 -48 15 -57 30 -18 30 14 0 25 -4 25 -10 0 -5 9 -10 20 -10
27 0 25 25 -2 44 -29 20 -67 20 -96 0z"/>
<path d="M3132 6077 c-30 -32 -30 -99 0 -127 28 -26 82 -26 108 0 11 11 20 25
20 30 0 13 -26 13 -49 -2 -37 -23 -69 9 -57 57 5 18 13 25 31 25 13 0 27 -4
30 -10 3 -5 15 -10 26 -10 24 0 24 15 -1 40 -28 28 -81 26 -108 -3z"/>
<path d="M3317 6080 c-66 -52 -29 -150 57 -150 13 0 35 9 50 21 21 16 26 29
26 64 0 35 -5 48 -26 64 -34 26 -74 27 -107 1z m83 -34 c28 -35 -11 -93 -47
-70 -36 22 -23 84 17 84 10 0 23 -7 30 -14z"/>
<path d="M3490 6025 c0 -71 1 -76 26 -87 19 -9 33 -9 55 -1 16 6 29 7 29 2 0
-5 9 -9 20 -9 18 0 20 7 20 85 0 78 -2 85 -20 85 -17 0 -20 -7 -20 -48 0 -55
-18 -86 -46 -80 -16 3 -19 13 -22 66 -3 54 -6 62 -22 62 -18 0 -20 -7 -20 -75z"/>
<path d="M3680 6015 c0 -84 0 -85 25 -85 22 0 24 4 27 58 3 50 6 57 26 60 16
3 22 10 22 28 0 28 -12 31 -34 8 -15 -14 -16 -14 -16 0 0 10 -9 16 -25 16 -25
0 -25 -1 -25 -85z"/>
<path d="M3820 6080 c-37 -37 -24 -59 48 -81 23 -6 42 -16 42 -21 0 -11 -58
-10 -65 2 -9 15 -45 12 -45 -4 0 -22 40 -46 75 -46 44 0 77 26 73 58 -2 23
-11 29 -50 41 -27 8 -48 18 -48 23 0 12 48 10 55 -2 3 -5 15 -10 26 -10 24 0
24 15 -1 40 -12 12 -33 20 -55 20 -22 0 -43 -8 -55 -20z"/>
<path d="M4012 6093 c-18 -7 -42 -57 -42 -88 0 -35 42 -75 79 -75 18 0 41 10
58 25 l28 25 -54 -2 c-36 -2 -55 1 -58 10 -3 9 11 12 51 12 53 0 56 1 56 25 0
51 -66 89 -118 68z m68 -48 c0 -10 -10 -15 -30 -15 -29 0 -38 9 -23 23 13 13
53 7 53 -8z"/>
<path d="M4270 6080 c-27 -27 -35 -65 -20 -101 24 -56 84 -66 128 -21 l27 27
-25 3 c-13 2 -26 -1 -28 -7 -2 -6 -14 -11 -28 -11 -26 0 -41 33 -29 69 7 22
55 31 55 11 0 -5 11 -10 25 -10 31 0 32 10 2 38 -29 28 -80 29 -107 2z"/>
<path d="M4449 6081 c-19 -15 -24 -29 -24 -66 0 -37 5 -51 24 -66 56 -46 141
-6 141 66 0 72 -85 112 -141 66z m91 -47 c14 -37 -4 -66 -38 -62 -21 2 -28 9
-30 31 -5 42 4 57 33 57 18 0 28 -7 35 -26z"/>
<path d="M4757 6080 c-66 -52 -29 -150 57 -150 13 0 35 9 50 21 21 16 26 29
26 64 0 35 -5 48 -26 64 -34 26 -74 27 -107 1z m83 -34 c28 -35 -11 -93 -47
-70 -36 22 -23 84 17 84 10 0 23 -7 30 -14z"/>
<path d="M4930 6015 c0 -78 2 -85 20 -85 17 0 20 7 20 48 0 54 7 68 35 73 12
3 21 14 23 27 4 26 -14 29 -40 5 -17 -15 -18 -15 -18 0 0 10 -8 17 -20 17 -18
0 -20 -7 -20 -85z"/>
<path d="M5250 6015 c0 -78 2 -85 20 -85 18 0 20 7 20 85 0 78 -2 85 -20 85
-18 0 -20 -7 -20 -85z"/>
<path d="M5340 6015 c0 -78 2 -85 20 -85 17 0 20 7 20 53 0 55 12 77 41 77 22
0 29 -20 29 -81 0 -42 3 -49 20 -49 18 0 20 7 20 69 0 92 -31 123 -91 91 -13
-7 -19 -7 -19 0 0 5 -9 10 -20 10 -18 0 -20 -7 -20 -85z"/>
<path d="M5547 6082 c-23 -25 -21 -42 3 -42 11 0 20 5 20 10 0 6 12 10 26 10
36 0 25 -23 -14 -31 -60 -12 -80 -50 -44 -82 21 -19 45 -21 73 -7 13 7 19 7
19 0 0 -5 10 -10 23 -10 22 0 23 3 19 68 -3 52 -8 71 -24 85 -27 22 -80 22
-101 -1z m69 -97 c-7 -20 -46 -19 -46 0 0 9 10 19 23 24 24 9 33 0 23 -24z"/>
<path d="M5835 6075 c-17 -16 -25 -35 -25 -60 0 -25 8 -44 25 -60 16 -17 35
-25 60 -25 25 0 44 8 60 25 17 16 25 35 25 60 0 25 -8 44 -25 60 -16 17 -35
25 -60 25 -25 0 -44 -8 -60 -25z m90 -60 c0 -37 -2 -40 -29 -40 -33 0 -48 27
-35 63 7 18 15 23 36 20 25 -3 28 -7 28 -43z"/>
<path d="M6010 6015 c0 -84 0 -85 25 -85 22 0 24 4 27 58 3 50 6 57 26 60 16
3 22 10 22 28 0 26 -18 32 -38 12 -9 -9 -12 -9 -12 0 0 7 -11 12 -25 12 -25 0
-25 -1 -25 -85z"/>
<path d="M6157 6093 c-4 -3 -7 -15 -7 -25 0 -13 7 -18 25 -18 20 0 25 5 25 25
0 18 -5 25 -18 25 -10 0 -22 -3 -25 -7z"/>
<path d="M6970 6015 c0 -84 0 -85 25 -85 22 0 24 4 27 58 3 50 6 57 26 60 16
3 22 10 22 28 0 26 -18 32 -38 12 -9 -9 -12 -9 -12 0 0 7 -11 12 -25 12 -25 0
-25 -1 -25 -85z"/>
<path d="M7112 6084 c-12 -8 -22 -22 -22 -30 0 -16 36 -19 45 -4 8 13 55 13
55 0 0 -5 -12 -12 -27 -16 -56 -12 -63 -16 -74 -35 -8 -16 -7 -26 6 -45 16
-26 44 -31 76 -14 13 7 19 7 19 0 0 -5 11 -10 24 -10 23 0 23 2 19 73 -4 49
-10 76 -21 85 -22 17 -73 15 -100 -4z m73 -93 c-8 -27 -58 -30 -53 -4 2 9 14
20 28 23 31 8 33 7 25 -19z"/>
<path d="M7263 6088 c2 -7 15 -46 28 -85 21 -66 26 -73 48 -73 23 0 29 8 54
78 15 43 27 81 27 85 0 4 -11 7 -23 7 -20 0 -26 -8 -37 -55 -7 -30 -16 -52
-21 -50 -4 3 -12 27 -19 55 -10 44 -15 50 -37 50 -16 0 -23 -5 -20 -12z"/>
<path d="M7467 6082 c-23 -25 -21 -42 3 -42 11 0 20 5 20 10 0 6 12 10 26 10
36 0 25 -23 -14 -31 -60 -12 -80 -50 -44 -82 21 -19 45 -21 73 -7 13 7 19 7
19 0 0 -5 10 -10 23 -10 22 0 23 3 19 68 -3 52 -8 71 -24 85 -27 22 -80 22
-101 -1z m69 -97 c-7 -20 -46 -19 -46 0 0 9 10 19 23 24 24 9 33 0 23 -24z"/>
<path d="M7630 6015 c0 -84 0 -85 25 -85 23 0 24 4 27 63 3 59 4 62 28 62 24
0 25 -3 28 -62 3 -59 4 -63 27 -63 24 0 25 3 24 53 -1 28 -4 63 -8 77 -9 32
-54 49 -81 32 -12 -7 -20 -8 -20 -2 0 5 -11 10 -25 10 -25 0 -25 -1 -25 -85z"/>
<path d="M8140 6037 c0 -74 18 -107 59 -107 15 0 32 5 39 12 9 9 12 9 12 0 0
-7 11 -12 25 -12 25 0 25 1 25 85 0 84 0 85 -25 85 -23 0 -24 -4 -27 -62 -3
-60 -4 -63 -28 -63 -24 0 -25 3 -28 63 -3 58 -4 62 -27 62 -24 0 -25 -3 -25
-63z"/>
<path d="M8340 6014 c0 -77 2 -84 20 -84 17 0 20 7 20 48 0 55 19 88 44 79 12
-5 16 -20 16 -67 0 -53 2 -60 20 -60 17 0 20 7 20 48 0 55 19 88 44 79 12 -5
16 -20 16 -67 0 -54 2 -60 20 -60 19 0 21 5 18 77 -3 75 -4 78 -31 87 -20 7
-34 7 -48 -2 -14 -9 -25 -10 -32 -3 -7 5 -38 9 -70 9 l-57 -1 0 -83z"/>
<path d="M8642 6084 c-12 -8 -22 -22 -22 -30 0 -16 36 -19 45 -4 8 13 55 13
55 0 0 -5 -12 -12 -27 -16 -56 -12 -63 -16 -74 -35 -8 -16 -7 -26 6 -45 16
-26 44 -31 76 -14 13 7 19 7 19 0 0 -5 11 -10 24 -10 23 0 23 2 19 73 -4 49
-10 76 -21 85 -22 17 -73 15 -100 -4z m73 -93 c-8 -27 -58 -30 -53 -4 2 9 14
20 28 23 31 8 33 7 25 -19z"/>
<path d="M8800 6015 c0 -84 0 -85 25 -85 22 0 24 4 27 58 3 50 6 57 26 60 16
3 22 10 22 28 0 26 -18 32 -38 12 -9 -9 -12 -9 -12 0 0 7 -11 12 -25 12 -25 0
-25 -1 -25 -85z"/>
<path d="M4610 6020 c0 -17 7 -20 45 -20 38 0 45 3 45 20 0 17 -7 20 -45 20
-38 0 -45 -3 -45 -20z"/>
<path d="M6157 5973 c-4 -3 -7 -15 -7 -25 0 -13 7 -18 25 -18 20 0 25 5 25 25
0 18 -5 25 -18 25 -10 0 -22 -3 -25 -7z"/>
<path d="M90 5530 c0 -33 4 -60 10 -60 6 0 10 11 10 24 0 19 6 25 26 28 63 7
51 68 -12 68 l-34 0 0 -60z m65 25 c0 -13 -8 -21 -22 -23 -19 -3 -23 1 -23 23
0 22 4 26 23 23 14 -2 22 -10 22 -23z"/>
<path d="M343 5576 c-11 -19 -4 -106 8 -106 5 0 9 17 10 38 0 20 2 47 3 60 3
25 -9 29 -21 8z"/>
<path d="M470 5531 c0 -34 4 -61 10 -61 6 0 10 12 10 26 0 22 4 25 28 22 19
-2 28 -9 30 -25 2 -13 7 -23 12 -23 5 0 7 7 4 15 -4 8 -7 34 -8 57 l-1 43 -42
3 -43 3 0 -60z m64 43 c33 -13 11 -44 -30 -44 -8 0 -14 10 -14 25 0 25 13 31
44 19z"/>
<path d="M585 5580 c3 -5 8 -10 11 -10 2 0 4 5 4 10 0 6 -5 10 -11 10 -5 0 -7
-4 -4 -10z"/>
<path d="M1065 5580 c3 -5 8 -10 11 -10 2 0 4 5 4 10 0 6 -5 10 -11 10 -5 0
-7 -4 -4 -10z"/>
<path d="M1157 5583 c-18 -17 -5 -45 28 -59 38 -15 44 -28 19 -38 -21 -8 -20
-8 -39 10 -20 20 -33 11 -15 -11 24 -29 80 -15 80 21 0 18 -7 25 -32 32 -36 9
-47 26 -22 36 10 4 25 -1 35 -10 21 -19 27 -6 7 14 -13 13 -50 16 -61 5z"/>
<path d="M618 5569 c-7 -20 6 -92 17 -96 8 -2 11 41 6 100 -1 11 -19 8 -23 -4z"/>
<path d="M202 5510 c1 -40 2 -41 5 -11 3 19 12 41 21 47 15 12 15 13 -5 11
-21 -1 -23 -6 -21 -47z"/>
<path d="M249 5539 c-8 -16 -8 -28 0 -45 18 -41 71 -25 71 21 0 44 -50 61 -71
24z m46 -25 c0 -19 -5 -29 -15 -29 -16 0 -25 28 -16 51 10 25 31 10 31 -22z"/>
<path d="M580 5515 c0 -25 5 -45 10 -45 6 0 10 20 10 45 0 25 -4 45 -10 45 -5
0 -10 -20 -10 -45z"/>
<path d="M660 5528 c0 -45 11 -59 43 -56 25 2 27 5 26 48 l-1 45 -8 -38 c-4
-20 -10 -40 -13 -43 -13 -13 -27 9 -27 42 0 19 -4 34 -10 34 -5 0 -10 -15 -10
-32z"/>
<path d="M750 5515 c0 -54 18 -60 22 -7 2 20 8 37 13 37 6 0 11 -17 13 -37 4
-48 20 -49 24 -3 2 20 8 35 13 35 6 0 11 -15 13 -35 3 -38 22 -49 22 -12 0 57
-8 65 -66 66 l-54 0 0 -44z"/>
<path d="M892 5548 c-7 -7 -12 -21 -12 -33 0 -46 53 -62 71 -21 21 45 -26 87
-59 54z m43 -34 c0 -19 -5 -29 -15 -29 -16 0 -25 28 -16 51 10 25 31 10 31
-22z"/>
<path d="M981 5511 l2 -46 6 40 c4 26 11 40 21 40 10 0 17 -14 21 -40 l7 -40
-2 45 c-1 42 -3 45 -28 46 -27 1 -28 -1 -27 -45z"/>
<path d="M1060 5515 c0 -25 5 -45 10 -45 6 0 10 20 10 45 0 25 -4 45 -10 45
-5 0 -10 -20 -10 -45z"/>
<path d="M1257 5553 c-14 -14 -6 -23 12 -14 18 10 31 6 31 -10 0 -4 -10 -9
-22 -11 -15 -2 -23 -10 -23 -23 0 -16 7 -20 36 -21 28 -1 36 2 33 15 -13 67
-15 71 -38 71 -12 0 -26 -3 -29 -7z m43 -52 c0 -14 -18 -23 -30 -16 -6 4 -8
11 -5 16 8 12 35 12 35 0z"/>
<path d="M1340 5513 c0 -24 5 -43 10 -43 6 0 10 15 10 33 0 18 5 38 11 44 9 9
7 12 -10 10 -18 -1 -21 -7 -21 -44z"/>
<path d="M1390 5515 c0 -54 18 -60 22 -7 2 20 8 37 13 37 6 0 11 -17 13 -37 4
-48 20 -49 24 -3 2 20 8 35 13 35 6 0 11 -15 13 -35 3 -38 22 -49 22 -12 0 57
-8 65 -66 66 l-54 0 0 -44z"/>
<path d="M1537 5554 c-14 -14 -7 -26 8 -14 12 10 19 10 27 2 8 -8 7 -13 -5
-17 -9 -3 -24 -7 -33 -10 -8 -3 -14 -13 -12 -22 2 -13 14 -18 39 -19 l35 -2
-5 42 c-5 31 -11 42 -26 44 -12 2 -24 0 -28 -4z m33 -59 c-7 -8 -16 -15 -21
-15 -5 0 -9 7 -9 15 0 9 9 15 21 15 18 0 19 -2 9 -15z"/>
<path d="M90 5180 l0 -60 48 2 c43 1 44 2 10 5 -32 4 -38 8 -38 28 0 19 6 24
33 28 l32 4 -32 1 c-25 2 -33 7 -33 21 0 15 8 21 38 24 34 3 33 4 -10 5 l-48
2 0 -60z"/>
<path d="M450 5180 c0 -33 4 -60 10 -60 6 0 10 27 10 60 0 33 -4 60 -10 60 -6
0 -10 -27 -10 -60z"/>
<path d="M630 5229 c0 -5 5 -7 10 -4 6 3 10 8 10 11 0 2 -4 4 -10 4 -5 0 -10
-5 -10 -11z"/>
<path d="M1110 5229 c0 -5 5 -7 10 -4 6 3 10 8 10 11 0 2 -4 4 -10 4 -5 0 -10
-5 -10 -11z"/>
<path d="M1166 5209 c-30 -35 -33 -61 -9 -80 14 -12 -28 -15 -288 -19 -167 -3
105 -5 606 -5 501 0 643 1 316 2 -536 3 -596 5 -613 20 -31 28 -22 70 20 92
33 18 74 -10 70 -46 -2 -15 -9 -28 -15 -31 -9 -2 -11 5 -7 26 5 27 4 29 -21
28 -31 -1 -51 -25 -42 -49 4 -11 18 -15 49 -14 37 2 44 6 52 29 8 23 6 32 -14
53 -33 35 -72 33 -104 -6z m62 -41 c-4 -27 -28 -36 -28 -10 0 20 8 32 22 32 5
0 8 -10 6 -22z"/>
<path d="M1582 5180 c1 -54 2 -58 7 -25 4 26 11 40 21 40 10 0 17 -14 21 -40
l7 -40 -2 45 c-1 38 -4 45 -21 45 -11 0 -23 9 -27 20 -3 11 -6 -9 -6 -45z"/>
<path d="M1960 5220 c0 -13 -5 -18 -15 -14 -21 8 -45 -14 -45 -41 0 -28 19
-45 48 -42 20 1 22 7 22 59 0 32 -2 58 -5 58 -3 0 -5 -9 -5 -20z m-2 -59 c-3
-29 -25 -34 -41 -9 -8 12 -7 21 2 32 19 22 43 8 39 -23z"/>
<path d="M668 5218 c-8 -24 8 -92 22 -96 12 -4 13 -2 3 9 -15 15 -17 51 -4 65
6 5 4 14 -4 21 -10 9 -15 9 -17 1z"/>
<path d="M1532 5214 c-7 -8 -8 -14 -2 -14 5 0 10 -18 10 -40 0 -22 3 -40 8
-40 7 0 8 98 0 105 -1 2 -9 -3 -16 -11z"/>
<path d="M1858 5219 c-7 -20 6 -92 17 -96 8 -2 11 41 6 100 -1 11 -19 8 -23
-4z"/>
<path d="M201 5161 l2 -46 6 39 c8 55 31 60 31 7 0 -51 18 -54 22 -4 4 52 28
56 28 4 0 -23 5 -41 11 -41 6 0 9 17 7 43 l-3 42 -52 1 -53 1 1 -46z"/>
<path d="M337 5203 c-14 -13 -6 -25 8 -13 12 10 19 10 27 2 8 -8 6 -13 -8 -18
-53 -19 -53 -54 1 -52 32 1 34 3 29 32 -3 17 -7 37 -10 44 -4 13 -36 17 -47 5z
m41 -55 c-3 -7 -11 -13 -18 -13 -7 0 -15 6 -17 13 -3 7 4 12 17 12 13 0 20 -5
18 -12z"/>
<path d="M423 5165 c0 -27 2 -38 4 -22 2 15 2 37 0 50 -2 12 -4 0 -4 -28z"/>
<path d="M495 5200 c3 -5 8 -10 11 -10 2 0 4 5 4 10 0 6 -5 10 -11 10 -5 0 -7
-4 -4 -10z"/>
<path d="M581 5160 c1 -43 1 -44 9 -13 4 18 13 39 19 47 10 12 9 15 -8 13 -18
-1 -21 -8 -20 -47z"/>
<path d="M630 5165 c0 -25 5 -45 10 -45 6 0 10 20 10 45 0 25 -4 45 -10 45 -5
0 -10 -20 -10 -45z"/>
<path d="M712 5168 c3 -41 5 -43 36 -44 32 -1 32 -1 31 45 -2 34 -3 38 -6 16
-10 -63 -43 -74 -43 -15 0 22 -5 40 -11 40 -6 0 -9 -17 -7 -42z"/>
<path d="M801 5161 c1 -42 2 -43 8 -15 16 65 40 69 42 6 1 -20 3 -28 6 -17 2
11 6 30 9 43 7 35 28 21 35 -24 l7 -39 -2 45 -1 45 -52 1 -53 1 1 -46z"/>
<path d="M942 5198 c-7 -7 -12 -21 -12 -33 0 -46 53 -62 71 -21 21 45 -26 87
-59 54z m43 -34 c0 -19 -5 -29 -15 -29 -16 0 -25 28 -16 51 10 25 31 10 31
-22z"/>
<path d="M1020 5166 c0 -55 17 -62 22 -8 4 52 31 50 39 -3 l7 -40 -2 45 c-1
43 -2 45 -33 48 -33 3 -33 3 -33 -42z"/>
<path d="M1110 5165 c0 -25 5 -45 10 -45 6 0 10 20 10 45 0 25 -4 45 -10 45
-5 0 -10 -20 -10 -45z"/>
<path d="M1311 5161 c1 -42 2 -43 8 -15 16 65 40 69 42 6 1 -20 3 -28 6 -17 2
11 6 30 9 43 7 35 28 21 35 -24 l7 -39 -2 45 -1 45 -52 1 -53 1 1 -46z"/>
<path d="M1450 5195 c-8 -9 -8 -15 -2 -15 6 0 14 5 17 10 9 15 25 12 25 -4 0
-8 -10 -16 -22 -18 -15 -2 -23 -10 -23 -23 0 -16 7 -20 36 -21 l35 -2 -5 42
c-5 32 -11 42 -27 44 -11 2 -27 -4 -34 -13z m40 -44 c0 -14 -18 -23 -30 -16
-6 4 -8 11 -5 16 8 12 35 12 35 0z"/>
<path d="M1666 5195 c-8 -22 1 -35 25 -35 21 0 26 -15 8 -26 -6 -3 -15 0 -20
7 -4 7 -11 10 -15 6 -13 -12 12 -29 37 -25 34 4 37 36 4 48 -14 5 -23 15 -20
20 5 8 12 7 23 -2 13 -11 14 -11 10 2 -7 21 -44 25 -52 5z"/>
<path d="M1793 5165 c0 -27 2 -38 4 -22 2 15 2 37 0 50 -2 12 -4 0 -4 -28z"/>
<path d="M1833 5165 c0 -27 2 -38 4 -22 2 15 2 37 0 50 -2 12 -4 0 -4 -28z"/>
<path d="M2047 5203 c-14 -13 -6 -25 8 -13 12 10 19 10 27 2 8 -8 6 -13 -8
-18 -53 -19 -53 -54 1 -52 32 1 34 3 29 32 -3 17 -7 37 -10 44 -4 13 -36 17
-47 5z m41 -55 c-3 -7 -11 -13 -18 -13 -7 0 -15 6 -17 13 -3 7 4 12 17 12 13
0 20 -5 18 -12z"/>
<path d="M2130 5189 c-17 -31 2 -72 32 -67 12 2 24 10 26 18 5 13 3 13 -11 2
-21 -18 -37 -7 -37 23 0 30 16 41 37 23 14 -11 16 -11 11 2 -8 24 -45 24 -58
-1z"/>
<path d="M2253 5165 c0 -27 2 -38 4 -22 2 15 2 37 0 50 -2 12 -4 0 -4 -28z"/>
<path d="M2291 5160 c2 -34 3 -38 6 -15 9 62 43 69 43 9 0 -19 5 -34 10 -34
12 0 13 60 2 78 -5 6 -20 11 -35 10 -25 -2 -27 -5 -26 -48z"/>
<path d="M495 5130 c-3 -5 -1 -10 4 -10 6 0 11 5 11 10 0 6 -2 10 -4 10 -3 0
-8 -4 -11 -10z"/>
<path d="M1750 5130 c0 -5 5 -10 11 -10 5 0 7 5 4 10 -3 6 -8 10 -11 10 -2 0
-4 -4 -4 -10z"/>
<path d="M2210 5130 c0 -5 5 -10 10 -10 6 0 10 5 10 10 0 6 -4 10 -10 10 -5 0
-10 -4 -10 -10z"/>
<path d="M90 4830 c0 -33 4 -60 10 -60 6 0 10 11 10 24 0 19 6 25 26 28 63 7
51 68 -12 68 l-34 0 0 -60z m65 25 c0 -13 -8 -21 -22 -23 -19 -3 -23 1 -23 23
0 22 4 26 23 23 14 -2 22 -10 22 -23z"/>
<path d="M202 4830 c1 -54 2 -58 7 -25 4 26 11 40 21 40 10 0 17 -14 21 -40
l7 -40 -2 45 c-1 38 -4 45 -21 45 -11 0 -23 9 -27 20 -3 11 -6 -9 -6 -45z"/>
<path d="M652 4878 c-7 -7 -12 -29 -12 -49 0 -73 62 -78 68 -5 5 54 -26 84
-56 54z m48 -46 c0 -7 -5 -22 -11 -33 -14 -27 -39 -7 -39 30 0 38 21 57 37 34
7 -9 13 -23 13 -31z"/>
<path d="M957 4884 c-4 -4 -7 -14 -7 -22 0 -13 3 -12 19 2 16 14 20 15 30 2
10 -12 7 -20 -18 -42 -42 -38 -40 -54 7 -53 30 2 32 3 10 6 -35 5 -35 18 -2
39 34 23 31 68 -6 72 -14 2 -29 0 -33 -4z"/>
<path d="M1052 4878 c-17 -17 -15 -83 3 -98 24 -20 57 -3 53 28 -2 21 -9 28
-30 30 -25 3 -27 6 -17 24 8 15 14 17 22 9 17 -17 31 -13 17 4 -15 18 -32 19
-48 3z m43 -58 c4 -6 1 -18 -6 -26 -11 -13 -14 -13 -27 0 -8 8 -11 19 -8 25 9
14 33 14 41 1z"/>
<path d="M1130 4860 c0 -25 4 -29 22 -27 15 1 23 -4 26 -17 5 -25 -14 -44 -30
-28 -18 18 -33 15 -18 -3 28 -34 87 6 64 42 -6 10 -20 20 -32 23 -25 6 -17 25
13 33 13 3 9 5 -12 6 -30 1 -33 -2 -33 -29z"/>
<path d="M1220 4870 c-14 -25 2 -50 31 -50 11 0 19 -6 19 -14 0 -22 -19 -29
-37 -14 -14 11 -15 11 -11 -2 9 -27 51 -18 62 13 21 59 -36 119 -64 67z m47
-6 c8 -21 -13 -42 -28 -27 -13 13 -5 43 11 43 6 0 13 -7 17 -16z"/>
<path d="M1326 4869 c-17 -16 -17 -19 -3 -19 11 0 17 -12 20 -42 3 -34 4 -30
5 20 1 34 1 62 0 61 -2 0 -12 -9 -22 -20z"/>
<path d="M1418 4854 c-33 -48 -34 -54 -8 -54 10 0 24 -8 29 -17 10 -17 10 -17
11 0 0 9 6 17 13 17 9 0 9 2 0 8 -6 4 -13 25 -15 46 l-3 40 -27 -40z m22 -24
c0 -11 -7 -20 -15 -20 -18 0 -19 12 -3 28 16 16 18 15 18 -8z"/>
<path d="M1523 4879 c-7 -7 -9 -24 -6 -40 4 -24 2 -29 -13 -29 -14 0 -15 3 -6
12 7 7 12 17 12 23 -1 11 -30 -25 -30 -37 0 -4 9 -8 20 -8 11 0 20 -7 20 -15
0 -8 5 -15 10 -15 6 0 10 7 10 15 0 8 6 15 13 15 9 0 9 2 0 8 -6 4 -13 24 -15
45 -2 30 -6 36 -15 26z"/>
<path d="M1580 4871 c-15 -28 -12 -77 5 -91 25 -20 50 -8 50 25 0 23 -5 31
-22 33 -13 2 -23 10 -23 17 0 20 21 30 31 14 4 -7 11 -10 14 -7 11 11 -5 28
-25 28 -11 0 -24 -9 -30 -19z m45 -66 c0 -28 -29 -25 -33 3 -3 19 0 23 15 20
10 -2 18 -12 18 -23z"/>
<path d="M744 4865 c-17 -13 -17 -14 -2 -15 13 0 18 -11 21 -42 3 -37 4 -35 5
15 1 31 1 57 -1 57 -2 0 -12 -7 -23 -15z"/>
<path d="M834 4865 c-17 -13 -17 -14 -2 -15 13 0 18 -11 21 -42 3 -37 4 -35 5
15 1 31 1 57 -1 57 -2 0 -12 -7 -23 -15z"/>
<path d="M292 4848 c-7 -7 -12 -21 -12 -33 0 -46 53 -62 71 -21 21 45 -26 87
-59 54z m43 -34 c0 -19 -5 -29 -15 -29 -16 0 -25 28 -16 51 10 25 31 10 31
-22z"/>
<path d="M370 4816 c0 -55 17 -62 22 -8 4 52 31 50 39 -3 l7 -40 -2 45 c-1 43
-2 45 -33 48 -33 3 -33 3 -33 -42z"/>
<path d="M472 4848 c-16 -16 -15 -53 3 -68 17 -14 47 -10 53 8 3 11 0 12 -16
3 -15 -8 -23 -7 -32 4 -11 13 -8 15 19 15 28 0 32 3 29 23 -3 25 -36 35 -56
15z m48 -19 c0 -5 -9 -9 -20 -9 -19 0 -26 11 -14 23 8 8 34 -3 34 -14z"/>
<path d="M106 4524 c-20 -20 -20 -68 0 -88 34 -34 94 -4 94 46 0 10 5 18 10
18 6 0 10 -19 10 -42 0 -23 2 -39 4 -37 8 8 12 119 4 119 -4 0 -8 -6 -8 -14 0
-22 -25 -26 -38 -5 -15 23 -55 25 -76 3z m74 -44 c0 -52 -64 -62 -77 -12 -4
19 -1 30 16 44 31 24 61 9 61 -32z"/>
<path d="M263 4526 c-11 -19 -4 -106 8 -106 5 0 9 17 10 38 0 20 2 47 3 60 3
25 -9 29 -21 8z"/>
<path d="M300 4530 c0 -5 5 -10 10 -10 6 0 10 5 10 10 0 6 -4 10 -10 10 -5 0
-10 -4 -10 -10z"/>
<path d="M600 4481 c0 -65 19 -87 21 -23 l1 37 12 -34 c17 -49 30 -48 46 1
l14 43 7 -45 c6 -44 6 -43 7 18 1 34 -2 62 -7 62 -5 0 -17 -24 -27 -52 l-17
-53 -17 49 c-24 72 -40 71 -40 -3z"/>
<path d="M758 4533 c17 -2 32 -7 32 -11 0 -4 -14 -25 -30 -46 -17 -22 -30 -43
-30 -48 0 -4 21 -7 48 -7 l47 2 -38 6 -38 6 26 35 c52 68 51 70 -2 68 -37 -1
-40 -2 -15 -5z"/>
<path d="M896 4519 c-17 -16 -17 -19 -3 -19 11 0 17 -12 20 -42 3 -34 4 -30 5
20 1 34 1 62 0 61 -2 0 -12 -9 -22 -20z"/>
<path d="M966 4518 c-9 -35 -7 -39 12 -37 33 3 42 -1 42 -20 0 -23 -23 -34
-39 -18 -6 6 -14 7 -18 3 -11 -10 18 -27 42 -24 16 2 20 11 20 38 0 29 -4 36
-23 38 -29 4 -24 24 9 33 22 6 21 7 -7 8 -25 1 -33 -4 -38 -21z"/>
<path d="M1062 4528 c-20 -20 -13 -32 8 -13 18 17 20 17 26 0 4 -10 1 -20 -7
-25 -11 -7 -10 -10 4 -16 9 -3 17 -12 17 -19 0 -21 -23 -24 -44 -6 -17 15 -18
15 -15 -4 3 -15 12 -20 34 -20 30 0 30 1 30 55 0 47 -3 55 -20 58 -11 1 -26
-3 -33 -10z"/>
<path d="M300 4465 c0 -25 5 -45 10 -45 6 0 10 20 10 45 0 25 -4 45 -10 45 -5
0 -10 -20 -10 -45z"/>
<path d="M340 4489 c-17 -31 2 -72 32 -67 12 2 24 10 26 18 5 13 3 13 -11 2
-21 -18 -37 -7 -37 23 0 30 16 41 37 23 14 -11 16 -11 11 2 -8 24 -45 24 -58
-1z"/>
<path d="M419 4489 c-24 -46 29 -93 61 -54 14 17 0 21 -17 4 -6 -6 -16 -8 -22
-5 -21 13 -11 26 19 26 31 0 39 17 18 38 -19 19 -46 14 -59 -9z m49 -7 c2 -7
-6 -12 -17 -12 -21 0 -27 11 -14 24 9 9 26 2 31 -12z"/>
<path d="M515 4500 c3 -5 8 -10 11 -10 2 0 4 5 4 10 0 6 -5 10 -11 10 -5 0 -7
-4 -4 -10z"/>
<path d="M515 4430 c-3 -5 -1 -10 4 -10 6 0 11 5 11 10 0 6 -2 10 -4 10 -3 0
-8 -4 -11 -10z"/>
<path d="M90 4130 c0 -33 4 -60 10 -60 6 0 10 11 10 24 0 19 6 25 26 28 63 7
51 68 -12 68 l-34 0 0 -60z m65 25 c0 -13 -8 -21 -22 -23 -19 -3 -23 1 -23 23
0 22 4 26 23 23 14 -2 22 -10 22 -23z"/>
<path d="M343 4176 c-11 -19 -4 -106 8 -106 5 0 9 17 10 38 0 20 2 47 3 60 3
25 -9 29 -21 8z"/>
<path d="M481 4176 c-19 -22 -7 -43 28 -51 17 -4 31 -13 31 -20 0 -23 -20 -28
-45 -11 -26 17 -34 9 -13 -12 25 -25 78 -8 78 26 0 7 -16 20 -36 28 -19 8 -34
20 -32 26 7 19 25 20 43 2 16 -17 17 -17 13 2 -4 24 -50 31 -67 10z"/>
<path d="M582 4130 c1 -54 2 -58 7 -25 4 26 11 40 21 40 10 0 17 -14 21 -40
l7 -40 -2 45 c-1 38 -4 45 -21 45 -11 0 -23 9 -27 20 -3 11 -6 -9 -6 -45z"/>
<path d="M665 4180 c3 -5 8 -10 11 -10 2 0 4 5 4 10 0 6 -5 10 -11 10 -5 0 -7
-4 -4 -10z"/>
<path d="M830 4131 c0 -34 4 -61 10 -61 6 0 10 11 10 24 0 19 6 25 28 28 23 3
27 8 27 33 0 27 -3 30 -37 33 l-38 3 0 -60z m58 37 c8 -8 9 -15 1 -25 -18 -21
-39 -15 -39 12 0 27 18 33 38 13z"/>
<path d="M1070 4130 c0 -33 4 -60 10 -60 6 0 10 9 10 20 0 11 4 20 9 20 5 0
13 -9 16 -20 3 -11 11 -20 16 -20 5 0 2 14 -6 31 -14 25 -14 33 -3 47 9 12 7
12 -10 -2 l-22 -19 0 31 c0 18 -4 32 -10 32 -6 0 -10 -27 -10 -60z"/>
<path d="M1320 4130 c0 -66 17 -83 22 -22 4 52 31 50 39 -3 l7 -40 -2 45 c-1
40 -4 45 -23 44 -16 0 -23 5 -23 18 0 10 -4 18 -10 18 -6 0 -10 -27 -10 -60z"/>
<path d="M1460 4131 c0 -34 4 -61 10 -61 6 0 10 11 10 24 0 19 6 25 28 28 23
3 27 8 27 33 0 27 -3 30 -37 33 l-38 3 0 -60z m58 37 c8 -8 9 -15 1 -25 -18
-21 -39 -15 -39 12 0 27 18 33 38 13z"/>
<path d="M1793 4130 c0 -36 2 -50 4 -32 2 17 2 47 0 65 -2 17 -4 3 -4 -33z"/>
<path d="M1648 4169 c-7 -20 6 -92 17 -96 8 -2 11 41 6 100 -1 11 -19 8 -23
-4z"/>
<path d="M202 4110 c1 -40 2 -41 5 -11 3 19 12 41 21 47 15 12 15 13 -5 11
-21 -1 -23 -6 -21 -47z"/>
<path d="M249 4139 c-8 -16 -8 -28 0 -45 18 -41 71 -25 71 21 0 44 -50 61 -71
24z m46 -25 c0 -19 -5 -29 -15 -29 -16 0 -25 28 -16 51 10 25 31 10 31 -22z"/>
<path d="M660 4115 c0 -25 5 -45 10 -45 6 0 10 20 10 45 0 25 -4 45 -10 45 -5
0 -10 -20 -10 -45z"/>
<path d="M707 4115 c8 -25 19 -45 23 -45 4 0 15 20 23 45 18 51 5 62 -13 13
l-13 -33 -10 33 c-5 17 -13 32 -18 32 -4 0 -1 -20 8 -45z"/>
<path d="M930 4113 c0 -24 5 -43 10 -43 6 0 10 15 10 33 0 18 5 38 11 44 9 9
7 12 -10 10 -18 -1 -21 -7 -21 -44z"/>
<path d="M997 4154 c-14 -14 -7 -26 8 -14 12 10 19 10 27 2 8 -8 7 -13 -5 -17
-9 -3 -24 -7 -33 -10 -8 -3 -14 -13 -12 -22 2 -13 14 -18 39 -19 l35 -2 -5 42
c-5 31 -11 42 -26 44 -12 2 -24 0 -28 -4z m33 -59 c-7 -8 -16 -15 -21 -15 -5
0 -9 7 -9 15 0 9 9 15 21 15 18 0 19 -2 9 -15z"/>
<path d="M1160 4145 c-8 -9 -8 -15 -2 -15 6 0 14 5 17 10 4 6 11 8 16 5 16
-11 10 -24 -13 -27 -15 -2 -23 -10 -23 -23 0 -16 7 -20 36 -21 l35 -2 -5 42
c-5 32 -11 42 -27 44 -11 2 -27 -4 -34 -13z m40 -44 c0 -14 -18 -23 -30 -16
-6 4 -8 11 -5 16 8 12 35 12 35 0z"/>
<path d="M1247 4154 c-15 -15 -6 -35 20 -45 19 -7 23 -13 15 -21 -8 -8 -16 -7
-28 3 -15 12 -17 12 -12 -1 6 -19 35 -25 53 -10 16 13 9 40 -10 40 -16 0 -30
18 -21 27 3 3 13 0 22 -8 15 -12 17 -12 12 1 -5 16 -39 25 -51 14z"/>
<path d="M1570 4145 c-8 -9 -8 -15 -2 -15 6 0 14 5 17 10 4 6 11 8 16 5 16
-11 10 -24 -13 -27 -15 -2 -23 -10 -23 -23 0 -16 7 -20 36 -21 l35 -2 -5 42
c-5 32 -11 42 -27 44 -11 2 -27 -4 -34 -13z m40 -44 c0 -14 -18 -23 -30 -16
-6 4 -8 11 -5 16 8 12 35 12 35 0z"/>
<path d="M1702 4148 c-16 -16 -15 -53 3 -68 18 -15 47 -10 53 10 4 13 3 13
-11 2 -9 -8 -21 -11 -27 -7 -20 12 -10 25 20 25 33 0 35 3 20 31 -12 21 -40
25 -58 7z m46 -16 c2 -7 -6 -12 -17 -12 -21 0 -27 11 -14 24 9 9 26 2 31 -12z"/>
<path d="M90 3780 l0 -60 48 2 c43 1 44 2 10 5 -32 4 -38 8 -38 28 0 19 6 24
33 28 l32 4 -32 1 c-25 2 -33 7 -33 21 0 15 8 21 38 24 34 3 33 4 -10 5 l-48
2 0 -60z"/>
<path d="M450 3780 c0 -33 4 -60 10 -60 6 0 10 27 10 60 0 33 -4 60 -10 60 -6
0 -10 -27 -10 -60z"/>
<path d="M660 3780 c0 -66 17 -83 22 -22 4 46 22 45 26 -3 2 -19 8 -35 13 -35
6 0 9 19 7 43 -2 35 -7 43 -25 45 -13 2 -23 10 -23 18 0 8 -4 14 -10 14 -6 0
-10 -27 -10 -60z"/>
<path d="M886 3819 c-19 -15 -26 -30 -26 -54 0 -19 5 -37 12 -41 8 -5 6 -10
-8 -15 -10 -4 262 -7 606 -6 l625 2 -596 5 c-644 5 -634 4 -627 58 2 14 15 34
29 44 22 16 29 17 52 7 35 -16 44 -46 22 -68 -16 -15 -17 -14 -12 15 5 29 4
31 -21 29 -15 -1 -30 -3 -33 -3 -11 -3 -19 -31 -13 -46 6 -16 73 -19 92 -4 18
16 15 55 -8 78 -26 26 -60 25 -94 -1z m57 -35 c8 -9 -11 -44 -23 -44 -6 0 -10
8 -10 18 0 27 18 41 33 26z"/>
<path d="M1293 3780 c0 -36 2 -51 4 -35 9 62 43 69 43 9 0 -19 5 -34 10 -34
12 0 13 60 1 79 -5 8 -18 12 -29 9 -16 -4 -22 0 -25 16 -2 11 -4 -8 -4 -44z"/>
<path d="M1670 3820 c0 -13 -5 -18 -15 -14 -21 8 -45 -14 -45 -41 0 -28 19
-45 48 -42 20 1 22 7 22 59 0 32 -2 58 -5 58 -3 0 -5 -9 -5 -20z m-2 -59 c-3
-29 -25 -34 -41 -9 -8 12 -7 21 2 32 19 22 43 8 39 -23z"/>
<path d="M1960 3829 c0 -5 5 -7 10 -4 6 3 10 8 10 11 0 2 -4 4 -10 4 -5 0 -10
-5 -10 -11z"/>
<path d="M1242 3814 c-7 -8 -8 -14 -2 -14 5 0 10 -18 10 -40 0 -22 3 -40 8
-40 7 0 8 98 0 105 -1 2 -9 -3 -16 -11z"/>
<path d="M1572 3814 c-7 -8 -8 -14 -2 -14 5 0 10 -18 10 -40 0 -22 3 -40 8
-40 7 0 8 98 0 105 -1 2 -9 -3 -16 -11z"/>
<path d="M201 3761 l2 -46 6 39 c8 55 31 60 31 7 0 -51 18 -54 22 -4 4 52 28
56 28 4 0 -23 5 -41 11 -41 6 0 9 17 7 43 l-3 42 -52 1 -53 1 1 -46z"/>
<path d="M337 3803 c-14 -13 -6 -25 8 -13 12 10 19 10 27 2 8 -8 6 -13 -8 -18
-53 -19 -53 -54 1 -52 32 1 34 3 29 32 -3 17 -7 37 -10 44 -4 13 -36 17 -47 5z
m41 -55 c-3 -7 -11 -13 -18 -13 -7 0 -15 6 -17 13 -3 7 4 12 17 12 13 0 20 -5
18 -12z"/>
<path d="M423 3765 c0 -27 2 -38 4 -22 2 15 2 37 0 50 -2 12 -4 0 -4 -28z"/>
<path d="M495 3800 c3 -5 8 -10 11 -10 2 0 4 5 4 10 0 6 -5 10 -11 10 -5 0 -7
-4 -4 -10z"/>
<path d="M587 3804 c-15 -15 -6 -35 20 -45 19 -7 23 -13 15 -21 -8 -8 -16 -7
-28 3 -15 12 -17 12 -12 -1 7 -21 52 -19 56 2 2 12 -6 21 -24 28 -20 8 -24 14
-16 22 8 8 16 7 28 -3 15 -12 17 -12 12 1 -5 16 -39 25 -51 14z"/>
<path d="M753 3765 c0 -27 2 -38 4 -22 2 15 2 37 0 50 -2 12 -4 0 -4 -28z"/>
<path d="M781 3799 c-1 -23 19 -79 29 -79 4 0 13 12 18 28 5 15 13 35 17 45 4
9 3 17 -2 17 -6 0 -15 -15 -20 -32 l-10 -33 -16 35 c-8 19 -16 28 -16 19z"/>
<path d="M1021 3761 c1 -42 2 -43 8 -15 16 65 40 69 42 6 1 -20 3 -28 6 -17 2
11 6 30 9 43 7 35 28 21 35 -24 l7 -39 -2 45 -1 45 -52 1 -53 1 1 -46z"/>
<path d="M1167 3804 c-14 -14 -7 -26 8 -14 12 10 19 10 27 2 8 -8 7 -13 -5
-17 -9 -3 -24 -7 -33 -10 -8 -3 -14 -13 -12 -22 2 -13 14 -18 39 -19 l35 -2
-5 42 c-5 31 -11 42 -26 44 -12 2 -24 0 -28 -4z m43 -53 c0 -5 -7 -12 -16 -15
-22 -9 -24 -8 -24 9 0 8 9 15 20 15 11 0 20 -4 20 -9z"/>
<path d="M1387 3803 c-15 -14 -6 -34 20 -44 20 -7 23 -13 15 -21 -9 -9 -15 -9
-24 0 -17 17 -28 15 -21 -4 8 -21 57 -14 61 8 2 12 -6 21 -23 28 -14 5 -23 15
-20 20 5 8 11 8 19 1 14 -12 29 -4 20 10 -6 11 -38 12 -47 2z"/>
<path d="M1503 3765 c0 -27 2 -38 4 -22 2 15 2 37 0 50 -2 12 -4 0 -4 -28z"/>
<path d="M1543 3765 c0 -27 2 -38 4 -22 2 15 2 37 0 50 -2 12 -4 0 -4 -28z"/>
<path d="M1757 3803 c-14 -13 -7 -25 8 -13 8 6 19 9 25 5 17 -11 11 -23 -12
-27 -15 -2 -23 -10 -23 -23 0 -16 7 -20 36 -21 28 -1 36 2 33 15 -13 67 -15
71 -38 71 -12 0 -26 -3 -29 -7z m43 -52 c0 -14 -18 -23 -30 -16 -6 4 -8 11 -5
16 8 12 35 12 35 0z"/>
<path d="M1840 3789 c-17 -31 2 -72 32 -67 12 2 24 10 26 18 5 13 3 13 -11 2
-21 -18 -37 -7 -37 23 0 30 16 41 37 23 14 -11 16 -11 11 2 -8 24 -45 24 -58
-1z"/>
<path d="M1960 3765 c0 -25 5 -45 10 -45 6 0 10 20 10 45 0 25 -4 45 -10 45
-5 0 -10 -20 -10 -45z"/>
<path d="M2001 3760 c2 -34 3 -38 6 -15 9 62 43 69 43 9 0 -19 5 -34 10 -34
12 0 13 60 2 78 -5 6 -20 11 -35 10 -25 -2 -27 -5 -26 -48z"/>
<path d="M495 3730 c-3 -5 -1 -10 4 -10 6 0 11 5 11 10 0 6 -2 10 -4 10 -3 0
-8 -4 -11 -10z"/>
<path d="M1460 3730 c0 -5 5 -10 10 -10 6 0 10 5 10 10 0 6 -4 10 -10 10 -5 0
-10 -4 -10 -10z"/>
<path d="M1710 3730 c0 -5 5 -10 11 -10 5 0 7 5 4 10 -3 6 -8 10 -11 10 -2 0
-4 -4 -4 -10z"/>
<path d="M1920 3730 c0 -5 5 -10 10 -10 6 0 10 5 10 10 0 6 -4 10 -10 10 -5 0
-10 -4 -10 -10z"/>
<path d="M90 3430 c0 -33 4 -60 10 -60 6 0 10 11 10 24 0 19 6 25 26 28 63 7
51 68 -12 68 l-34 0 0 -60z m65 25 c0 -13 -8 -21 -22 -23 -19 -3 -23 1 -23 23
0 22 4 26 23 23 14 -2 22 -10 22 -23z"/>
<path d="M202 3430 c1 -54 2 -58 7 -25 4 26 11 40 21 40 10 0 17 -14 21 -40
l7 -40 -2 45 c-1 38 -4 45 -21 45 -11 0 -23 9 -27 20 -3 11 -6 -9 -6 -45z"/>
<path d="M652 3478 c-7 -7 -12 -29 -12 -49 0 -73 62 -78 68 -5 5 54 -26 84
-56 54z m48 -46 c0 -7 -5 -22 -11 -33 -14 -27 -39 -7 -39 30 0 38 21 57 37 34
7 -9 13 -23 13 -31z"/>
<path d="M957 3484 c-4 -4 -7 -14 -7 -22 0 -13 3 -12 19 2 16 14 20 15 30 2
10 -12 7 -20 -18 -42 -42 -38 -40 -54 7 -53 30 2 32 3 10 6 -35 5 -35 18 -2
39 34 23 31 68 -6 72 -14 2 -29 0 -33 -4z"/>
<path d="M1052 3478 c-17 -17 -15 -83 3 -98 24 -20 57 -3 53 28 -2 21 -9 28
-30 30 -25 3 -27 6 -17 24 8 15 14 17 22 9 17 -17 31 -13 17 4 -15 18 -32 19
-48 3z m43 -58 c4 -6 1 -18 -6 -26 -11 -13 -14 -13 -27 0 -8 8 -11 19 -8 25 9
14 33 14 41 1z"/>
<path d="M1130 3460 c0 -25 4 -29 22 -27 15 1 23 -4 26 -17 5 -25 -14 -44 -30
-28 -18 18 -33 15 -18 -3 28 -34 87 6 64 42 -6 10 -20 20 -32 23 -25 6 -17 25
13 33 13 3 9 5 -12 6 -30 1 -33 -2 -33 -29z"/>
<path d="M1220 3470 c-14 -25 2 -50 31 -50 11 0 19 -6 19 -14 0 -22 -19 -29
-37 -14 -14 11 -15 11 -11 -2 9 -27 51 -18 62 13 21 59 -36 119 -64 67z m47
-6 c8 -21 -13 -42 -28 -27 -13 13 -5 43 11 43 6 0 13 -7 17 -16z"/>
<path d="M1326 3469 c-17 -16 -17 -19 -3 -19 11 0 17 -12 20 -42 3 -34 4 -30
5 20 1 34 1 62 0 61 -2 0 -12 -9 -22 -20z"/>
<path d="M1400 3475 c-7 -8 -10 -18 -6 -22 3 -4 13 2 20 13 12 16 17 17 28 6
11 -11 10 -16 -5 -26 -15 -12 -16 -14 -2 -20 17 -6 20 -32 4 -41 -5 -4 -19 1
-30 11 -10 9 -19 13 -19 8 0 -16 23 -34 42 -34 21 0 42 35 31 52 -4 7 -7 24
-7 38 -1 30 -36 40 -56 15z"/>
<path d="M1490 3475 c-19 -23 -8 -50 23 -53 30 -4 34 -14 13 -31 -10 -8 -16
-9 -21 -1 -3 5 -11 10 -18 10 -6 0 -4 -8 6 -17 25 -25 51 -6 55 41 5 56 -29
86 -58 51z m50 -27 c0 -15 -32 -21 -40 -7 -13 20 9 43 26 28 8 -6 14 -16 14
-21z"/>
<path d="M1580 3471 c-15 -28 -12 -77 5 -91 25 -20 50 -8 50 25 0 23 -5 31
-22 33 -13 2 -23 10 -23 17 0 20 21 30 31 14 4 -7 11 -10 14 -7 11 11 -5 28
-25 28 -11 0 -24 -9 -30 -19z m45 -66 c0 -28 -29 -25 -33 3 -3 19 0 23 15 20
10 -2 18 -12 18 -23z"/>
<path d="M744 3465 c-17 -13 -17 -14 -2 -15 13 0 18 -11 21 -42 3 -37 4 -35 5
15 1 31 1 57 -1 57 -2 0 -12 -7 -23 -15z"/>
<path d="M834 3465 c-17 -13 -17 -14 -2 -15 13 0 18 -11 21 -42 3 -37 4 -35 5
15 1 31 1 57 -1 57 -2 0 -12 -7 -23 -15z"/>
<path d="M292 3448 c-7 -7 -12 -21 -12 -33 0 -46 53 -62 71 -21 21 45 -26 87
-59 54z m43 -34 c0 -19 -5 -29 -15 -29 -16 0 -25 28 -16 51 10 25 31 10 31
-22z"/>
<path d="M370 3416 c0 -55 17 -62 22 -8 4 52 31 50 39 -3 l7 -40 -2 45 c-1 43
-2 45 -33 48 -33 3 -33 3 -33 -42z"/>
<path d="M472 3448 c-16 -16 -15 -53 3 -68 17 -14 47 -10 53 8 3 11 0 12 -16
3 -15 -8 -23 -7 -32 4 -11 13 -8 15 19 15 28 0 32 3 29 23 -3 25 -36 35 -56
15z m48 -19 c0 -5 -9 -9 -20 -9 -19 0 -26 11 -14 23 8 8 34 -3 34 -14z"/>
<path d="M106 3124 c-20 -20 -20 -68 0 -88 34 -34 94 -4 94 46 0 10 5 18 10
18 6 0 10 -19 10 -42 0 -23 2 -39 4 -37 8 8 12 119 4 119 -4 0 -8 -6 -8 -14 0
-22 -25 -26 -38 -5 -15 23 -55 25 -76 3z m74 -44 c0 -52 -64 -62 -77 -12 -4
19 -1 30 16 44 31 24 61 9 61 -32z"/>
<path d="M263 3126 c-11 -19 -4 -106 8 -106 5 0 9 17 10 38 0 20 2 47 3 60 3
25 -9 29 -21 8z"/>
<path d="M300 3130 c0 -5 5 -10 10 -10 6 0 10 5 10 10 0 6 -4 10 -10 10 -5 0
-10 -4 -10 -10z"/>
<path d="M613 3080 c0 -36 2 -50 4 -32 2 17 2 47 0 65 -2 17 -4 3 -4 -33z"/>
<path d="M653 3080 c0 -36 2 -50 4 -32 2 17 2 47 0 65 -2 17 -4 3 -4 -33z"/>
<path d="M773 3129 c-7 -7 -9 -24 -6 -40 4 -24 2 -29 -13 -29 -14 0 -15 3 -6
12 7 7 12 17 12 23 -1 11 -30 -25 -30 -37 0 -4 9 -8 20 -8 11 0 20 -7 20 -15
0 -8 5 -15 10 -15 6 0 10 7 10 15 0 8 6 15 13 15 9 0 9 2 0 8 -6 4 -13 24 -15
45 -2 30 -6 36 -15 26z"/>
<path d="M827 3134 c-4 -4 -7 -14 -7 -22 0 -13 3 -12 19 2 16 14 20 15 30 2
10 -12 7 -20 -18 -42 -42 -38 -40 -54 7 -53 30 2 32 3 10 6 -35 5 -35 18 -2
39 34 23 31 68 -6 72 -14 2 -29 0 -33 -4z"/>
<path d="M917 3133 c-9 -16 -6 -102 4 -109 6 -3 21 -3 34 0 21 5 24 11 22 49
-2 23 -6 48 -11 55 -8 13 -42 17 -49 5z m43 -29 c0 -8 -7 -14 -15 -14 -15 0
-21 21 -9 33 10 9 24 -2 24 -19z m-1 -38 c9 -10 8 -16 -4 -26 -19 -16 -41 1
-32 24 8 20 21 20 36 2z"/>
<path d="M1053 3080 c0 -36 2 -50 4 -32 4 28 8 32 34 32 26 0 29 -3 29 -30 0
-16 5 -30 10 -30 6 0 10 27 10 60 0 33 -4 60 -10 60 -5 0 -10 -11 -10 -25 0
-21 -5 -25 -29 -25 -25 0 -30 5 -34 28 -2 15 -4 -2 -4 -38z"/>
<path d="M300 3065 c0 -25 5 -45 10 -45 6 0 10 20 10 45 0 25 -4 45 -10 45 -5
0 -10 -20 -10 -45z"/>
<path d="M340 3089 c-17 -31 2 -72 32 -67 12 2 24 10 26 18 5 13 3 13 -11 2
-21 -18 -37 -7 -37 23 0 30 16 41 37 23 14 -11 16 -11 11 2 -8 24 -45 24 -58
-1z"/>
<path d="M419 3089 c-24 -46 29 -93 61 -54 14 17 0 21 -17 4 -6 -6 -16 -8 -22
-5 -21 13 -11 26 19 26 31 0 39 17 18 38 -19 19 -46 14 -59 -9z m49 -7 c2 -7
-6 -12 -17 -12 -21 0 -27 11 -14 24 9 9 26 2 31 -12z"/>
<path d="M515 3100 c3 -5 8 -10 11 -10 2 0 4 5 4 10 0 6 -5 10 -11 10 -5 0 -7
-4 -4 -10z"/>
<path d="M515 3030 c-3 -5 -1 -10 4 -10 6 0 11 5 11 10 0 6 -2 10 -4 10 -3 0
-8 -4 -11 -10z"/>
<path d="M90 2730 c0 -33 4 -60 10 -60 6 0 10 11 10 24 0 19 6 25 26 28 63 7
51 68 -12 68 l-34 0 0 -60z m65 25 c0 -13 -8 -21 -22 -23 -19 -3 -23 1 -23 23
0 22 4 26 23 23 14 -2 22 -10 22 -23z"/>
<path d="M343 2776 c-11 -19 -4 -106 8 -106 5 0 9 17 10 38 0 20 2 47 3 60 3
25 -9 29 -21 8z"/>
<path d="M470 2730 c0 -68 17 -82 22 -17 l3 42 24 -42 c14 -24 28 -43 33 -43
4 0 7 28 6 63 -1 62 -1 62 -7 14 l-6 -47 -28 45 c-16 25 -33 45 -38 45 -5 0
-9 -27 -9 -60z"/>
<path d="M681 2776 c-12 -14 -5 -46 9 -46 5 0 21 -5 35 -10 23 -9 25 -13 15
-25 -16 -19 -25 -19 -45 1 -20 20 -33 11 -15 -11 24 -28 80 -13 80 23 0 7 -16
20 -35 28 -19 8 -35 19 -35 24 0 16 30 24 43 11 17 -17 31 -13 17 4 -16 19
-54 19 -69 1z"/>
<path d="M780 2730 c0 -66 17 -83 22 -22 4 46 22 45 26 -3 2 -19 8 -35 13 -35
6 0 9 19 7 43 -2 35 -7 43 -25 45 -13 2 -23 10 -23 18 0 8 -4 14 -10 14 -6 0
-10 -27 -10 -60z"/>
<path d="M1310 2730 c0 -33 4 -60 10 -60 6 0 10 11 10 24 0 37 16 40 40 6 12
-16 26 -30 31 -30 6 0 -2 16 -17 35 l-27 36 23 24 c32 34 13 32 -22 -2 l-28
-27 0 27 c0 15 -4 27 -10 27 -6 0 -10 -27 -10 -60z"/>
<path d="M202 2710 c1 -40 2 -41 5 -11 3 19 12 41 21 47 15 12 15 13 -5 11
-21 -1 -23 -6 -21 -47z"/>
<path d="M249 2739 c-8 -16 -8 -28 0 -45 18 -41 71 -25 71 21 0 44 -50 61 -71
24z m46 -25 c0 -19 -5 -29 -15 -29 -16 0 -25 28 -16 51 10 25 31 10 31 -22z"/>
<path d="M871 2710 c2 -34 3 -37 6 -15 3 17 12 38 20 47 14 15 13 17 -6 15
-18 -1 -21 -7 -20 -47z"/>
<path d="M930 2745 c-8 -9 -8 -15 -2 -15 6 0 14 5 17 10 4 6 11 8 16 5 16 -11
10 -24 -13 -27 -15 -2 -23 -10 -23 -23 0 -16 7 -20 36 -21 l35 -2 -5 42 c-5
32 -11 42 -27 44 -11 2 -27 -4 -34 -13z m40 -44 c0 -14 -18 -23 -30 -16 -6 4
-8 11 -5 16 8 12 35 12 35 0z"/>
<path d="M1017 2715 c8 -25 19 -45 23 -45 4 0 15 20 23 45 18 51 5 62 -13 13
l-13 -33 -10 33 c-5 17 -13 32 -18 32 -4 0 -1 -20 8 -45z"/>
<path d="M1097 2753 c-14 -14 -6 -23 12 -14 18 10 31 6 31 -10 0 -4 -10 -9
-22 -11 -15 -2 -23 -10 -23 -23 0 -16 7 -20 36 -21 28 -1 36 2 33 15 -13 67
-15 71 -38 71 -12 0 -26 -3 -29 -7z m43 -52 c0 -14 -18 -23 -30 -16 -6 4 -8
11 -5 16 8 12 35 12 35 0z"/>
<path d="M1180 2714 c0 -53 18 -59 22 -7 4 52 28 56 28 4 0 -23 5 -41 11 -41
6 0 9 17 7 43 -3 40 -5 42 -35 43 -32 1 -33 0 -33 -42z"/>
<path d="M1424 2720 c1 -43 2 -45 34 -48 32 -3 32 -3 32 42 0 55 -17 62 -22 9
-4 -53 -31 -51 -39 2 l-7 40 2 -45z"/>
<path d="M1511 2711 l2 -46 6 40 c4 26 11 40 21 40 10 0 17 -14 21 -40 l6 -40
2 37 c1 35 15 57 28 44 3 -3 10 -23 14 -43 l7 -38 -1 45 -2 45 -52 1 -53 1 1
-46z"/>
<path d="M1650 2745 c-8 -9 -8 -15 -2 -15 6 0 14 5 17 10 4 6 11 8 16 5 16
-11 10 -24 -13 -27 -15 -2 -23 -10 -23 -23 0 -16 7 -20 36 -21 l35 -2 -5 42
c-5 32 -11 42 -27 44 -11 2 -27 -4 -34 -13z m40 -44 c0 -14 -18 -23 -30 -16
-6 4 -8 11 -5 16 8 12 35 12 35 0z"/>
<path d="M1730 2713 c0 -24 5 -43 10 -43 6 0 10 15 10 33 0 18 5 38 11 44 9 9
7 12 -10 10 -18 -1 -21 -7 -21 -44z"/>
<path d="M590 2680 c0 -5 5 -10 11 -10 5 0 7 5 4 10 -3 6 -8 10 -11 10 -2 0
-4 -4 -4 -10z"/>
<path d="M90 2380 l0 -60 48 2 c43 1 44 2 10 5 -32 4 -38 8 -38 28 0 19 6 24
33 28 l32 4 -32 1 c-25 2 -33 7 -33 21 0 15 8 21 38 24 34 3 33 4 -10 5 l-48
2 0 -60z"/>
<path d="M450 2380 c0 -33 4 -60 10 -60 6 0 10 27 10 60 0 33 -4 60 -10 60 -6
0 -10 -27 -10 -60z"/>
<path d="M662 2380 c0 -49 2 -58 7 -34 16 65 41 74 41 14 0 -22 5 -40 11 -40
6 0 9 17 7 43 -3 37 -6 42 -28 42 -16 0 -27 7 -32 20 -3 11 -6 -9 -6 -45z"/>
<path d="M1153 2380 c0 -36 2 -55 4 -42 5 27 19 28 33 2 6 -11 15 -20 21 -20
5 0 2 12 -8 26 -13 21 -14 30 -5 45 15 23 0 25 -19 2 -13 -15 -15 -13 -20 18
-5 24 -6 16 -6 -31z"/>
<path d="M1615 2415 c-27 -26 -34 -78 -12 -92 6 -4 -224 -10 -513 -13 -333 -3
-111 -5 605 -5 811 0 961 1 532 5 -578 5 -599 6 -613 24 -8 11 -14 26 -14 33
0 22 49 65 66 59 9 -3 20 -6 24 -6 15 0 31 -40 25 -60 -10 -31 -27 -24 -20 8
5 24 2 28 -19 30 -31 2 -61 -35 -45 -54 12 -15 69 -16 87 -1 20 16 14 64 -10
81 -32 23 -65 20 -93 -9z m62 -41 c1 -5 -2 -16 -7 -24 -12 -20 -35 2 -26 25 6
17 27 16 33 -1z"/>
<path d="M2022 2380 c0 -49 2 -58 7 -34 16 65 41 74 41 14 0 -22 5 -40 11 -40
6 0 9 17 7 43 -3 37 -6 42 -28 42 -16 0 -27 7 -32 20 -3 11 -6 -9 -6 -45z"/>
<path d="M2230 2429 c0 -5 5 -7 10 -4 6 3 10 8 10 11 0 2 -4 4 -10 4 -5 0 -10
-5 -10 -11z"/>
<path d="M2410 2421 c0 -14 -6 -17 -24 -14 -33 7 -53 -29 -37 -63 8 -19 18
-24 41 -22 30 2 30 3 30 60 0 32 -2 58 -5 58 -3 0 -5 -8 -5 -19z m-11 -40 c7
-13 6 -23 -3 -36 -16 -22 -36 -12 -36 19 0 39 22 49 39 17z"/>
<path d="M1978 2420 c-2 -6 -2 -31 0 -55 3 -34 8 -45 21 -44 10 0 11 2 4 6
-15 5 -18 70 -4 75 5 2 3 8 -4 15 -8 8 -15 8 -17 3z"/>
<path d="M2308 2420 c-2 -6 -2 -31 0 -55 3 -34 8 -45 21 -44 10 0 11 2 4 6
-15 5 -18 70 -4 75 5 2 3 8 -4 15 -8 8 -15 8 -17 3z"/>
<path d="M201 2361 l2 -46 6 39 c8 55 31 60 31 7 0 -51 18 -54 22 -4 4 52 28
56 28 4 0 -23 5 -41 11 -41 6 0 9 17 7 43 l-3 42 -52 1 -53 1 1 -46z"/>
<path d="M337 2403 c-14 -13 -6 -25 8 -13 12 10 19 10 27 2 8 -8 6 -13 -8 -18
-53 -19 -53 -54 1 -52 32 1 34 3 29 32 -3 17 -7 37 -10 44 -4 13 -36 17 -47 5z
m41 -55 c-3 -7 -11 -13 -18 -13 -7 0 -15 6 -17 13 -3 7 4 12 17 12 13 0 20 -5
18 -12z"/>
<path d="M423 2365 c0 -27 2 -38 4 -22 2 15 2 37 0 50 -2 12 -4 0 -4 -28z"/>
<path d="M495 2400 c3 -5 8 -10 11 -10 2 0 4 5 4 10 0 6 -5 10 -11 10 -5 0 -7
-4 -4 -10z"/>
<path d="M587 2404 c-15 -15 -6 -35 20 -45 19 -7 23 -13 15 -21 -8 -8 -16 -7
-28 3 -15 12 -17 12 -12 -1 7 -21 52 -19 56 2 2 12 -6 21 -24 28 -20 8 -24 14
-16 22 8 8 16 7 28 -3 15 -12 17 -12 12 1 -5 16 -39 25 -51 14z"/>
<path d="M751 2360 c2 -34 3 -37 6 -15 3 17 12 38 20 47 14 15 13 17 -6 15
-18 -1 -21 -7 -20 -47z"/>
<path d="M807 2403 c-14 -13 -7 -25 8 -13 8 6 19 9 25 5 17 -11 11 -23 -12
-27 -15 -2 -23 -10 -23 -23 0 -16 7 -20 36 -21 28 -1 36 2 33 15 -13 67 -15
71 -38 71 -12 0 -26 -3 -29 -7z m43 -52 c0 -14 -18 -23 -30 -16 -6 4 -8 11 -5
16 8 12 35 12 35 0z"/>
<path d="M897 2365 c8 -25 18 -45 22 -45 4 0 14 20 23 45 10 25 13 45 8 45 -4
0 -14 -15 -20 -32 l-13 -33 -10 33 c-5 17 -13 32 -18 32 -4 0 -1 -20 8 -45z"/>
<path d="M977 2403 c-14 -13 -7 -25 8 -13 8 6 19 9 25 5 17 -11 11 -23 -12
-27 -15 -2 -23 -10 -23 -23 0 -16 7 -20 36 -21 28 -1 36 2 33 15 -13 67 -15
71 -38 71 -12 0 -26 -3 -29 -7z m43 -52 c0 -14 -18 -23 -30 -16 -6 4 -8 11 -5
16 8 12 35 12 35 0z"/>
<path d="M1061 2360 c2 -34 3 -38 6 -15 9 62 43 69 43 9 0 -19 5 -34 10 -34
12 0 13 60 2 78 -5 6 -20 11 -35 10 -25 -2 -27 -5 -26 -48z"/>
<path d="M1234 2370 c1 -41 3 -45 29 -48 26 -3 27 -2 26 45 l-2 48 -6 -40 c-4
-26 -11 -40 -21 -40 -10 0 -17 14 -21 40 l-7 40 2 -45z"/>
<path d="M1321 2361 l2 -46 6 40 c4 26 11 40 21 40 10 0 17 -14 21 -40 l6 -40
2 37 c1 35 15 57 28 44 3 -3 10 -23 14 -43 l7 -38 -1 45 -2 45 -52 1 -53 1 1
-46z"/>
<path d="M1457 2403 c-14 -13 -7 -25 8 -13 8 6 19 9 25 5 17 -11 11 -23 -12
-27 -15 -2 -23 -10 -23 -23 0 -16 7 -20 36 -21 28 -1 36 2 33 15 -13 67 -15
71 -38 71 -12 0 -26 -3 -29 -7z m43 -52 c0 -14 -18 -23 -30 -16 -6 4 -8 11 -5
16 8 12 35 12 35 0z"/>
<path d="M1541 2360 c2 -34 3 -37 6 -15 3 17 12 38 20 47 14 15 13 17 -6 15
-18 -1 -21 -7 -20 -47z"/>
<path d="M1761 2361 l2 -46 6 39 c8 55 31 60 31 7 0 -51 18 -54 22 -4 4 52 28
56 28 4 0 -23 5 -41 11 -41 6 0 9 17 7 43 l-3 42 -52 1 -53 1 1 -46z"/>
<path d="M1897 2403 c-14 -13 -6 -25 8 -13 12 10 19 10 27 2 8 -8 6 -13 -8
-18 -53 -19 -53 -54 1 -52 32 1 34 3 29 32 -3 17 -7 37 -10 44 -4 13 -36 17
-47 5z m41 -55 c-3 -7 -11 -13 -18 -13 -7 0 -15 6 -17 13 -3 7 4 12 17 12 13
0 20 -5 18 -12z"/>
<path d="M2117 2404 c-15 -15 -6 -35 20 -45 19 -7 23 -13 15 -21 -8 -8 -16 -7
-28 3 -15 12 -17 12 -12 -1 7 -21 52 -19 56 2 2 12 -6 21 -24 28 -20 8 -24 14
-16 22 8 8 16 7 28 -3 15 -12 17 -12 12 1 -5 16 -39 25 -51 14z"/>
<path d="M2230 2365 c0 -25 5 -45 10 -45 6 0 10 20 10 45 0 25 -4 45 -10 45
-5 0 -10 -20 -10 -45z"/>
<path d="M2273 2365 c0 -27 2 -38 4 -22 2 15 2 37 0 50 -2 12 -4 0 -4 -28z"/>
<path d="M2490 2395 c-8 -9 -8 -15 -2 -15 6 0 14 5 17 10 9 15 25 12 25 -4 0
-8 -10 -16 -22 -18 -15 -2 -23 -10 -23 -23 0 -16 7 -20 36 -21 l35 -2 -5 42
c-5 32 -11 42 -27 44 -11 2 -27 -4 -34 -13z m40 -44 c0 -14 -18 -23 -30 -16
-6 4 -8 11 -5 16 8 12 35 12 35 0z"/>
<path d="M2571 2388 c-12 -33 2 -63 29 -63 13 0 26 7 28 15 4 13 3 13 -11 2
-21 -18 -37 -7 -37 23 0 30 16 41 37 23 14 -11 16 -11 11 2 -8 26 -47 24 -57
-2z"/>
<path d="M2703 2365 c0 -27 2 -38 4 -22 2 15 2 37 0 50 -2 12 -4 0 -4 -28z"/>
<path d="M2731 2361 l1 -46 11 39 c17 55 37 59 37 7 0 -23 5 -41 11 -41 6 0 9
17 7 43 -3 40 -5 42 -35 43 -33 1 -33 1 -32 -45z"/>
<path d="M495 2330 c-3 -5 -1 -10 4 -10 6 0 11 5 11 10 0 6 -2 10 -4 10 -3 0
-8 -4 -11 -10z"/>
<path d="M2195 2330 c-3 -5 -1 -10 4 -10 6 0 11 5 11 10 0 6 -2 10 -4 10 -3 0
-8 -4 -11 -10z"/>
<path d="M2440 2330 c0 -5 5 -10 10 -10 6 0 10 5 10 10 0 6 -4 10 -10 10 -5 0
-10 -4 -10 -10z"/>
<path d="M2655 2330 c-3 -5 -1 -10 4 -10 6 0 11 5 11 10 0 6 -2 10 -4 10 -3 0
-8 -4 -11 -10z"/>
<path d="M90 2030 c0 -33 4 -60 10 -60 6 0 10 11 10 24 0 19 6 25 26 28 63 7
51 68 -12 68 l-34 0 0 -60z m65 25 c0 -13 -8 -21 -22 -23 -19 -3 -23 1 -23 23
0 22 4 26 23 23 14 -2 22 -10 22 -23z"/>
<path d="M202 2030 c1 -54 2 -58 7 -25 4 26 11 40 21 40 10 0 17 -14 21 -40
l7 -40 -2 45 c-1 38 -4 45 -21 45 -11 0 -23 9 -27 20 -3 11 -6 -9 -6 -45z"/>
<path d="M652 2078 c-7 -7 -12 -29 -12 -49 0 -73 62 -78 68 -5 5 54 -26 84
-56 54z m48 -46 c0 -7 -5 -22 -11 -33 -14 -27 -39 -7 -39 30 0 38 21 57 37 34
7 -9 13 -23 13 -31z"/>
<path d="M957 2084 c-4 -4 -7 -14 -7 -22 0 -13 3 -12 19 2 16 14 20 15 30 2
10 -12 7 -20 -18 -42 -42 -38 -40 -54 7 -53 30 2 32 3 10 6 -35 5 -35 18 -2
39 34 23 31 68 -6 72 -14 2 -29 0 -33 -4z"/>
<path d="M1052 2078 c-17 -17 -15 -83 3 -98 24 -20 57 -3 53 28 -2 21 -9 28
-30 30 -25 3 -27 6 -17 24 8 15 14 17 22 9 17 -17 31 -13 17 4 -15 18 -32 19
-48 3z m43 -58 c4 -6 1 -18 -6 -26 -11 -13 -14 -13 -27 0 -8 8 -11 19 -8 25 9
14 33 14 41 1z"/>
<path d="M1130 2060 c0 -25 4 -29 22 -27 15 1 23 -4 26 -17 5 -25 -14 -44 -30
-28 -18 18 -33 15 -18 -3 28 -34 87 6 64 42 -6 10 -20 20 -32 23 -25 6 -17 25
13 33 13 3 9 5 -12 6 -30 1 -33 -2 -33 -29z"/>
<path d="M1220 2070 c-14 -25 2 -50 31 -50 11 0 19 -6 19 -14 0 -22 -19 -29
-37 -14 -14 11 -15 11 -11 -2 9 -27 51 -18 62 13 21 59 -36 119 -64 67z m47
-6 c8 -21 -13 -42 -28 -27 -13 13 -5 43 11 43 6 0 13 -7 17 -16z"/>
<path d="M1326 2069 c-17 -16 -17 -19 -3 -19 11 0 17 -12 20 -42 3 -34 4 -30
5 20 1 34 1 62 0 61 -2 0 -12 -9 -22 -20z"/>
<path d="M1418 2054 c-33 -48 -34 -54 -8 -54 10 0 24 -8 29 -17 10 -17 10 -17
11 0 0 9 6 17 13 17 9 0 9 2 0 8 -6 4 -13 25 -15 46 l-3 40 -27 -40z m22 -24
c0 -11 -7 -20 -15 -20 -18 0 -19 12 -3 28 16 16 18 15 18 -8z"/>
<path d="M1494 2078 c-5 -7 -9 -32 -11 -55 -2 -38 1 -44 22 -49 37 -9 45 2 42
59 -2 45 -5 52 -24 55 -11 2 -25 -3 -29 -10z m36 -24 c0 -8 -7 -14 -15 -14
-15 0 -21 21 -9 33 10 9 24 -2 24 -19z m7 -40 c9 -23 -13 -40 -32 -24 -12 10
-13 16 -4 26 15 18 28 18 36 -2z"/>
<path d="M1576 2068 c-9 -35 -7 -39 12 -37 33 3 42 -1 42 -20 0 -23 -23 -34
-39 -18 -6 6 -14 7 -18 3 -11 -10 18 -27 42 -24 16 2 20 11 20 38 0 29 -4 36
-23 38 -29 4 -24 24 9 33 22 6 21 7 -7 8 -25 1 -33 -4 -38 -21z"/>
<path d="M744 2065 c-17 -13 -17 -14 -2 -15 13 0 18 -11 21 -42 3 -37 4 -35 5
15 1 31 1 57 -1 57 -2 0 -12 -7 -23 -15z"/>
<path d="M834 2065 c-17 -13 -17 -14 -2 -15 13 0 18 -11 21 -42 3 -37 4 -35 5
15 1 31 1 57 -1 57 -2 0 -12 -7 -23 -15z"/>
<path d="M292 2048 c-7 -7 -12 -21 -12 -33 0 -46 53 -62 71 -21 21 45 -26 87
-59 54z m43 -34 c0 -19 -5 -29 -15 -29 -16 0 -25 28 -16 51 10 25 31 10 31
-22z"/>
<path d="M370 2016 c0 -55 17 -62 22 -8 4 52 31 50 39 -3 l7 -40 -2 45 c-1 43
-2 45 -33 48 -33 3 -33 3 -33 -42z"/>
<path d="M472 2048 c-16 -16 -15 -53 3 -68 17 -14 47 -10 53 8 3 11 0 12 -16
3 -15 -8 -23 -7 -32 4 -11 13 -8 15 19 15 28 0 32 3 29 23 -3 25 -36 35 -56
15z m48 -19 c0 -5 -9 -9 -20 -9 -19 0 -26 11 -14 23 8 8 34 -3 34 -14z"/>
<path d="M106 1724 c-20 -20 -20 -68 0 -88 34 -34 94 -4 94 46 0 10 5 18 10
18 6 0 10 -19 10 -42 0 -23 2 -39 4 -37 8 8 12 119 4 119 -4 0 -8 -6 -8 -14 0
-22 -25 -26 -38 -5 -15 23 -55 25 -76 3z m74 -44 c0 -52 -64 -62 -77 -12 -4
19 -1 30 16 44 31 24 61 9 61 -32z"/>
<path d="M263 1726 c-11 -19 -4 -106 8 -106 5 0 9 17 10 38 0 20 2 47 3 60 3
25 -9 29 -21 8z"/>
<path d="M300 1730 c0 -5 5 -10 10 -10 6 0 10 5 10 10 0 6 -4 10 -10 10 -5 0
-10 -4 -10 -10z"/>
<path d="M600 1681 c0 -65 19 -87 21 -23 l1 37 12 -34 c17 -49 30 -48 46 1
l14 43 7 -45 c6 -44 6 -43 7 18 1 34 -2 62 -7 62 -5 0 -17 -24 -27 -52 l-17
-53 -17 49 c-24 72 -40 71 -40 -3z"/>
<path d="M758 1733 c17 -2 32 -7 32 -11 0 -4 -14 -25 -30 -46 -17 -22 -30 -43
-30 -48 0 -4 21 -7 48 -7 l47 2 -38 6 -38 6 26 35 c52 68 51 70 -2 68 -37 -1
-40 -2 -15 -5z"/>
<path d="M896 1719 c-17 -16 -17 -19 -3 -19 11 0 17 -12 20 -42 3 -34 4 -30 5
20 1 34 1 62 0 61 -2 0 -12 -9 -22 -20z"/>
<path d="M983 1733 c31 -5 33 -13 11 -54 -8 -17 -14 -37 -12 -45 2 -8 15 12
30 45 l26 61 -41 -1 c-30 -2 -34 -3 -14 -6z"/>
<path d="M1093 1729 c-7 -7 -9 -24 -6 -40 4 -24 2 -29 -13 -29 -14 0 -15 3 -6
12 7 7 12 17 12 23 -1 11 -30 -25 -30 -37 0 -4 9 -8 20 -8 11 0 20 -7 20 -15
0 -8 5 -15 10 -15 6 0 10 7 10 15 0 8 6 15 13 15 9 0 9 2 0 8 -6 4 -13 24 -15
45 -2 30 -6 36 -15 26z"/>
<path d="M300 1665 c0 -25 5 -45 10 -45 6 0 10 20 10 45 0 25 -4 45 -10 45 -5
0 -10 -20 -10 -45z"/>
<path d="M340 1689 c-17 -31 2 -72 32 -67 12 2 24 10 26 18 5 13 3 13 -11 2
-21 -18 -37 -7 -37 23 0 30 16 41 37 23 14 -11 16 -11 11 2 -8 24 -45 24 -58
-1z"/>
<path d="M419 1689 c-24 -46 29 -93 61 -54 14 17 0 21 -17 4 -6 -6 -16 -8 -22
-5 -21 13 -11 26 19 26 31 0 39 17 18 38 -19 19 -46 14 -59 -9z m49 -7 c2 -7
-6 -12 -17 -12 -21 0 -27 11 -14 24 9 9 26 2 31 -12z"/>
<path d="M515 1700 c3 -5 8 -10 11 -10 2 0 4 5 4 10 0 6 -5 10 -11 10 -5 0 -7
-4 -4 -10z"/>
<path d="M515 1630 c-3 -5 -1 -10 4 -10 6 0 11 5 11 10 0 6 -2 10 -4 10 -3 0
-8 -4 -11 -10z"/>
<path d="M90 1330 c0 -33 4 -60 10 -60 6 0 10 11 10 24 0 19 6 25 26 28 63 7
51 68 -12 68 l-34 0 0 -60z m65 25 c0 -13 -8 -21 -22 -23 -19 -3 -23 1 -23 23
0 22 4 26 23 23 14 -2 22 -10 22 -23z"/>
<path d="M343 1376 c-11 -19 -4 -106 8 -106 5 0 9 17 10 38 0 20 2 47 3 60 3
25 -9 29 -21 8z"/>
<path d="M482 1330 c-12 -33 -17 -60 -12 -60 5 0 12 9 15 20 8 26 41 26 55 -1
20 -37 22 -12 4 45 -10 31 -23 56 -30 56 -7 0 -21 -27 -32 -60z m47 -2 c1 -5
-6 -8 -14 -8 -16 0 -19 9 -8 36 6 16 7 16 14 -2 4 -10 8 -22 8 -26z"/>
<path d="M841 1328 c1 -35 4 -51 6 -36 3 22 10 27 36 30 28 3 32 7 32 33 0 27
-3 30 -37 33 l-38 3 1 -63z m57 29 c4 -20 -25 -34 -40 -19 -15 15 -1 44 19 40
10 -2 19 -11 21 -21z"/>
<path d="M990 1380 c0 -5 5 -10 10 -10 6 0 10 5 10 10 0 6 -4 10 -10 10 -5 0
-10 -4 -10 -10z"/>
<path d="M1250 1370 c0 -13 -5 -18 -15 -14 -35 14 -61 -46 -33 -74 7 -7 25
-12 40 -12 28 0 28 1 28 60 0 33 -4 60 -10 60 -5 0 -10 -9 -10 -20z m-5 -56
c0 -19 -5 -29 -15 -29 -16 0 -25 28 -16 51 10 25 31 10 31 -22z"/>
<path d="M1513 1330 c0 -36 2 -51 4 -35 9 62 43 69 43 9 0 -19 5 -34 10 -34
12 0 13 60 1 79 -5 8 -18 12 -29 9 -16 -4 -22 0 -25 16 -2 11 -4 -8 -4 -44z"/>
<path d="M748 1370 c-2 -6 -2 -31 0 -55 3 -34 8 -45 21 -44 10 0 11 2 4 6 -15
5 -18 70 -4 75 5 2 3 8 -4 15 -8 8 -15 8 -17 3z"/>
<path d="M202 1310 c1 -40 2 -41 5 -11 3 19 12 41 21 47 15 12 15 13 -5 11
-21 -1 -23 -6 -21 -47z"/>
<path d="M249 1339 c-8 -16 -8 -28 0 -45 18 -41 71 -25 71 21 0 44 -50 61 -71
24z m46 -25 c0 -19 -5 -29 -15 -29 -16 0 -25 28 -16 51 10 25 31 10 31 -22z"/>
<path d="M581 1311 l2 -46 6 39 c8 55 31 60 31 7 0 -51 18 -54 22 -4 4 52 28
56 28 4 0 -23 5 -41 11 -41 6 0 9 17 7 43 l-3 42 -52 1 -53 1 1 -46z"/>
<path d="M713 1315 c0 -27 2 -38 4 -22 2 15 2 37 0 50 -2 12 -4 0 -4 -28z"/>
<path d="M940 1313 c0 -24 5 -43 10 -43 6 0 10 15 10 33 0 18 5 38 11 44 9 9
7 12 -10 10 -18 -1 -21 -7 -21 -44z"/>
<path d="M990 1315 c0 -25 5 -45 10 -45 6 0 10 20 10 45 0 25 -4 45 -10 45 -5
0 -10 -20 -10 -45z"/>
<path d="M1020 1356 c0 -2 7 -23 15 -46 12 -35 13 -46 3 -58 -11 -12 -10 -14
1 -11 15 5 54 96 48 113 -2 6 -11 -5 -19 -24 l-15 -35 -7 33 c-4 17 -12 32
-17 32 -5 0 -9 -2 -9 -4z"/>
<path d="M1117 1353 c-14 -13 -6 -25 8 -13 12 10 19 10 27 2 8 -8 6 -13 -8
-18 -53 -19 -53 -54 1 -52 32 1 34 3 29 32 -3 17 -7 37 -10 44 -4 13 -36 17
-47 5z m41 -55 c-3 -7 -11 -13 -18 -13 -7 0 -15 6 -17 13 -3 7 4 12 17 12 13
0 20 -5 18 -12z"/>
<path d="M1297 1354 c-14 -14 -7 -26 8 -14 12 10 19 10 27 2 8 -8 7 -13 -5
-17 -9 -3 -24 -7 -33 -10 -8 -3 -14 -13 -12 -22 2 -13 14 -18 39 -19 l35 -2
-5 42 c-5 31 -11 42 -26 44 -12 2 -24 0 -28 -4z m33 -59 c-7 -8 -16 -15 -21
-15 -5 0 -9 7 -9 15 0 9 9 15 21 15 18 0 19 -2 9 -15z"/>
<path d="M1382 1310 c1 -40 2 -41 5 -11 3 19 12 41 21 47 15 12 15 13 -5 11
-21 -1 -23 -6 -21 -47z"/>
<path d="M1431 1346 c-12 -15 -2 -27 33 -40 15 -5 17 -9 8 -18 -9 -9 -15 -9
-24 0 -17 17 -28 15 -21 -4 8 -21 57 -14 61 8 2 12 -6 21 -23 28 -14 5 -23 15
-20 20 5 8 11 8 20 0 8 -6 16 -7 19 -2 14 23 -34 31 -53 8z"/>
<path d="M1603 1315 c0 -27 2 -38 4 -22 2 15 2 37 0 50 -2 12 -4 0 -4 -28z"/>
<path d="M90 980 l0 -60 48 2 c43 1 44 2 10 5 -32 4 -38 8 -38 28 0 19 6 24
33 28 l32 4 -32 1 c-25 2 -33 7 -33 21 0 15 8 21 38 24 34 3 33 4 -10 5 l-48
2 0 -60z"/>
<path d="M450 980 c0 -33 4 -60 10 -60 6 0 10 27 10 60 0 33 -4 60 -10 60 -6
0 -10 -27 -10 -60z"/>
<path d="M980 1020 c0 -13 -5 -18 -15 -14 -21 8 -45 -14 -45 -41 0 -28 19 -45
48 -42 20 1 22 7 22 59 0 32 -2 58 -5 58 -3 0 -5 -9 -5 -20z m-2 -59 c-3 -29
-25 -34 -41 -9 -8 12 -7 21 2 32 19 22 43 8 39 -23z"/>
<path d="M1242 980 c1 -54 2 -58 7 -25 4 26 11 40 21 40 10 0 17 -14 21 -40
l7 -40 -2 45 c-1 38 -4 45 -21 45 -11 0 -23 9 -27 20 -3 11 -6 -9 -6 -45z"/>
<path d="M1386 1019 c-28 -22 -36 -75 -14 -97 9 -9 -54 -12 -285 -12 -163 0
-297 2 -297 5 0 2 7 23 16 45 9 23 14 43 11 47 -3 3 -12 -10 -20 -28 l-14 -34
-7 33 c-4 17 -12 32 -17 32 -12 0 -12 0 6 -50 8 -23 15 -44 15 -46 0 -2 -43
-4 -95 -4 -52 0 -95 4 -95 8 0 4 12 8 28 7 25 0 27 3 27 40 0 38 -1 40 -32 41
-36 1 -33 10 -33 -101 0 -7 2002 -7 2009 0 2 3 -261 5 -585 5 -524 0 -592 2
-612 16 -30 21 -26 60 9 86 22 16 29 17 52 7 35 -16 44 -46 22 -68 -16 -15
-17 -14 -12 15 5 29 4 31 -21 29 -15 -1 -30 -3 -33 -3 -11 -3 -19 -31 -13 -46
6 -16 73 -19 92 -4 18 16 15 55 -8 78 -26 26 -60 25 -94 -1z m-752 -67 c-13
-20 -25 -20 -38 1 -7 10 -5 21 4 32 12 15 15 15 29 0 12 -12 13 -19 5 -33z
m809 32 c8 -9 -11 -44 -23 -44 -6 0 -10 8 -10 18 0 27 18 41 33 26z"/>
<path d="M1792 980 c0 -49 2 -58 7 -34 16 65 41 74 41 14 0 -22 5 -40 11 -40
6 0 9 17 7 43 -3 37 -6 42 -28 42 -16 0 -27 7 -32 20 -3 11 -6 -9 -6 -45z"/>
<path d="M2000 1029 c0 -5 5 -7 10 -4 6 3 10 8 10 11 0 2 -4 4 -10 4 -5 0 -10
-5 -10 -11z"/>
<path d="M2170 1020 c0 -13 -5 -18 -15 -14 -21 8 -45 -14 -45 -41 0 -29 18
-43 53 -43 26 0 27 2 27 59 0 33 -4 59 -10 59 -5 0 -10 -9 -10 -20z m-5 -56
c0 -19 -5 -29 -15 -29 -16 0 -25 28 -16 51 10 25 31 10 31 -22z"/>
<path d="M1748 1020 c-2 -6 -2 -31 0 -55 3 -34 8 -45 21 -44 10 0 11 2 4 6
-15 5 -18 70 -4 75 5 2 3 8 -4 15 -8 8 -15 8 -17 3z"/>
<path d="M2072 1014 c-7 -8 -8 -14 -2 -14 5 0 10 -18 10 -40 0 -22 3 -40 8
-40 7 0 8 98 0 105 -1 2 -9 -3 -16 -11z"/>
<path d="M201 961 l2 -46 6 39 c8 55 31 60 31 7 0 -51 18 -54 22 -4 4 52 28
56 28 4 0 -23 5 -41 11 -41 6 0 9 17 7 43 l-3 42 -52 1 -53 1 1 -46z"/>
<path d="M337 1003 c-14 -13 -6 -25 8 -13 12 10 19 10 27 2 8 -8 6 -13 -8 -18
-53 -19 -53 -54 1 -52 32 1 34 3 29 32 -3 17 -7 37 -10 44 -4 13 -36 17 -47 5z
m41 -55 c-3 -7 -11 -13 -18 -13 -7 0 -15 6 -17 13 -3 7 4 12 17 12 13 0 20 -5
18 -12z"/>
<path d="M423 965 c0 -27 2 -38 4 -22 2 15 2 37 0 50 -2 12 -4 0 -4 -28z"/>
<path d="M495 1000 c3 -5 8 -10 11 -10 2 0 4 5 4 10 0 6 -5 10 -11 10 -5 0 -7
-4 -4 -10z"/>
<path d="M671 960 c2 -34 3 -37 6 -15 3 17 12 38 20 47 14 15 13 17 -6 15 -18
-1 -21 -7 -20 -47z"/>
<path d="M723 965 c0 -27 2 -38 4 -22 2 15 2 37 0 50 -2 12 -4 0 -4 -28z"/>
<path d="M847 1003 c-14 -13 -6 -25 8 -13 12 10 19 10 27 2 8 -8 6 -13 -8 -18
-53 -19 -53 -54 1 -52 32 1 34 3 29 32 -3 17 -7 37 -10 44 -4 13 -36 17 -47 5z
m41 -55 c-3 -7 -11 -13 -18 -13 -7 0 -15 6 -17 13 -3 7 4 12 17 12 13 0 20 -5
18 -12z"/>
<path d="M1027 1004 c-14 -14 -7 -26 8 -14 12 10 19 10 27 2 8 -8 7 -13 -5
-17 -9 -3 -24 -7 -33 -10 -8 -3 -14 -13 -12 -22 2 -13 14 -18 39 -19 l35 -2
-5 42 c-5 31 -11 42 -26 44 -12 2 -24 0 -28 -4z m43 -53 c0 -5 -7 -12 -16 -15
-22 -9 -24 -8 -24 9 0 8 9 15 20 15 11 0 20 -4 20 -9z"/>
<path d="M1100 964 c0 -24 5 -44 10 -44 6 0 10 15 10 33 0 18 4 37 10 43 6 6
3 10 -10 11 -17 2 -20 -4 -20 -43z"/>
<path d="M1156 995 c-8 -22 1 -35 25 -35 21 0 26 -15 8 -26 -6 -3 -15 0 -20 7
-4 7 -11 10 -15 6 -13 -12 12 -29 37 -25 34 4 37 36 4 48 -14 5 -23 15 -20 20
5 8 12 7 23 -2 13 -11 14 -11 10 2 -7 21 -44 25 -52 5z"/>
<path d="M1333 965 c0 -27 2 -38 4 -22 2 15 2 37 0 50 -2 12 -4 0 -4 -28z"/>
<path d="M1520 965 c0 -54 18 -60 22 -7 2 20 8 37 13 37 6 0 11 -17 13 -37 4
-48 20 -49 24 -3 4 47 21 45 29 -2 l6 -38 2 46 1 47 -55 1 -55 0 0 -44z"/>
<path d="M1667 1004 c-14 -14 -7 -26 8 -14 12 10 19 10 27 2 8 -8 7 -13 -5
-17 -9 -3 -24 -7 -33 -10 -8 -3 -14 -13 -12 -22 2 -13 14 -18 39 -19 l35 -2
-5 42 c-5 31 -11 42 -26 44 -12 2 -24 0 -28 -4z m43 -53 c0 -5 -7 -12 -16 -15
-22 -9 -24 -8 -24 9 0 8 9 15 20 15 11 0 20 -4 20 -9z"/>
<path d="M1887 1003 c-15 -14 -6 -34 20 -44 20 -7 23 -13 15 -21 -9 -9 -15 -9
-24 0 -17 17 -28 15 -21 -4 8 -21 57 -14 61 8 2 12 -6 21 -23 28 -14 5 -23 15
-20 20 5 8 11 8 19 1 14 -12 29 -4 20 10 -6 11 -38 12 -47 2z"/>
<path d="M2000 965 c0 -25 5 -45 10 -45 6 0 10 20 10 45 0 25 -4 45 -10 45 -5
0 -10 -20 -10 -45z"/>
<path d="M2043 965 c0 -27 2 -38 4 -22 2 15 2 37 0 50 -2 12 -4 0 -4 -28z"/>
<path d="M2257 1003 c-14 -13 -7 -25 8 -13 8 6 19 9 25 5 17 -11 11 -23 -12
-27 -15 -2 -23 -10 -23 -23 0 -16 7 -20 36 -21 28 -1 36 2 33 15 -13 67 -15
71 -38 71 -12 0 -26 -3 -29 -7z m43 -52 c0 -14 -18 -23 -30 -16 -6 4 -8 11 -5
16 8 12 35 12 35 0z"/>
<path d="M2341 988 c-12 -33 2 -63 29 -63 13 0 26 7 28 15 4 13 3 13 -11 2
-21 -18 -37 -7 -37 23 0 30 16 41 37 23 14 -11 16 -11 11 2 -8 26 -47 24 -57
-2z"/>
<path d="M2473 965 c0 -27 2 -38 4 -22 2 15 2 37 0 50 -2 12 -4 0 -4 -28z"/>
<path d="M2501 961 l1 -46 11 39 c17 55 37 59 37 7 0 -23 5 -41 11 -41 6 0 9
17 7 43 -3 40 -5 42 -35 43 -33 1 -33 1 -32 -45z"/>
<path d="M495 930 c-3 -5 -1 -10 4 -10 6 0 11 5 11 10 0 6 -2 10 -4 10 -3 0
-8 -4 -11 -10z"/>
<path d="M1960 930 c0 -5 5 -10 10 -10 6 0 10 5 10 10 0 6 -4 10 -10 10 -5 0
-10 -4 -10 -10z"/>
<path d="M2210 930 c0 -5 5 -10 10 -10 6 0 10 5 10 10 0 6 -4 10 -10 10 -5 0
-10 -4 -10 -10z"/>
<path d="M2425 930 c-3 -5 -1 -10 4 -10 6 0 11 5 11 10 0 6 -2 10 -4 10 -3 0
-8 -4 -11 -10z"/>
<path d="M90 630 c0 -33 4 -60 10 -60 6 0 10 11 10 24 0 19 6 25 26 28 63 7
51 68 -12 68 l-34 0 0 -60z m65 25 c0 -13 -8 -21 -22 -23 -19 -3 -23 1 -23 23
0 22 4 26 23 23 14 -2 22 -10 22 -23z"/>
<path d="M202 630 c1 -54 2 -58 7 -25 4 26 11 40 21 40 10 0 17 -14 21 -40 l7
-40 -2 45 c-1 38 -4 45 -21 45 -11 0 -23 9 -27 20 -3 11 -6 -9 -6 -45z"/>
<path d="M652 678 c-7 -7 -12 -29 -12 -49 0 -73 62 -78 68 -5 5 54 -26 84 -56
54z m48 -46 c0 -7 -5 -22 -11 -33 -14 -27 -39 -7 -39 30 0 38 21 57 37 34 7
-9 13 -23 13 -31z"/>
<path d="M957 684 c-4 -4 -7 -14 -7 -22 0 -13 3 -12 19 2 16 14 20 15 30 2 10
-12 7 -20 -18 -42 -42 -38 -40 -54 7 -53 30 2 32 3 10 6 -35 5 -35 18 -2 39
34 23 31 68 -6 72 -14 2 -29 0 -33 -4z"/>
<path d="M1052 678 c-17 -17 -15 -83 3 -98 24 -20 57 -3 53 28 -2 21 -9 28
-30 30 -25 3 -27 6 -17 24 8 15 14 17 22 9 17 -17 31 -13 17 4 -15 18 -32 19
-48 3z m43 -58 c4 -6 1 -18 -6 -26 -11 -13 -14 -13 -27 0 -8 8 -11 19 -8 25 9
14 33 14 41 1z"/>
<path d="M1130 660 c0 -25 4 -29 22 -27 15 1 23 -4 26 -17 5 -25 -14 -44 -30
-28 -18 18 -33 15 -18 -3 28 -34 87 6 64 42 -6 10 -20 20 -32 23 -25 6 -17 25
13 33 13 3 9 5 -12 6 -30 1 -33 -2 -33 -29z"/>
<path d="M1220 670 c-14 -25 2 -50 31 -50 11 0 19 -6 19 -14 0 -22 -19 -29
-37 -14 -14 11 -15 11 -11 -2 9 -27 51 -18 62 13 21 59 -36 119 -64 67z m47
-6 c8 -21 -13 -42 -28 -27 -13 13 -5 43 11 43 6 0 13 -7 17 -16z"/>
<path d="M1326 669 c-17 -16 -17 -19 -3 -19 11 0 17 -12 20 -42 3 -34 4 -30 5
20 1 34 1 62 0 61 -2 0 -12 -9 -22 -20z"/>
<path d="M1418 654 c-33 -48 -34 -54 -8 -54 10 0 24 -8 29 -17 10 -17 10 -17
11 0 0 9 6 17 13 17 9 0 9 2 0 8 -6 4 -13 25 -15 46 l-3 40 -27 -40z m22 -24
c0 -11 -7 -20 -15 -20 -18 0 -19 12 -3 28 16 16 18 15 18 -8z"/>
<path d="M1494 678 c-5 -7 -9 -32 -11 -55 -2 -38 1 -44 22 -49 37 -9 45 2 42
59 -2 45 -5 52 -24 55 -11 2 -25 -3 -29 -10z m36 -24 c0 -8 -7 -14 -15 -14
-15 0 -21 21 -9 33 10 9 24 -2 24 -19z m7 -40 c9 -23 -13 -40 -32 -24 -12 10
-13 16 -4 26 15 18 28 18 36 -2z"/>
<path d="M1613 679 c-7 -7 -9 -24 -6 -40 4 -24 2 -29 -13 -29 -14 0 -15 3 -6
12 7 7 12 17 12 23 -1 11 -30 -25 -30 -37 0 -4 9 -8 20 -8 11 0 20 -7 20 -15
0 -8 5 -15 10 -15 6 0 10 7 10 15 0 8 6 15 13 15 9 0 9 2 0 8 -6 4 -13 24 -15
45 -2 30 -6 36 -15 26z"/>
<path d="M744 665 c-17 -13 -17 -14 -2 -15 13 0 18 -11 21 -42 3 -37 4 -35 5
15 1 31 1 57 -1 57 -2 0 -12 -7 -23 -15z"/>
<path d="M834 665 c-17 -13 -17 -14 -2 -15 13 0 18 -11 21 -42 3 -37 4 -35 5
15 1 31 1 57 -1 57 -2 0 -12 -7 -23 -15z"/>
<path d="M292 648 c-7 -7 -12 -21 -12 -33 0 -46 53 -62 71 -21 21 45 -26 87
-59 54z m43 -34 c0 -19 -5 -29 -15 -29 -16 0 -25 28 -16 51 10 25 31 10 31
-22z"/>
<path d="M370 616 c0 -55 17 -62 22 -8 4 52 31 50 39 -3 l7 -40 -2 45 c-1 43
-2 45 -33 48 -33 3 -33 3 -33 -42z"/>
<path d="M472 648 c-16 -16 -15 -53 3 -68 17 -14 47 -10 53 8 3 11 0 12 -16 3
-15 -8 -23 -7 -32 4 -11 13 -8 15 19 15 28 0 32 3 29 23 -3 25 -36 35 -56 15z
m48 -19 c0 -5 -9 -9 -20 -9 -19 0 -26 11 -14 23 8 8 34 -3 34 -14z"/>
<path d="M106 324 c-20 -20 -20 -68 0 -88 34 -34 94 -4 94 46 0 10 5 18 10 18
6 0 10 -19 10 -42 0 -23 2 -39 4 -37 8 8 12 119 4 119 -4 0 -8 -6 -8 -14 0
-22 -25 -26 -38 -5 -15 23 -55 25 -76 3z m74 -44 c0 -52 -64 -62 -77 -12 -4
19 -1 30 16 44 31 24 61 9 61 -32z"/>
<path d="M263 326 c-11 -19 -4 -106 8 -106 5 0 9 17 10 38 0 20 2 47 3 60 3
25 -9 29 -21 8z"/>
<path d="M300 330 c0 -5 5 -10 10 -10 6 0 10 5 10 10 0 6 -4 10 -10 10 -5 0
-10 -4 -10 -10z"/>
<path d="M600 281 c0 -65 19 -87 21 -23 l1 37 12 -34 c17 -49 30 -48 46 1 l14
43 7 -45 c6 -44 6 -43 7 18 1 34 -2 62 -7 62 -5 0 -17 -24 -27 -52 l-17 -53
-17 49 c-24 72 -40 71 -40 -3z"/>
<path d="M758 333 c17 -2 32 -7 32 -11 0 -4 -14 -25 -30 -46 -17 -22 -30 -43
-30 -48 0 -4 21 -7 48 -7 l47 2 -38 6 -38 6 26 35 c52 68 51 70 -2 68 -37 -1
-40 -2 -15 -5z"/>
<path d="M896 319 c-17 -16 -17 -19 -3 -19 11 0 17 -12 20 -42 3 -34 4 -30 5
20 1 34 1 62 0 61 -2 0 -12 -9 -22 -20z"/>
<path d="M970 321 c-15 -28 -12 -77 5 -91 25 -20 50 -8 50 25 0 23 -5 31 -22
33 -13 2 -23 10 -23 17 0 20 21 30 31 14 4 -7 11 -10 14 -7 11 11 -5 28 -25
28 -11 0 -24 -9 -30 -19z m45 -66 c0 -28 -29 -25 -33 3 -3 19 0 23 15 20 10
-2 18 -12 18 -23z"/>
<path d="M1060 325 c-7 -8 -10 -18 -6 -22 3 -4 12 2 20 12 13 19 36 13 36 -9
0 -7 -13 -22 -30 -34 -43 -32 -39 -52 8 -51 30 2 32 3 10 6 -35 5 -35 16 -2
37 18 13 24 24 22 44 -4 32 -37 42 -58 17z"/>
<path d="M300 265 c0 -25 5 -45 10 -45 6 0 10 20 10 45 0 25 -4 45 -10 45 -5
0 -10 -20 -10 -45z"/>
<path d="M340 289 c-17 -31 2 -72 32 -67 12 2 24 10 26 18 5 13 3 13 -11 2
-21 -18 -37 -7 -37 23 0 30 16 41 37 23 14 -11 16 -11 11 2 -8 24 -45 24 -58
-1z"/>
<path d="M419 289 c-24 -46 29 -93 61 -54 14 17 0 21 -17 4 -6 -6 -16 -8 -22
-5 -21 13 -11 26 19 26 31 0 39 17 18 38 -19 19 -46 14 -59 -9z m49 -7 c2 -7
-6 -12 -17 -12 -21 0 -27 11 -14 24 9 9 26 2 31 -12z"/>
<path d="M515 300 c3 -5 8 -10 11 -10 2 0 4 5 4 10 0 6 -5 10 -11 10 -5 0 -7
-4 -4 -10z"/>
<path d="M515 230 c-3 -5 -1 -10 4 -10 6 0 11 5 11 10 0 6 -2 10 -4 10 -3 0
-8 -4 -11 -10z"/>
</g>
</svg>
