<?xml version="1.0" standalone="no"?>
<!DOCTYPE svg PUBLIC "-//W3C//DTD SVG 20010904//EN"
 "http://www.w3.org/TR/2001/REC-SVG-20010904/DTD/svg10.dtd">
<svg version="1.0" xmlns="http://www.w3.org/2000/svg"
 width="1024.000000pt" height="535.000000pt" viewBox="0 0 1024.000000 535.000000"
 preserveAspectRatio="xMidYMid meet">

<g transform="translate(0.000000,535.000000) scale(0.100000,-0.100000)"
fill="#000000" stroke="none">
<path d="M2810 5220 c0 -16 7 -20 35 -20 l35 0 0 -95 c0 -95 0 -95 25 -95 25
0 25 0 25 95 l0 95 35 0 c28 0 35 4 35 20 0 19 -7 20 -95 20 -88 0 -95 -1 -95
-20z"/>
<path d="M3227 5233 c-4 -3 -7 -15 -7 -25 0 -10 -4 -18 -10 -18 -5 0 -10 -7
-10 -15 0 -8 5 -15 10 -15 6 0 10 -22 10 -49 0 -74 13 -101 50 -101 32 0 43
26 15 36 -11 5 -15 21 -15 60 0 41 4 54 15 54 8 0 15 7 15 15 0 8 -7 15 -15
15 -9 0 -15 9 -15 25 0 18 -5 25 -18 25 -10 0 -22 -3 -25 -7z"/>
<path d="M3640 5220 c0 -15 7 -20 25 -20 18 0 25 5 25 20 0 15 -7 20 -25 20
-18 0 -25 -5 -25 -20z"/>
<path d="M3910 5125 l0 -115 25 0 25 0 0 115 0 115 -25 0 -25 0 0 -115z"/>
<path d="M4155 5228 c-54 -149 -75 -210 -75 -213 0 -3 11 -5 25 -5 18 0 26 7
31 25 5 22 12 25 50 25 38 0 44 -3 50 -25 4 -18 13 -25 30 -25 13 0 24 3 24 8
0 4 -16 55 -36 115 -36 103 -38 107 -66 107 -16 0 -31 -6 -33 -12z m55 -115
c0 -7 -12 -13 -26 -13 -20 0 -25 4 -20 16 3 9 9 28 13 42 l6 27 13 -30 c7 -16
13 -36 14 -42z"/>
<path d="M4320 5125 l0 -115 25 0 25 0 0 115 0 115 -25 0 -25 0 0 -115z"/>
<path d="M4410 5125 l0 -115 25 0 25 0 0 115 0 115 -25 0 -25 0 0 -115z"/>
<path d="M4700 5215 c0 -14 -4 -25 -10 -25 -5 0 -10 -7 -10 -15 0 -8 5 -15 10
-15 6 0 10 -28 10 -63 0 -68 10 -87 47 -87 16 0 23 6 23 20 0 11 -4 20 -10 20
-5 0 -10 25 -10 55 0 30 5 55 10 55 6 0 10 7 10 15 0 8 -4 15 -10 15 -5 0 -10
11 -10 25 0 20 -5 25 -25 25 -20 0 -25 -5 -25 -25z"/>
<path d="M5467 5233 c-4 -3 -7 -15 -7 -25 0 -10 -4 -18 -10 -18 -5 0 -10 -7
-10 -15 0 -8 5 -15 10 -15 6 0 10 -22 10 -49 0 -74 13 -101 50 -101 32 0 43
26 15 36 -11 5 -15 21 -15 60 0 41 4 54 15 54 8 0 15 7 15 15 0 8 -7 15 -15
15 -9 0 -15 9 -15 25 0 18 -5 25 -18 25 -10 0 -22 -3 -25 -7z"/>
<path d="M5672 5228 c-7 -7 -12 -20 -12 -30 0 -10 -4 -18 -10 -18 -5 0 -10 -7
-10 -15 0 -8 5 -15 10 -15 6 0 10 -30 10 -70 0 -68 1 -70 25 -70 24 0 25 2 25
70 0 56 3 70 15 70 8 0 15 7 15 15 0 8 -7 15 -15 15 -20 0 -19 10 2 25 9 7 13
17 9 23 -9 16 -49 15 -64 0z"/>
<path d="M6170 5125 l0 -115 25 0 c24 0 25 2 26 78 1 70 2 74 10 37 25 -108
29 -115 54 -115 25 0 24 -4 53 115 9 37 10 35 11 -37 1 -76 2 -78 26 -78 l25
0 0 115 0 115 -38 0 -38 0 -20 -87 -19 -88 -20 88 -20 87 -37 0 -38 0 0 -115z"/>
<path d="M6420 5220 c0 -16 7 -20 35 -20 l35 0 0 -95 c0 -95 0 -95 25 -95 25
0 25 0 25 95 l0 95 35 0 c28 0 35 4 35 20 0 19 -7 20 -95 20 -88 0 -95 -1 -95
-20z"/>
<path d="M6630 5125 l0 -115 85 0 c78 0 85 2 85 20 0 18 -7 20 -55 20 l-55 0
0 95 0 95 -30 0 -30 0 0 -115z"/>
<path d="M6973 5221 c-7 -11 -23 -21 -35 -23 -33 -4 -29 -32 5 -36 27 -3 27
-4 27 -78 0 -72 1 -74 25 -74 l25 0 0 115 c0 103 -2 115 -18 115 -9 0 -23 -9
-29 -19z"/>
<path d="M7122 5233 c-22 -9 -42 -60 -42 -108 0 -84 41 -127 105 -111 67 17
75 195 10 220 -19 7 -54 7 -73 -1z m62 -49 c3 -9 6 -35 6 -59 0 -56 -8 -75
-30 -75 -22 0 -30 19 -30 75 0 56 8 75 30 75 10 0 21 -7 24 -16z"/>
<path d="M7327 5220 c-9 -11 -26 -20 -38 -20 -28 0 -21 -34 9 -38 21 -3 22 -8
22 -78 0 -72 1 -74 25 -74 l25 0 0 115 c0 122 -7 137 -43 95z"/>
<path d="M3020 5117 c0 -74 18 -107 59 -107 15 0 32 5 39 12 9 9 12 9 12 0 0
-7 11 -12 25 -12 25 0 25 1 25 85 0 84 0 85 -25 85 -23 0 -24 -4 -27 -62 -3
-60 -4 -63 -28 -63 -24 0 -25 3 -28 63 -3 58 -4 62 -27 62 -24 0 -25 -3 -25
-63z"/>
<path d="M3345 5157 c-57 -48 -21 -147 52 -147 46 0 68 13 83 49 36 88 -63
160 -135 98z m83 -29 c7 -7 12 -21 12 -33 0 -46 -53 -62 -71 -21 -21 45 26 87
59 54z"/>
<path d="M3520 5095 c0 -84 0 -85 25 -85 22 0 24 4 27 58 3 50 6 57 26 60 16
3 22 10 22 28 0 26 -18 32 -38 12 -9 -9 -12 -9 -12 0 0 7 -11 12 -25 12 -25 0
-25 -1 -25 -85z"/>
<path d="M3640 5095 c0 -84 0 -85 25 -85 25 0 25 1 25 85 0 84 0 85 -25 85
-25 0 -25 -1 -25 -85z"/>
<path d="M3747 5162 c-33 -36 -10 -57 32 -30 10 6 26 8 37 3 15 -6 10 -11 -30
-24 -56 -18 -77 -42 -60 -68 19 -31 41 -38 74 -26 16 6 30 7 30 2 0 -5 11 -9
24 -9 23 0 23 2 19 73 -4 49 -10 76 -21 85 -24 18 -86 15 -105 -6z m73 -92
c-12 -22 -50 -27 -50 -7 0 20 10 27 37 27 21 0 22 -3 13 -20z"/>
<path d="M4515 5155 c-78 -77 32 -192 119 -124 21 16 26 29 26 64 0 35 -5 48
-26 64 -37 29 -89 27 -119 -4z m90 -60 c0 -43 -22 -58 -50 -35 -32 27 -10 84
30 78 16 -2 20 -11 20 -43z"/>
<path d="M4800 5094 c0 -83 0 -84 25 -84 23 0 24 4 27 63 3 54 5 62 23 62 18
0 20 -8 23 -62 3 -59 4 -63 27 -63 23 0 24 4 27 63 3 54 5 62 23 62 18 0 20
-8 23 -62 3 -59 4 -63 27 -63 24 0 25 3 25 58 0 72 -17 106 -53 110 -16 2 -35
-2 -43 -9 -10 -8 -18 -8 -27 -1 -7 6 -38 11 -70 11 l-57 0 0 -85z"/>
<path d="M5100 5162 c-13 -10 -23 -33 -27 -59 -5 -35 -2 -45 20 -67 14 -14 37
-26 51 -26 32 0 73 19 80 37 4 11 -5 13 -46 11 -34 -2 -52 1 -55 10 -3 9 11
12 51 12 55 0 56 0 56 29 0 58 -82 92 -130 53z m78 -39 c2 -9 -7 -13 -27 -13
-30 0 -39 9 -24 24 11 10 46 3 51 -11z"/>
<path d="M5260 5095 c0 -84 0 -85 25 -85 23 0 24 4 27 63 3 59 4 62 28 62 24
0 25 -3 28 -62 3 -59 4 -63 27 -63 24 0 25 3 25 63 0 74 -18 107 -59 107 -15
0 -32 -5 -39 -12 -9 -9 -12 -9 -12 0 0 7 -11 12 -25 12 -25 0 -25 -1 -25 -85z"/>
<path d="M5775 5155 c-78 -77 32 -192 119 -124 21 16 26 29 26 64 0 35 -5 48
-26 64 -37 29 -89 27 -119 -4z m90 -60 c0 -43 -22 -58 -50 -35 -32 27 -10 84
30 78 16 -2 20 -11 20 -43z"/>
<path d="M5950 5095 c0 -84 0 -85 25 -85 22 0 24 4 27 57 3 52 5 58 28 63 16
4 26 14 28 28 4 24 -9 28 -39 12 -13 -7 -19 -7 -19 0 0 5 -11 10 -25 10 -25 0
-25 -1 -25 -85z"/>
<path d="M80 2805 l0 -1875 3215 0 3215 0 0 1875 0 1875 -3215 0 -3215 0 0
-1875z m1030 1450 l0 -415 -510 0 -510 0 0 415 0 415 510 0 510 0 0 -415z
m2560 115 l0 -300 -1275 0 -1275 0 0 300 0 300 1275 0 1275 0 0 -300z m2830 0
l0 -300 -1410 0 -1410 0 0 300 0 300 1410 0 1410 0 0 -300z m-4120 -420 l0
-110 -630 0 -630 0 0 110 0 110 630 0 630 0 0 -110z m1290 0 l0 -110 -640 0
-640 0 0 110 0 110 640 0 640 0 0 -110z m1400 0 l0 -110 -695 0 -695 0 0 110
0 110 695 0 695 0 0 -110z m1430 0 l0 -110 -710 0 -710 0 0 110 0 110 710 0
710 0 0 -110z m-5390 -405 l0 -285 -510 0 -510 0 0 285 0 285 510 0 510 0 0
-285z m1270 0 l0 -285 -630 0 -630 0 0 285 0 285 630 0 630 0 0 -285z m1290 0
l0 -285 -640 0 -640 0 0 285 0 285 640 0 640 0 0 -285z m1400 0 l0 -285 -695
0 -695 0 0 285 0 285 695 0 695 0 0 -285z m1430 0 l0 -285 -710 0 -710 0 0
285 0 285 710 0 710 0 0 -285z m-5390 -580 l0 -285 -510 0 -510 0 0 285 0 285
510 0 510 0 0 -285z m1270 0 l0 -285 -630 0 -630 0 0 285 0 285 630 0 630 0 0
-285z m1290 0 l0 -285 -640 0 -640 0 0 285 0 285 640 0 640 0 0 -285z m1400 0
l0 -285 -695 0 -695 0 0 285 0 285 695 0 695 0 0 -285z m1430 0 l0 -285 -710
0 -710 0 0 285 0 285 710 0 710 0 0 -285z m-5390 -580 l0 -285 -510 0 -510 0
0 285 0 285 510 0 510 0 0 -285z m1270 0 l0 -285 -630 0 -630 0 0 285 0 285
630 0 630 0 0 -285z m1290 0 l0 -285 -640 0 -640 0 0 285 0 285 640 0 640 0 0
-285z m1400 0 l0 -285 -695 0 -695 0 0 285 0 285 695 0 695 0 0 -285z m1430 0
l0 -285 -710 0 -710 0 0 285 0 285 710 0 710 0 0 -285z m-5390 -580 l0 -285
-510 0 -510 0 0 285 0 285 510 0 510 0 0 -285z m1270 0 l0 -285 -630 0 -630 0
0 285 0 285 630 0 630 0 0 -285z m1290 0 l0 -285 -640 0 -640 0 0 285 0 285
640 0 640 0 0 -285z m1400 0 l0 -285 -695 0 -695 0 0 285 0 285 695 0 695 0 0
-285z m1430 0 l0 -285 -710 0 -710 0 0 285 0 285 710 0 710 0 0 -285z m-5390
-580 l0 -285 -510 0 -510 0 0 285 0 285 510 0 510 0 0 -285z m1270 0 l0 -285
-630 0 -630 0 0 285 0 285 630 0 630 0 0 -285z m1290 0 l0 -285 -640 0 -640 0
0 285 0 285 640 0 640 0 0 -285z m1400 0 l0 -285 -695 0 -695 0 0 285 0 285
695 0 695 0 0 -285z m1430 0 l0 -285 -710 0 -710 0 0 285 0 285 710 0 710 0 0
-285z"/>
<path d="M480 4570 l0 -61 42 3 c36 3 44 7 52 31 6 17 6 37 0 55 -8 23 -16 27
-52 30 l-42 3 0 -61z m65 0 c0 -25 -5 -36 -17 -38 -15 -3 -18 4 -18 38 0 34 3
41 18 38 12 -2 17 -13 17 -38z"/>
<path d="M597 4593 c-16 -15 -5 -25 21 -19 l27 6 -28 -16 c-40 -22 -32 -48 16
-51 36 -2 37 -1 37 30 0 18 -5 38 -12 45 -13 13 -50 16 -61 5z m43 -53 c0 -5
-4 -10 -10 -10 -5 0 -10 5 -10 10 0 6 5 10 10 10 6 0 10 -4 10 -10z"/>
<path d="M688 4549 c13 -41 14 -52 3 -58 -10 -6 -10 -10 -2 -16 18 -10 36 10
50 56 7 23 15 47 18 55 3 8 -1 14 -10 14 -8 0 -18 -12 -22 -27 l-7 -28 -10 28
c-5 15 -16 27 -23 27 -11 0 -10 -10 3 -51z"/>
<path d="M2100 4571 c0 -48 3 -61 15 -61 10 0 15 11 16 33 l1 32 9 -32 c11
-38 36 -44 42 -10 l4 22 2 -22 c0 -13 8 -23 16 -23 12 0 15 13 15 60 0 53 -2
60 -20 60 -16 0 -21 -9 -27 -42 l-7 -43 -11 40 c-9 29 -18 41 -33 43 -21 3
-22 -1 -22 -57z"/>
<path d="M2490 4620 c0 -5 7 -10 15 -10 8 0 15 5 15 10 0 6 -7 10 -15 10 -8 0
-15 -4 -15 -10z"/>
<path d="M2239 4579 c-16 -30 3 -69 34 -69 29 0 47 17 47 45 0 45 -60 63 -81
24z m51 -24 c0 -16 -6 -25 -15 -25 -9 0 -15 9 -15 25 0 16 6 25 15 25 9 0 15
-9 15 -25z"/>
<path d="M2330 4554 c0 -32 4 -44 15 -44 10 0 15 10 15 30 0 18 6 33 15 36 25
10 17 21 -15 22 -29 1 -30 -1 -30 -44z"/>
<path d="M2400 4553 c0 -50 17 -59 22 -11 4 46 28 49 28 4 0 -25 4 -36 15 -36
10 0 15 10 15 33 0 44 -10 56 -48 55 -31 -1 -32 -2 -32 -45z"/>
<path d="M2490 4555 c0 -33 4 -45 15 -45 11 0 15 12 15 45 0 33 -4 45 -15 45
-11 0 -15 -12 -15 -45z"/>
<path d="M2540 4554 c0 -50 17 -60 22 -12 4 46 28 49 28 4 0 -26 4 -36 16 -36
12 0 14 9 12 43 -3 41 -4 42 -40 44 l-38 1 0 -44z"/>
<path d="M2639 4579 c-5 -11 -7 -30 -3 -42 4 -12 8 -29 8 -37 1 -10 11 -15 31
-15 29 0 30 1 33 56 l3 56 -31 1 c-20 0 -33 -6 -41 -19z m46 -24 c0 -10 -6
-20 -12 -22 -8 -3 -13 5 -13 22 0 17 5 25 13 23 6 -3 12 -13 12 -23z m2 -51
c-3 -3 -12 -4 -19 -1 -8 3 -5 6 6 6 11 1 17 -2 13 -5z"/>
<path d="M2571 4276 c-9 -11 -6 -13 14 -13 20 0 23 2 14 13 -6 8 -13 14 -14
14 -1 0 -8 -6 -14 -14z"/>
<path d="M1570 4270 c0 -5 9 -10 20 -10 17 0 20 -7 20 -50 0 -27 5 -50 10 -50
6 0 10 23 10 50 0 43 3 50 20 50 11 0 20 5 20 10 0 6 -22 10 -50 10 -27 0 -50
-4 -50 -10z"/>
<path d="M1680 4270 c0 -5 5 -10 10 -10 6 0 10 5 10 10 0 6 -4 10 -10 10 -5 0
-10 -4 -10 -10z"/>
<path d="M2192 4268 c-17 -17 -15 -83 3 -98 37 -31 78 23 59 78 -10 30 -42 40
-62 20z m38 -48 c0 -22 -4 -40 -9 -40 -12 0 -20 36 -14 60 9 34 23 22 23 -20z"/>
<path d="M2330 4261 c-21 -41 -4 -101 28 -101 28 0 42 21 42 60 0 56 -47 84
-70 41z m44 -17 c7 -19 -3 -64 -15 -64 -5 0 -9 18 -9 40 0 40 13 53 24 24z"/>
<path d="M2422 4268 c-17 -17 -15 -83 3 -98 37 -31 78 23 59 78 -10 30 -42 40
-62 20z m38 -48 c0 -22 -4 -40 -9 -40 -12 0 -20 36 -14 60 9 34 23 22 23 -20z"/>
<path d="M2651 4266 c-18 -22 -20 -63 -4 -86 17 -24 63 -27 63 -4 0 8 -4 12
-10 9 -5 -3 -15 -3 -22 1 -8 5 -6 10 8 15 17 7 17 8 -3 8 -13 1 -23 6 -23 11
0 6 10 10 23 11 21 0 21 1 2 9 -19 8 -17 10 10 14 6 0 11 6 13 11 4 16 -44 17
-57 1z"/>
<path d="M2737 4273 c-10 -10 -8 -33 2 -33 6 0 9 9 8 20 -1 23 -1 22 -10 13z"/>
<path d="M2766 4264 c-8 -22 -8 -24 8 -24 9 0 14 9 13 20 -2 24 -13 26 -21 4z"/>
<path d="M2870 4260 c-20 -16 -22 -20 -7 -20 13 0 17 -9 17 -40 0 -22 5 -40
10 -40 6 0 10 27 10 60 0 33 -1 60 -2 60 -2 0 -14 -9 -28 -20z"/>
<path d="M2963 4266 c-27 -13 -29 -22 -8 -30 9 -3 15 -19 15 -41 0 -19 5 -35
10 -35 6 0 10 27 10 60 0 33 -1 59 -2 59 -2 -1 -13 -6 -25 -13z"/>
<path d="M3091 4266 c-7 -8 -11 -34 -9 -58 3 -40 5 -43 33 -43 24 0 31 5 38
30 17 60 -28 112 -62 71z m37 -43 c-3 -42 -21 -51 -26 -15 -4 29 4 52 18 52 7
0 10 -15 8 -37z"/>
<path d="M3181 4266 c-7 -8 -11 -34 -9 -58 3 -40 5 -43 33 -43 24 0 31 5 38
30 17 60 -28 112 -62 71z m37 -43 c-3 -42 -21 -51 -26 -15 -4 29 4 52 18 52 7
0 10 -15 8 -37z"/>
<path d="M2118 4263 c-19 -5 -25 -23 -8 -23 6 0 10 -18 10 -40 0 -29 4 -40 15
-40 12 0 15 13 15 55 0 30 -3 54 -7 54 -5 -1 -16 -3 -25 -6z"/>
<path d="M1680 4205 c0 -25 5 -45 10 -45 6 0 10 20 10 45 0 25 -4 45 -10 45
-5 0 -10 -20 -10 -45z"/>
<path d="M1720 4205 c0 -52 17 -61 22 -12 2 17 8 32 13 32 6 0 11 -15 13 -32
2 -18 7 -33 12 -33 5 0 10 15 12 33 2 17 8 32 13 32 6 0 11 -15 13 -32 5 -49
24 -40 20 9 l-3 43 -57 3 -58 2 0 -45z"/>
<path d="M1861 4228 c-13 -36 2 -63 34 -63 16 0 30 6 33 13 3 9 -3 11 -22 6
-16 -4 -26 -2 -26 5 0 6 14 11 30 11 33 0 35 3 20 31 -15 27 -58 25 -69 -3z
m46 -4 c-3 -3 -12 -4 -19 -1 -8 3 -5 6 6 6 11 1 17 -2 13 -5z"/>
<path d="M2286 4243 c-11 -11 -6 -23 9 -23 8 0 15 4 15 9 0 13 -16 22 -24 14z"/>
<path d="M2557 4244 c-14 -15 -6 -25 14 -19 15 5 19 4 15 -4 -4 -6 -13 -11
-21 -11 -18 0 -26 -14 -19 -33 4 -11 18 -16 43 -15 l37 0 -5 42 c-5 35 -10 41
-31 44 -14 2 -29 0 -33 -4z m33 -54 c0 -5 -4 -10 -10 -10 -5 0 -10 5 -10 10 0
6 5 10 10 10 6 0 10 -4 10 -10z"/>
<path d="M3040 4235 c0 -8 5 -15 10 -15 6 0 10 7 10 15 0 8 -4 15 -10 15 -5 0
-10 -7 -10 -15z"/>
<path d="M1990 4200 c0 -5 11 -10 25 -10 14 0 25 5 25 10 0 6 -11 10 -25 10
-14 0 -25 -4 -25 -10z"/>
<path d="M2286 4183 c-11 -11 -6 -23 9 -23 8 0 15 4 15 9 0 13 -16 22 -24 14z"/>
<path d="M3040 4175 c0 -8 5 -15 10 -15 6 0 10 7 10 15 0 8 -4 15 -10 15 -5 0
-10 -7 -10 -15z"/>
<path d="M4790 4570 l0 -60 45 0 c25 0 45 5 45 10 0 6 -13 10 -30 10 -20 0
-30 5 -30 15 0 9 9 15 25 15 14 0 25 5 25 10 0 6 -11 10 -25 10 -16 0 -25 6
-25 15 0 10 10 15 30 15 17 0 30 5 30 10 0 6 -20 10 -45 10 l-45 0 0 -60z"/>
<path d="M5170 4620 c0 -5 5 -10 10 -10 6 0 10 5 10 10 0 6 -4 10 -10 10 -5 0
-10 -4 -10 -10z"/>
<path d="M4890 4594 c0 -4 5 -24 12 -45 12 -43 34 -51 47 -16 22 58 23 67 7
67 -9 0 -16 -9 -16 -20 0 -11 -4 -20 -9 -20 -5 0 -11 9 -14 20 -5 18 -27 29
-27 14z"/>
<path d="M4992 4588 c-7 -7 -12 -21 -12 -33 0 -42 45 -60 71 -28 13 15 11 16
-13 10 -15 -4 -30 -3 -33 3 -4 6 6 10 24 10 19 0 31 5 31 13 0 18 -21 37 -40
37 -9 0 -21 -5 -28 -12z"/>
<path d="M5070 4556 c0 -34 4 -46 15 -46 11 0 15 11 15 36 0 45 24 42 28 -4 5
-48 24 -38 20 11 -3 41 -4 42 -40 45 l-38 3 0 -45z"/>
<path d="M5170 4555 c0 -25 5 -45 10 -45 6 0 10 20 10 45 0 25 -4 45 -10 45
-5 0 -10 -20 -10 -45z"/>
<path d="M5210 4556 c0 -34 4 -46 15 -46 11 0 15 11 15 36 0 45 24 42 28 -4 5
-48 24 -38 20 11 -3 41 -4 42 -40 45 l-38 3 0 -45z"/>
<path d="M5320 4586 c-18 -22 -8 -59 20 -74 l25 -14 -28 7 c-21 4 -28 2 -25
-7 6 -18 46 -22 64 -8 9 8 14 31 14 61 0 47 -1 49 -29 49 -16 0 -34 -7 -41
-14z m40 -31 c0 -26 -14 -33 -25 -15 -9 14 1 40 15 40 5 0 10 -11 10 -25z"/>
<path d="M5251 4276 c-9 -11 -6 -13 14 -13 20 0 23 2 14 13 -6 8 -13 14 -14
14 -1 0 -8 -6 -14 -14z"/>
<path d="M4250 4270 c0 -5 9 -10 20 -10 17 0 20 -7 20 -50 0 -27 5 -50 10 -50
6 0 10 23 10 50 0 43 3 50 20 50 11 0 20 5 20 10 0 6 -22 10 -50 10 -27 0 -50
-4 -50 -10z"/>
<path d="M4360 4270 c0 -5 5 -10 10 -10 6 0 10 5 10 10 0 6 -4 10 -10 10 -5 0
-10 -4 -10 -10z"/>
<path d="M4780 4261 c-31 -59 16 -131 58 -89 16 16 16 80 0 96 -18 18 -46 14
-58 -7z m44 -17 c7 -19 -3 -64 -15 -64 -5 0 -9 18 -9 40 0 40 13 53 24 24z"/>
<path d="M5010 4261 c-31 -59 16 -131 58 -89 16 16 16 80 0 96 -18 18 -46 14
-58 -7z m44 -17 c7 -19 -3 -64 -15 -64 -5 0 -9 18 -9 40 0 40 13 53 24 24z"/>
<path d="M5102 4268 c-17 -17 -15 -83 3 -98 37 -31 78 23 59 78 -10 30 -42 40
-62 20z m38 -48 c0 -42 -14 -54 -23 -20 -6 24 2 60 14 60 5 0 9 -18 9 -40z"/>
<path d="M5331 4266 c-18 -22 -20 -63 -4 -86 17 -24 63 -27 63 -4 0 8 -4 12
-10 9 -5 -3 -15 -3 -22 1 -8 5 -6 10 8 15 17 7 17 8 -3 8 -13 1 -23 6 -23 11
0 6 10 10 23 11 21 0 21 1 2 9 -19 8 -17 10 10 14 6 0 11 6 13 11 4 16 -44 17
-57 1z"/>
<path d="M5417 4273 c-10 -10 -8 -33 2 -33 6 0 9 9 8 20 -1 23 -1 22 -10 13z"/>
<path d="M5446 4264 c-8 -22 -8 -24 8 -24 9 0 14 9 13 20 -2 24 -13 26 -21 4z"/>
<path d="M5541 4266 c-7 -8 -11 -34 -9 -58 3 -40 5 -43 33 -43 24 0 31 5 38
30 17 60 -28 112 -62 71z m37 -43 c-3 -42 -21 -51 -26 -15 -4 29 4 52 18 52 7
0 10 -15 8 -37z"/>
<path d="M5620 4245 c0 -30 3 -34 23 -32 14 1 22 -3 22 -13 0 -11 -9 -14 -30
-12 -28 3 -29 2 -13 -14 11 -11 24 -15 43 -10 22 6 26 11 23 39 -2 24 -8 33
-25 35 -31 5 -29 22 2 22 14 0 25 5 25 10 0 6 -16 10 -35 10 -33 0 -35 -2 -35
-35z"/>
<path d="M5771 4266 c-7 -8 -11 -34 -9 -58 3 -40 5 -43 33 -43 24 0 31 5 38
30 17 60 -28 112 -62 71z m37 -43 c-3 -42 -21 -51 -26 -15 -4 29 4 52 18 52 7
0 10 -15 8 -37z"/>
<path d="M5861 4266 c-7 -8 -11 -34 -9 -58 3 -40 5 -43 33 -43 24 0 31 5 38
30 17 60 -28 112 -62 71z m37 -43 c-3 -42 -21 -51 -26 -15 -4 29 4 52 18 52 7
0 10 -15 8 -37z"/>
<path d="M4880 4238 c-25 -42 -25 -58 0 -58 11 0 20 -4 20 -10 0 -14 27 -12
32 3 3 6 3 31 0 55 -5 51 -24 55 -52 10z m20 -23 c0 -8 -4 -15 -10 -15 -5 0
-7 7 -4 15 4 8 8 15 10 15 2 0 4 -7 4 -15z"/>
<path d="M4360 4205 c0 -25 5 -45 10 -45 6 0 10 20 10 45 0 25 -4 45 -10 45
-5 0 -10 -20 -10 -45z"/>
<path d="M4400 4205 c0 -52 17 -61 22 -12 2 17 8 32 13 32 6 0 11 -15 13 -32
2 -18 7 -33 12 -33 5 0 10 15 12 33 2 17 8 32 13 32 6 0 11 -15 13 -32 5 -49
24 -40 20 9 l-3 43 -57 3 -58 2 0 -45z"/>
<path d="M4541 4228 c-13 -36 2 -63 34 -63 16 0 30 6 33 13 3 9 -3 11 -22 6
-16 -4 -26 -2 -26 5 0 6 14 11 30 11 33 0 35 3 20 31 -15 27 -58 25 -69 -3z
m46 -4 c-3 -3 -12 -4 -19 -1 -8 3 -5 6 6 6 11 1 17 -2 13 -5z"/>
<path d="M4966 4243 c-11 -11 -6 -23 9 -23 8 0 15 4 15 9 0 13 -16 22 -24 14z"/>
<path d="M5237 4244 c-14 -15 -6 -25 14 -19 15 5 19 4 15 -4 -4 -6 -13 -11
-21 -11 -18 0 -26 -14 -19 -33 4 -11 18 -16 43 -15 l37 0 -5 42 c-5 35 -10 41
-31 44 -14 2 -29 0 -33 -4z m33 -54 c0 -5 -4 -10 -10 -10 -5 0 -10 5 -10 10 0
6 5 10 10 10 6 0 10 -4 10 -10z"/>
<path d="M5720 4235 c0 -8 5 -15 10 -15 6 0 10 7 10 15 0 8 -4 15 -10 15 -5 0
-10 -7 -10 -15z"/>
<path d="M4670 4200 c0 -5 11 -10 25 -10 14 0 25 5 25 10 0 6 -11 10 -25 10
-14 0 -25 -4 -25 -10z"/>
<path d="M4966 4183 c-11 -11 -6 -23 9 -23 8 0 15 4 15 9 0 13 -16 22 -24 14z"/>
<path d="M5720 4175 c0 -8 5 -15 10 -15 6 0 10 7 10 15 0 8 -4 15 -10 15 -5 0
-10 -7 -10 -15z"/>
<path d="M1552 3990 c11 -33 25 -60 32 -60 13 0 52 108 42 117 -11 11 -26 -9
-32 -45 l-7 -37 -14 43 c-8 23 -21 42 -28 42 -11 0 -9 -13 7 -60z"/>
<path d="M1640 3990 c0 -47 3 -60 15 -60 12 0 15 13 15 60 0 47 -3 60 -15 60
-12 0 -15 -13 -15 -60z"/>
<path d="M1830 4031 c-5 -11 -10 -29 -10 -40 0 -12 -4 -21 -10 -21 -5 0 -10
16 -10 35 0 46 -22 46 -49 -1 -27 -45 -26 -54 3 -54 13 0 26 -6 29 -12 3 -9
10 -7 21 7 15 19 17 19 27 3 12 -21 40 -23 57 -6 7 7 12 28 12 48 0 56 -47 84
-70 41z m44 -17 c7 -19 -3 -64 -15 -64 -5 0 -9 18 -9 40 0 40 13 53 24 24z
m-94 -24 c0 -11 -7 -20 -15 -20 -13 0 -13 3 -3 20 7 11 14 20 15 20 2 0 3 -9
3 -20z"/>
<path d="M1920 4035 c-6 -8 -8 -20 -4 -26 5 -9 11 -7 21 6 9 14 16 16 24 8 8
-8 3 -20 -20 -44 -17 -17 -31 -36 -31 -40 0 -5 18 -9 40 -9 22 0 40 5 40 10 0
6 -10 10 -22 10 l-21 0 21 23 c25 26 28 47 10 65 -16 16 -43 15 -58 -3z"/>
<path d="M2832 3990 c11 -33 25 -60 32 -60 13 0 52 108 42 117 -11 11 -26 -9
-32 -45 l-7 -37 -14 43 c-8 23 -21 42 -28 42 -11 0 -9 -13 7 -60z"/>
<path d="M2920 3990 c0 -47 3 -60 15 -60 12 0 15 13 15 60 0 47 -3 60 -15 60
-12 0 -15 -13 -15 -60z"/>
<path d="M3110 4031 c-5 -11 -10 -29 -10 -40 0 -12 -4 -21 -10 -21 -5 0 -10
16 -10 35 0 46 -22 46 -49 -1 -27 -45 -26 -54 3 -54 13 0 26 -6 29 -12 3 -9
10 -7 21 7 15 19 17 19 27 3 12 -21 40 -23 57 -6 16 16 16 80 0 96 -18 18 -46
14 -58 -7z m44 -17 c7 -19 -3 -64 -15 -64 -5 0 -9 18 -9 40 0 40 13 53 24 24z
m-94 -24 c0 -11 -7 -20 -15 -20 -13 0 -13 3 -3 20 7 11 14 20 15 20 2 0 3 -9
3 -20z"/>
<path d="M3211 4006 c-26 -42 -26 -56 -1 -56 11 0 20 -4 20 -10 0 -14 27 -12
32 3 3 6 3 31 0 55 -5 51 -23 54 -51 8z m19 -21 c0 -8 -4 -15 -10 -15 -5 0 -7
7 -4 15 4 8 8 15 10 15 2 0 4 -7 4 -15z"/>
<path d="M4140 3990 l0 -60 40 0 c22 0 40 5 40 10 0 6 -13 10 -30 10 -29 0
-30 1 -30 50 0 28 -4 50 -10 50 -6 0 -10 -27 -10 -60z"/>
<path d="M4230 3990 c0 -47 3 -60 15 -60 9 0 15 9 15 25 0 18 5 25 20 25 15 0
20 -7 20 -25 0 -16 6 -25 15 -25 12 0 15 13 15 60 0 47 -3 60 -15 60 -9 0 -15
-9 -15 -25 0 -18 -5 -25 -20 -25 -15 0 -20 7 -20 25 0 16 -6 25 -15 25 -12 0
-15 -13 -15 -60z"/>
<path d="M4401 4036 c-7 -8 -11 -31 -9 -52 4 -44 28 -65 56 -48 25 16 22 57
-5 69 -32 14 -29 27 5 19 24 -7 26 -6 13 9 -17 21 -45 22 -60 3z m39 -66 c0
-11 -4 -20 -9 -20 -14 0 -23 18 -16 30 10 17 25 11 25 -10z"/>
<path d="M4491 4036 c-7 -8 -11 -34 -9 -58 3 -40 5 -43 33 -43 24 0 31 5 38
30 17 60 -28 112 -62 71z m37 -43 c-3 -42 -21 -51 -26 -15 -4 29 4 52 18 52 7
0 10 -15 8 -37z"/>
<path d="M4583 4000 c-29 -49 -29 -50 2 -50 14 0 25 -4 25 -10 0 -14 27 -12
32 3 3 6 3 31 0 55 -5 55 -29 56 -59 2z m23 -27 c-10 -10 -19 5 -10 18 6 11 8
11 12 0 2 -7 1 -15 -2 -18z"/>
<path d="M5540 3990 l0 -60 40 0 c22 0 40 5 40 10 0 6 -13 10 -30 10 -29 0
-30 1 -30 50 0 28 -4 50 -10 50 -6 0 -10 -27 -10 -60z"/>
<path d="M5630 3990 c0 -47 3 -60 15 -60 9 0 15 9 15 25 0 18 5 25 20 25 15 0
20 -7 20 -25 0 -16 6 -25 15 -25 12 0 15 13 15 60 0 47 -3 60 -15 60 -9 0 -15
-9 -15 -25 0 -18 -5 -25 -20 -25 -15 0 -20 7 -20 25 0 16 -6 25 -15 25 -12 0
-15 -13 -15 -60z"/>
<path d="M5801 4036 c-7 -8 -11 -31 -9 -52 4 -44 28 -65 56 -48 25 16 22 57
-5 69 -32 14 -29 27 5 19 24 -7 26 -6 13 9 -17 21 -45 22 -60 3z m39 -66 c0
-11 -4 -20 -9 -20 -14 0 -23 18 -16 30 10 17 25 11 25 -10z"/>
<path d="M5891 4036 c-7 -8 -11 -34 -9 -58 3 -40 5 -43 33 -43 24 0 31 5 38
30 17 60 -28 112 -62 71z m37 -43 c-3 -42 -21 -51 -26 -15 -4 29 4 52 18 52 7
0 10 -15 8 -37z"/>
<path d="M5982 4038 c-15 -15 -16 -80 0 -96 32 -32 80 8 57 49 -7 14 -17 19
-30 16 -13 -4 -19 -1 -16 6 2 7 14 11 26 9 15 -1 21 3 19 10 -6 18 -41 21 -56
6z m38 -68 c0 -21 -15 -27 -25 -10 -7 12 2 30 16 30 5 0 9 -9 9 -20z"/>
<path d="M320 3761 c0 -48 3 -61 15 -61 10 0 15 11 16 33 l1 32 9 -32 c11 -38
36 -44 42 -10 l4 22 2 -22 c0 -13 8 -23 16 -23 12 0 15 13 15 60 0 53 -2 60
-20 60 -16 0 -21 -9 -27 -42 l-7 -43 -11 40 c-9 29 -18 41 -33 43 -21 3 -22
-1 -22 -57z"/>
<path d="M710 3805 c0 -8 -8 -15 -19 -15 -26 0 -43 -24 -39 -57 3 -24 8 -28
41 -31 l37 -3 0 60 c0 34 -4 61 -10 61 -5 0 -10 -7 -10 -15z m-10 -60 c0 -26
-14 -33 -25 -15 -9 14 1 40 15 40 5 0 10 -11 10 -25z"/>
<path d="M459 3769 c-16 -30 3 -69 34 -69 29 0 47 17 47 45 0 45 -60 63 -81
24z m51 -24 c0 -16 -6 -25 -15 -25 -9 0 -15 9 -15 25 0 16 6 25 15 25 9 0 15
-9 15 -25z"/>
<path d="M550 3746 c0 -34 4 -46 15 -46 11 0 15 11 15 36 0 45 24 42 28 -4 5
-48 24 -38 20 11 -3 41 -4 42 -40 45 l-38 3 0 -45z"/>
<path d="M757 3784 c-14 -15 -6 -25 14 -19 15 5 19 4 15 -4 -4 -6 -13 -11 -21
-11 -18 0 -26 -14 -19 -33 4 -11 18 -16 43 -15 l37 0 -5 42 c-5 35 -10 41 -31
44 -14 2 -29 0 -33 -4z m33 -54 c0 -5 -4 -10 -10 -10 -5 0 -10 5 -10 10 0 6 5
10 10 10 6 0 10 -4 10 -10z"/>
<path d="M833 3778 c31 -84 32 -89 17 -98 -17 -11 -7 -25 13 -17 21 8 60 127
42 127 -7 0 -18 -12 -23 -27 l-10 -28 -7 28 c-4 15 -14 27 -22 27 -8 0 -13 -6
-10 -12z"/>
<path d="M1372 3758 c2 -61 2 -61 5 -13 l4 49 30 -47 c16 -26 34 -47 39 -47 6
0 10 27 10 60 0 33 -4 60 -10 60 -5 0 -10 -19 -10 -42 l0 -43 -28 42 c-15 24
-30 43 -34 43 -5 0 -7 -28 -6 -62z"/>
<path d="M1572 3760 c1 -36 3 -51 5 -35 9 62 43 69 43 9 0 -19 5 -34 11 -34 6
0 9 17 7 43 -3 37 -6 42 -28 42 -16 0 -27 7 -32 20 -3 11 -6 -9 -6 -45z"/>
<path d="M1815 3784 c-22 -54 -29 -84 -17 -84 5 0 12 9 15 20 3 12 14 20 25
20 12 0 23 -9 27 -20 3 -11 11 -20 16 -20 6 0 7 9 3 23 -34 107 -45 117 -69
61z m35 -20 c0 -8 -6 -14 -14 -14 -9 0 -12 7 -9 20 6 22 23 18 23 -6z"/>
<path d="M1481 3768 c-5 -13 -5 -32 -1 -43 8 -22 47 -32 63 -16 15 15 0 26
-16 12 -11 -9 -17 -8 -27 4 -11 13 -8 15 19 15 28 0 32 3 29 23 -5 33 -55 37
-67 5z m49 -9 c0 -5 -10 -9 -21 -9 -18 0 -19 2 -9 15 12 15 30 12 30 -6z"/>
<path d="M1667 3783 c-14 -14 -6 -20 19 -15 19 3 25 1 20 -7 -4 -6 -15 -11
-26 -11 -19 0 -34 -25 -25 -41 3 -4 22 -8 41 -7 26 1 33 5 29 15 -3 8 -5 28
-5 44 0 24 -4 29 -23 29 -13 0 -27 -3 -30 -7z m43 -52 c0 -12 -28 -22 -34 -12
-3 5 -3 11 1 15 9 9 33 7 33 -3z"/>
<path d="M1900 3745 c0 -25 5 -45 10 -45 6 0 10 16 10 35 0 19 5 35 10 35 6 0
10 5 10 10 0 6 -9 10 -20 10 -17 0 -20 -7 -20 -45z"/>
<path d="M1954 3776 c-3 -8 -4 -27 -2 -43 2 -23 8 -28 32 -28 33 0 48 27 35
63 -10 25 -56 31 -65 8z m56 -31 c0 -7 -6 -18 -14 -24 -20 -17 -39 16 -24 42
7 15 12 16 24 6 8 -6 14 -17 14 -24z"/>
<path d="M2040 3745 c0 -25 5 -45 10 -45 6 0 10 14 10 31 0 19 7 37 18 45 15
12 14 13 -10 14 -26 0 -28 -2 -28 -45z"/>
<path d="M2107 3784 c-14 -15 -6 -21 21 -16 18 3 24 1 17 -6 -5 -5 -19 -12
-30 -14 -12 -2 -20 -11 -20 -23 0 -16 7 -20 36 -21 l35 -2 -5 42 c-5 31 -11
42 -26 44 -12 2 -24 0 -28 -4z m33 -59 c-12 -15 -30 -12 -30 6 0 5 10 9 21 9
18 0 19 -2 9 -15z"/>
<path d="M1458 3459 c-12 -7 -18 -22 -18 -49 0 -46 22 -63 73 -57 26 3 33 8
35 30 3 25 1 27 -30 26 -24 -1 -27 -3 -10 -6 30 -6 23 -27 -11 -31 -33 -4 -53
28 -37 58 12 22 56 27 63 8 2 -7 8 -10 12 -6 12 12 -15 38 -39 38 -11 0 -29
-5 -38 -11z"/>
<path d="M1937 3463 c-4 -3 -7 -13 -7 -21 0 -13 3 -13 18 1 19 18 32 14 32
-10 0 -7 -8 -13 -17 -13 -17 -1 -17 -1 0 -11 18 -11 23 -34 8 -44 -5 -3 -17 2
-26 12 -16 16 -17 15 -13 -3 2 -14 12 -19 33 -19 28 0 30 3 32 40 2 58 -5 75
-31 75 -12 0 -26 -3 -29 -7z"/>
<path d="M2020 3450 c-13 -24 -5 -26 17 -4 12 11 19 12 27 4 8 -8 6 -15 -8
-25 -17 -13 -17 -15 -3 -21 18 -7 23 -29 8 -39 -5 -3 -17 2 -26 11 -20 20 -33
11 -15 -11 15 -18 44 -20 58 -2 11 14 10 76 -1 95 -12 19 -45 14 -57 -8z"/>
<path d="M1560 3395 c0 -25 5 -45 10 -45 6 0 10 14 10 31 0 19 7 37 18 45 15
12 14 13 -10 14 -26 0 -28 -2 -28 -45z"/>
<path d="M1620 3426 c-28 -35 11 -93 48 -70 35 22 22 84 -18 84 -10 0 -23 -7
-30 -14z m50 -29 c0 -13 -3 -26 -6 -30 -12 -12 -34 6 -34 29 0 17 6 24 20 24
14 0 20 -7 20 -23z"/>
<path d="M1700 3408 c0 -45 11 -59 43 -56 25 2 27 5 26 48 -2 34 -3 38 -6 15
-9 -62 -43 -69 -43 -9 0 19 -4 34 -10 34 -5 0 -10 -15 -10 -32z"/>
<path d="M1790 3380 c0 -33 4 -60 10 -60 6 0 10 7 10 15 0 8 8 15 18 15 24 0
42 19 42 45 0 29 -19 45 -52 45 -28 0 -28 -1 -28 -60z m60 15 c0 -18 -5 -25
-20 -25 -15 0 -20 7 -20 25 0 18 5 25 20 25 15 0 20 -7 20 -25z"/>
<path d="M2634 3760 c11 -33 26 -60 32 -60 12 0 49 109 40 118 -8 8 -11 3 -28
-48 l-15 -45 -14 44 c-9 25 -20 46 -26 48 -6 2 -1 -23 11 -57z"/>
<path d="M2725 3810 c3 -5 8 -10 11 -10 2 0 4 5 4 10 0 6 -5 10 -11 10 -5 0
-7 -4 -4 -10z"/>
<path d="M2810 3805 c0 -8 -9 -15 -20 -15 -28 0 -45 -36 -31 -66 8 -19 18 -24
41 -22 30 2 30 3 30 60 0 32 -4 58 -10 58 -5 0 -10 -7 -10 -15z m0 -58 c0 -13
-3 -26 -6 -30 -12 -12 -34 6 -34 29 0 17 6 24 20 24 14 0 20 -7 20 -23z"/>
<path d="M3072 3808 c-21 -21 -13 -37 23 -52 19 -8 35 -20 35 -25 0 -15 -43
-14 -58 1 -9 9 -12 8 -12 -4 0 -30 59 -38 81 -12 16 20 1 46 -31 54 -13 3 -25
10 -27 17 -6 17 25 24 41 8 17 -17 30 -7 15 12 -14 16 -51 17 -67 1z"/>
<path d="M2720 3745 c0 -25 5 -45 10 -45 6 0 10 20 10 45 0 25 -4 45 -10 45
-5 0 -10 -20 -10 -45z"/>
<path d="M2857 3745 c12 -36 13 -49 3 -60 -10 -12 -10 -15 2 -15 8 0 23 25 36
60 21 61 16 83 -8 33 l-13 -28 -9 28 c-5 15 -14 27 -18 27 -5 0 -2 -20 7 -45z"/>
<path d="M2935 3780 c-11 -17 3 -25 19 -11 10 8 16 9 21 1 3 -5 -5 -14 -19
-20 -16 -6 -26 -17 -26 -29 0 -16 7 -20 38 -19 l38 0 -5 42 c-5 35 -10 41 -33
44 -14 2 -29 -2 -33 -8z m45 -49 c0 -14 -18 -23 -30 -16 -6 4 -8 11 -5 16 8
12 35 12 35 0z"/>
<path d="M3177 3784 c-14 -15 -6 -21 21 -16 18 3 24 1 17 -6 -5 -5 -19 -12
-30 -14 -12 -2 -20 -11 -20 -23 0 -16 7 -20 36 -21 l35 -2 -5 42 c-5 31 -11
42 -26 44 -12 2 -24 0 -28 -4z m33 -59 c-12 -15 -30 -12 -30 6 0 5 10 9 21 9
18 0 19 -2 9 -15z"/>
<path d="M3262 3778 c-15 -15 -16 -55 -2 -63 8 -5 7 -11 -1 -21 -13 -16 7 -28
38 -22 14 2 19 14 21 58 3 52 1 56 -21 58 -13 1 -29 -4 -35 -10z m42 -46 c-20
-31 -44 -3 -29 35 5 15 7 15 23 0 13 -14 14 -21 6 -35z m0 -37 c-7 -17 -20
-20 -29 -6 -3 5 3 12 12 14 10 3 19 5 20 6 1 0 0 -6 -3 -14z"/>
<path d="M3345 3780 c-11 -17 3 -25 19 -11 10 8 16 9 21 1 3 -5 -6 -15 -20
-20 -39 -15 -29 -45 16 -46 l35 -2 -5 42 c-5 35 -10 41 -33 44 -14 2 -29 -2
-33 -8z m43 -52 c-6 -18 -28 -21 -28 -4 0 9 7 16 16 16 9 0 14 -5 12 -12z"/>
<path d="M3430 3745 c0 -25 5 -45 10 -45 6 0 10 14 10 31 0 19 7 37 18 45 15
12 14 13 -10 14 -26 0 -28 -2 -28 -45z"/>
<path d="M2738 3459 c-12 -7 -18 -22 -18 -49 0 -46 22 -63 73 -57 26 3 33 8
35 30 3 25 1 27 -30 26 -24 -1 -27 -3 -10 -6 30 -6 23 -27 -11 -31 -33 -4 -53
28 -37 58 12 22 56 27 63 8 2 -7 8 -10 12 -6 12 12 -15 38 -39 38 -11 0 -29
-5 -38 -11z"/>
<path d="M3217 3463 c-4 -3 -7 -13 -7 -21 0 -13 3 -13 18 1 19 18 32 14 32
-10 0 -7 -8 -13 -17 -13 -17 -1 -17 -1 0 -11 18 -11 23 -34 8 -44 -5 -3 -17 2
-26 12 -16 16 -17 15 -13 -3 2 -14 12 -19 33 -19 28 0 30 3 32 40 2 58 -5 75
-31 75 -12 0 -26 -3 -29 -7z"/>
<path d="M3317 3431 c-33 -50 -33 -51 -2 -51 16 0 25 -6 25 -15 0 -21 20 -19
21 3 2 38 -3 87 -10 95 -4 4 -20 -10 -34 -32z m23 -21 c0 -11 -7 -20 -15 -20
-13 0 -14 4 -5 20 6 11 13 20 15 20 3 0 5 -9 5 -20z"/>
<path d="M2840 3395 c0 -25 5 -45 10 -45 6 0 10 14 10 31 0 19 7 37 18 45 15
12 14 13 -10 14 -26 0 -28 -2 -28 -45z"/>
<path d="M2900 3426 c-28 -35 11 -93 48 -70 35 22 22 84 -18 84 -10 0 -23 -7
-30 -14z m50 -29 c0 -13 -3 -26 -6 -30 -12 -12 -34 6 -34 29 0 17 6 24 20 24
14 0 20 -7 20 -23z"/>
<path d="M2980 3408 c0 -45 11 -59 43 -56 25 2 27 5 26 48 -2 34 -3 38 -6 15
-9 -62 -43 -69 -43 -9 0 19 -4 34 -10 34 -5 0 -10 -15 -10 -32z"/>
<path d="M3070 3380 c0 -33 4 -60 10 -60 6 0 10 7 10 15 0 8 8 15 18 15 24 0
42 19 42 45 0 29 -19 45 -52 45 -28 0 -28 -1 -28 -60z m60 15 c0 -18 -5 -25
-20 -25 -15 0 -20 7 -20 25 0 18 5 25 20 25 15 0 20 -7 20 -25z"/>
<path d="M3990 3760 c0 -33 4 -60 10 -60 6 0 10 19 10 43 l0 42 28 -42 c38
-60 52 -56 52 17 0 33 -4 60 -10 60 -5 0 -10 -21 -10 -47 l0 -48 -30 48 c-17
26 -35 47 -40 47 -6 0 -10 -27 -10 -60z"/>
<path d="M4190 3760 c0 -33 4 -60 10 -60 6 0 10 15 10 34 0 60 33 53 43 -9 3
-19 4 -13 3 15 -1 39 -4 45 -23 48 -13 2 -23 10 -23 18 0 8 -4 14 -10 14 -6 0
-10 -27 -10 -60z"/>
<path d="M4432 3760 c-12 -35 -16 -60 -10 -60 5 0 12 9 15 20 3 11 14 20 25
20 11 0 22 -9 25 -20 5 -18 23 -29 23 -13 0 24 -36 113 -46 113 -7 0 -21 -27
-32 -60z m36 -9 c-15 -5 -19 4 -11 24 6 18 7 18 13 -1 4 -10 3 -21 -2 -23z"/>
<path d="M4112 3778 c-16 -16 -15 -53 3 -68 16 -14 47 -10 52 6 2 7 -6 10 -22
7 -15 -3 -25 -1 -25 6 0 6 14 11 30 11 18 0 30 5 30 13 0 18 -21 37 -40 37 -9
0 -21 -5 -28 -12z m48 -18 c0 -5 -9 -10 -20 -10 -11 0 -20 5 -20 10 0 6 9 10
20 10 11 0 20 -4 20 -10z"/>
<path d="M4285 3780 c-11 -17 3 -25 19 -11 10 8 16 9 21 1 3 -5 -6 -15 -20
-20 -39 -15 -29 -45 16 -46 l35 -2 -5 42 c-5 35 -10 41 -33 44 -14 2 -29 -2
-33 -8z m43 -52 c-6 -18 -28 -21 -28 -4 0 9 7 16 16 16 9 0 14 -5 12 -12z"/>
<path d="M4520 3744 c0 -24 5 -44 10 -44 6 0 10 12 10 27 0 14 7 34 15 43 15
16 14 18 -10 18 -23 0 -25 -4 -25 -44z"/>
<path d="M4580 3776 c-28 -35 11 -93 48 -70 35 22 22 84 -18 84 -10 0 -23 -7
-30 -14z m50 -29 c0 -13 -3 -26 -6 -30 -12 -12 -34 6 -34 29 0 17 6 24 20 24
14 0 20 -7 20 -23z"/>
<path d="M4671 3740 c2 -34 3 -37 6 -15 3 17 12 38 20 47 14 15 13 17 -6 15
-18 -1 -21 -7 -20 -47z"/>
<path d="M4725 3780 c-11 -17 3 -25 19 -11 10 8 16 9 21 1 3 -5 -5 -14 -19
-20 -16 -6 -26 -17 -26 -29 0 -16 7 -20 38 -19 l38 0 -5 42 c-5 35 -10 41 -33
44 -14 2 -29 -2 -33 -8z m45 -49 c0 -14 -18 -23 -30 -16 -6 4 -8 11 -5 16 8
12 35 12 35 0z"/>
<path d="M4076 3448 c-36 -51 -6 -100 57 -96 33 3 37 6 37 31 0 23 -4 27 -27
26 -18 -1 -22 -3 -10 -6 26 -7 15 -27 -16 -31 -31 -4 -42 15 -33 53 7 27 42
35 64 13 6 -6 14 -9 17 -6 11 10 -26 38 -50 38 -13 0 -31 -10 -39 -22z"/>
<path d="M4560 3455 c-7 -8 -9 -19 -5 -23 4 -4 10 -1 12 6 6 16 43 16 43 -1 0
-7 -13 -23 -30 -35 -43 -32 -39 -52 11 -52 24 0 38 4 34 10 -3 6 -18 10 -33
10 l-26 0 34 29 c29 25 33 32 24 48 -14 24 -47 28 -64 8z"/>
<path d="M4644 3455 c-10 -24 4 -31 20 -9 14 18 15 18 22 0 4 -11 2 -21 -6
-26 -9 -6 -8 -10 6 -18 15 -9 16 -12 5 -26 -13 -15 -15 -15 -34 1 -19 17 -19
17 -16 -2 3 -15 12 -20 34 -20 30 0 30 1 30 55 0 53 -1 55 -28 58 -18 2 -29
-2 -33 -13z"/>
<path d="M4191 3390 c2 -34 3 -37 6 -15 3 17 12 38 20 47 14 15 13 17 -6 15
-18 -1 -21 -7 -20 -47z"/>
<path d="M4244 3426 c-3 -8 -4 -27 -2 -43 2 -23 8 -28 32 -28 33 0 48 27 35
63 -10 25 -56 31 -65 8z m56 -31 c0 -7 -6 -18 -14 -24 -20 -17 -39 16 -24 42
7 15 12 16 24 6 8 -6 14 -17 14 -24z"/>
<path d="M4332 3398 c3 -40 5 -43 36 -46 32 -3 32 -3 32 42 0 55 -17 62 -22 9
-4 -52 -28 -56 -28 -4 0 23 -5 41 -11 41 -6 0 -9 -17 -7 -42z"/>
<path d="M4421 3376 c1 -34 4 -52 6 -40 3 16 10 20 28 16 19 -3 27 1 34 19 14
38 -1 64 -38 65 l-31 1 1 -61z m59 19 c0 -7 -6 -18 -14 -24 -20 -17 -39 16
-24 42 7 15 12 16 24 6 8 -6 14 -17 14 -24z"/>
<path d="M5366 3798 c21 -68 32 -92 41 -95 6 -2 20 23 31 57 11 33 17 60 12
60 -5 0 -15 -18 -21 -40 -7 -22 -15 -40 -19 -40 -4 0 -12 18 -19 40 -6 22 -16
40 -22 40 -6 0 -7 -9 -3 -22z"/>
<path d="M5470 3809 c0 -5 5 -7 10 -4 6 3 10 8 10 11 0 2 -4 4 -10 4 -5 0 -10
-5 -10 -11z"/>
<path d="M5560 3800 c0 -13 -5 -18 -15 -14 -21 8 -45 -14 -45 -41 0 -29 18
-43 53 -43 26 0 27 2 27 59 0 33 -4 59 -10 59 -5 0 -10 -9 -10 -20z m-4 -45
c7 -18 -14 -47 -27 -39 -5 3 -9 16 -9 30 0 27 27 34 36 9z"/>
<path d="M5811 3802 c-12 -23 -3 -37 32 -48 15 -5 28 -13 30 -19 3 -15 -45
-19 -54 -4 -4 8 -11 10 -15 6 -13 -12 18 -37 47 -37 37 0 56 31 33 54 -8 9
-21 16 -27 16 -7 0 -19 5 -27 10 -13 9 -13 11 0 20 10 6 22 4 37 -6 20 -12 23
-12 23 0 0 29 -64 36 -79 8z"/>
<path d="M5470 3745 c0 -25 5 -45 10 -45 6 0 10 20 10 45 0 25 -4 45 -10 45
-5 0 -10 -20 -10 -45z"/>
<path d="M5594 3768 c17 -61 18 -80 5 -90 -11 -7 -10 -8 5 -6 17 3 26 19 50
96 4 12 3 22 -2 22 -5 0 -13 -15 -19 -32 l-10 -33 -7 33 c-4 17 -12 32 -18 32
-6 0 -8 -10 -4 -22z"/>
<path d="M5687 3784 c-14 -15 -6 -21 21 -16 18 3 24 1 17 -6 -5 -5 -19 -12
-30 -14 -12 -2 -20 -11 -20 -23 0 -16 7 -20 36 -21 l35 -2 -5 42 c-5 31 -11
42 -26 44 -12 2 -24 0 -28 -4z m33 -59 c-12 -15 -30 -12 -30 6 0 5 10 9 21 9
18 0 19 -2 9 -15z"/>
<path d="M5915 3780 c-11 -17 3 -25 19 -11 10 8 16 9 21 1 3 -5 -5 -14 -19
-20 -16 -6 -26 -17 -26 -29 0 -16 7 -20 38 -19 l38 0 -5 42 c-5 35 -10 41 -33
44 -14 2 -29 -2 -33 -8z m45 -49 c0 -14 -18 -23 -30 -16 -6 4 -8 11 -5 16 8
12 35 12 35 0z"/>
<path d="M6000 3764 c-6 -14 -7 -30 -4 -36 4 -6 7 -20 8 -32 1 -11 9 -22 19
-24 31 -6 47 17 47 69 0 48 -1 49 -30 49 -24 0 -33 -6 -40 -26z m50 -18 c0
-31 -14 -40 -30 -21 -15 18 -6 45 15 45 9 0 15 -9 15 -24z m-8 -58 c-9 -9 -15
-9 -24 0 -9 9 -7 12 12 12 19 0 21 -3 12 -12z"/>
<path d="M6097 3783 c-14 -14 -6 -20 19 -15 19 3 25 1 20 -7 -4 -6 -15 -11
-26 -11 -19 0 -34 -25 -25 -41 3 -4 22 -8 41 -7 26 1 33 5 29 15 -3 8 -5 28
-5 44 0 24 -4 29 -23 29 -13 0 -27 -3 -30 -7z m43 -52 c0 -12 -28 -22 -34 -12
-3 5 -3 11 1 15 9 9 33 7 33 -3z"/>
<path d="M6181 3740 c2 -34 3 -37 6 -15 3 17 12 38 20 47 14 15 13 17 -6 15
-18 -1 -21 -7 -20 -47z"/>
<path d="M5476 3448 c-36 -51 -6 -100 57 -96 33 3 37 6 37 31 0 23 -4 27 -27
26 -18 -1 -22 -3 -10 -6 26 -7 15 -27 -16 -31 -31 -4 -42 15 -33 53 7 27 42
35 64 13 6 -6 14 -9 17 -6 11 10 -26 38 -50 38 -13 0 -31 -10 -39 -22z"/>
<path d="M5960 3455 c-7 -8 -9 -19 -5 -23 4 -4 10 -1 12 6 6 16 43 16 43 -1 0
-7 -13 -23 -30 -35 -43 -32 -39 -52 11 -52 24 0 38 4 34 10 -3 6 -18 10 -33
10 l-26 0 34 29 c29 25 33 32 24 48 -14 24 -47 28 -64 8z"/>
<path d="M6068 3438 c-33 -43 -35 -58 -8 -58 11 0 20 -7 20 -15 0 -8 5 -15 10
-15 6 0 10 7 10 15 0 8 6 15 13 15 9 0 9 2 0 8 -6 4 -13 25 -15 46 l-3 40 -27
-36z m12 -33 c0 -8 -7 -15 -16 -15 -14 0 -14 3 -4 15 7 8 14 15 16 15 2 0 4
-7 4 -15z"/>
<path d="M5591 3390 c2 -34 3 -37 6 -15 3 17 12 38 20 47 14 15 13 17 -6 15
-18 -1 -21 -7 -20 -47z"/>
<path d="M5644 3426 c-3 -8 -4 -27 -2 -43 2 -23 8 -28 32 -28 33 0 48 27 35
63 -10 25 -56 31 -65 8z m56 -31 c0 -7 -6 -18 -14 -24 -20 -17 -39 16 -24 42
7 15 12 16 24 6 8 -6 14 -17 14 -24z"/>
<path d="M5732 3398 c3 -40 5 -43 36 -46 32 -3 32 -3 32 42 0 55 -17 62 -22 9
-4 -52 -28 -56 -28 -4 0 23 -5 41 -11 41 -6 0 -9 -17 -7 -42z"/>
<path d="M5821 3376 c1 -34 4 -52 6 -40 3 16 10 20 28 16 19 -3 27 1 34 19 14
38 -1 64 -38 65 l-31 1 1 -61z m59 19 c0 -7 -6 -18 -14 -24 -20 -17 -39 16
-24 42 7 15 12 16 24 6 8 -6 14 -17 14 -24z"/>
<path d="M290 3230 c0 -5 9 -10 20 -10 17 0 20 -7 20 -50 0 -27 5 -50 10 -50
6 0 10 23 10 50 0 43 3 50 20 50 11 0 20 5 20 10 0 6 -22 10 -50 10 -27 0 -50
-4 -50 -10z"/>
<path d="M730 3225 c0 -8 -8 -15 -19 -15 -26 0 -43 -24 -39 -57 3 -24 8 -28
41 -31 l37 -3 0 60 c0 34 -4 61 -10 61 -5 0 -10 -7 -10 -15z m-10 -60 c0 -26
-14 -33 -25 -15 -9 14 1 40 15 40 5 0 10 -11 10 -25z"/>
<path d="M390 3184 c0 -44 16 -62 55 -62 35 0 35 0 35 44 0 53 -27 64 -32 12
-4 -46 -28 -49 -28 -4 0 25 -4 36 -15 36 -9 0 -15 -10 -15 -26z"/>
<path d="M502 3198 c-7 -7 -12 -21 -12 -33 0 -42 45 -60 71 -28 13 15 11 16
-13 10 -15 -4 -30 -3 -33 3 -4 6 6 10 24 10 19 0 31 5 31 13 0 18 -21 37 -40
37 -9 0 -21 -5 -28 -12z"/>
<path d="M587 3204 c-14 -15 -6 -34 21 -49 l27 -16 -28 6 c-21 4 -28 2 -25 -7
6 -18 46 -22 64 -8 20 18 18 27 -13 45 -25 14 -25 15 -4 9 17 -4 22 -2 19 7
-5 15 -49 24 -61 13z"/>
<path d="M777 3204 c-14 -15 -6 -25 14 -19 15 5 19 4 15 -4 -4 -6 -13 -11 -21
-11 -18 0 -26 -14 -19 -33 4 -11 18 -16 43 -15 l37 0 -5 42 c-5 35 -10 41 -31
44 -14 2 -29 0 -33 -4z m33 -54 c0 -5 -4 -10 -10 -10 -5 0 -10 5 -10 10 0 6 5
10 10 10 6 0 10 -4 10 -10z"/>
<path d="M850 3206 c0 -2 7 -23 15 -46 11 -33 12 -46 4 -57 -14 -16 -6 -28 13
-20 14 5 53 115 44 124 -9 10 -26 -8 -27 -30 -1 -20 -2 -19 -12 6 -6 15 -17
27 -24 27 -7 0 -13 -2 -13 -4z"/>
<path d="M1210 3180 c0 -64 19 -85 21 -22 l1 37 12 -34 c17 -49 30 -48 46 1
l14 43 7 -45 c6 -43 6 -43 7 18 2 75 -14 80 -37 11 l-15 -44 -15 48 c-21 68
-41 62 -41 -13z"/>
<path d="M1942 3228 c-21 -21 -13 -37 23 -52 19 -8 35 -20 35 -25 0 -15 -43
-14 -58 1 -9 9 -12 8 -12 -4 0 -30 59 -38 81 -12 16 20 1 46 -31 54 -13 3 -25
10 -27 17 -6 17 25 24 41 8 17 -17 30 -7 15 12 -14 16 -51 17 -67 1z"/>
<path d="M2035 3230 c3 -5 8 -10 11 -10 2 0 4 5 4 10 0 6 -5 10 -11 10 -5 0
-7 -4 -4 -10z"/>
<path d="M2250 3180 c0 -66 17 -83 22 -22 4 46 22 45 26 -3 2 -19 8 -35 13
-35 6 0 9 19 7 43 -2 35 -7 43 -25 45 -13 2 -23 10 -23 18 0 8 -4 14 -10 14
-6 0 -10 -27 -10 -60z"/>
<path d="M1838 3219 c-7 -20 6 -92 17 -96 8 -2 11 41 6 100 -1 11 -19 8 -23
-4z"/>
<path d="M1345 3200 c-11 -17 3 -25 19 -11 10 8 16 9 21 1 3 -5 -6 -15 -20
-20 -39 -15 -29 -45 16 -46 l35 -2 -5 42 c-5 35 -10 41 -33 44 -14 2 -29 -2
-33 -8z m43 -52 c-6 -18 -28 -21 -28 -4 0 9 7 16 16 16 9 0 14 -5 12 -12z"/>
<path d="M1430 3166 c0 -55 17 -62 22 -8 2 20 8 37 13 37 6 0 11 -17 13 -37 2
-21 8 -38 13 -38 6 0 9 19 7 43 -3 39 -5 42 -35 45 -33 3 -33 3 -33 -42z"/>
<path d="M1521 3146 c1 -34 4 -52 6 -40 3 16 10 20 28 16 19 -3 27 1 34 19 14
38 -1 64 -38 65 l-31 1 1 -61z m59 19 c0 -7 -6 -18 -14 -24 -20 -17 -39 16
-24 42 7 15 12 16 24 6 8 -6 14 -17 14 -24z"/>
<path d="M1611 3160 c2 -34 3 -37 6 -15 3 17 12 38 20 47 14 15 13 17 -6 15
-18 -1 -21 -7 -20 -47z"/>
<path d="M1672 3198 c-16 -16 -15 -53 3 -68 17 -14 47 -10 53 8 3 11 0 12 -16
3 -19 -10 -32 -6 -32 11 0 4 15 8 34 8 25 0 35 -5 39 -20 6 -22 51 -28 62 -9
10 16 -3 23 -18 10 -11 -9 -17 -8 -27 4 -11 13 -8 15 19 15 28 0 32 3 29 23
-4 31 -57 38 -65 8 -7 -27 -19 -27 -26 -1 -6 22 -36 27 -55 8z m34 -26 c-22
-5 -30 3 -21 18 5 8 11 7 22 -2 15 -12 14 -13 -1 -16z m94 7 c0 -5 -10 -9 -21
-9 -18 0 -19 2 -9 15 12 15 30 12 30 -6z"/>
<path d="M2030 3165 c0 -25 5 -45 10 -45 6 0 10 20 10 45 0 25 -4 45 -10 45
-5 0 -10 -20 -10 -45z"/>
<path d="M2070 3166 c0 -55 17 -62 22 -8 2 20 8 37 13 37 6 0 11 -17 13 -37 2
-21 8 -38 13 -38 6 0 9 19 7 43 -3 39 -5 42 -35 45 -33 3 -33 3 -33 -42z"/>
<path d="M2160 3184 c-6 -14 -7 -30 -4 -36 4 -6 7 -20 8 -32 1 -11 9 -22 19
-24 31 -6 47 17 47 69 0 48 -1 49 -30 49 -24 0 -33 -6 -40 -26z m50 -18 c0
-31 -14 -40 -30 -21 -15 18 -6 45 15 45 9 0 15 -9 15 -24z m-8 -58 c-9 -9 -15
-9 -24 0 -9 9 -7 12 12 12 19 0 21 -3 12 -12z"/>
<path d="M1458 2879 c-12 -7 -18 -22 -18 -49 0 -46 22 -63 73 -57 26 3 33 8
35 30 3 25 1 27 -30 26 -24 -1 -27 -3 -10 -6 30 -6 23 -27 -11 -31 -33 -4 -53
28 -37 58 12 22 56 27 63 8 2 -7 8 -10 12 -6 12 12 -15 38 -39 38 -11 0 -29
-5 -38 -11z"/>
<path d="M1937 2883 c-4 -3 -7 -13 -7 -21 0 -13 3 -13 18 1 19 18 32 14 32
-10 0 -7 -8 -13 -17 -13 -17 -1 -17 -1 0 -11 18 -11 23 -34 8 -44 -5 -3 -17 2
-26 12 -16 16 -17 15 -13 -3 2 -14 12 -19 33 -19 28 0 30 3 32 40 2 58 -5 75
-31 75 -12 0 -26 -3 -29 -7z"/>
<path d="M2020 2856 c0 -30 2 -33 25 -28 21 4 25 0 25 -18 0 -20 -4 -22 -31
-16 -27 5 -30 4 -19 -9 16 -19 44 -19 60 0 17 20 9 48 -18 60 -27 12 -29 25
-3 25 11 0 23 5 26 10 4 6 -8 10 -29 10 -34 0 -36 -2 -36 -34z"/>
<path d="M1560 2815 c0 -25 5 -45 10 -45 6 0 10 14 10 31 0 19 7 37 18 45 15
12 14 13 -10 14 -26 0 -28 -2 -28 -45z"/>
<path d="M1620 2846 c-28 -35 11 -93 48 -70 35 22 22 84 -18 84 -10 0 -23 -7
-30 -14z m50 -29 c0 -13 -3 -26 -6 -30 -12 -12 -34 6 -34 29 0 17 6 24 20 24
14 0 20 -7 20 -23z"/>
<path d="M1700 2828 c0 -45 11 -59 43 -56 25 2 27 5 26 48 -2 34 -3 38 -6 15
-9 -62 -43 -69 -43 -9 0 19 -4 34 -10 34 -5 0 -10 -15 -10 -32z"/>
<path d="M1790 2800 c0 -33 4 -60 10 -60 6 0 10 7 10 15 0 8 8 15 18 15 24 0
42 19 42 45 0 29 -19 45 -52 45 -28 0 -28 -1 -28 -60z m60 15 c0 -18 -5 -25
-20 -25 -15 0 -20 7 -20 25 0 18 5 25 20 25 15 0 20 -7 20 -25z"/>
<path d="M2542 3228 c-21 -21 -13 -37 23 -52 19 -8 35 -20 35 -25 0 -15 -43
-14 -58 1 -9 9 -12 8 -12 -4 0 -30 59 -38 81 -12 16 20 1 46 -31 54 -13 3 -25
10 -27 17 -6 17 25 24 41 8 17 -17 30 -7 15 12 -14 16 -51 17 -67 1z"/>
<path d="M2870 3222 c0 -13 -8 -18 -27 -17 -26 0 -28 -3 -28 -40 0 -38 1 -40
33 -41 l32 -1 0 59 c0 32 -2 58 -5 58 -3 0 -5 -8 -5 -18z m-6 -70 c-13 -20
-25 -20 -38 1 -7 10 -5 21 4 32 12 15 15 15 29 0 12 -12 13 -19 5 -33z"/>
<path d="M3210 3180 c0 -64 19 -85 21 -22 l1 37 12 -34 c17 -49 30 -48 46 1
l14 43 7 -45 c6 -43 6 -43 7 18 2 75 -14 80 -37 11 l-15 -44 -15 48 c-21 68
-41 62 -41 -13z"/>
<path d="M3430 3180 c0 -33 4 -60 10 -60 6 0 10 27 10 60 0 33 -4 60 -10 60
-6 0 -10 -27 -10 -60z"/>
<path d="M3500 3180 c0 -33 4 -60 10 -60 6 0 10 10 10 23 l1 22 20 -24 c24
-29 37 -21 15 10 -11 17 -13 26 -4 36 6 7 8 17 4 21 -4 4 -14 -2 -22 -12 -13
-19 -14 -18 -14 12 0 18 -4 32 -10 32 -6 0 -10 -27 -10 -60z"/>
<path d="M2647 3204 c-14 -15 -6 -21 21 -16 18 3 24 1 17 -6 -5 -5 -19 -12
-30 -14 -12 -2 -20 -11 -20 -23 0 -16 7 -20 36 -21 l35 -2 -5 42 c-5 31 -11
42 -26 44 -12 2 -24 0 -28 -4z m33 -59 c-12 -15 -30 -12 -30 6 0 5 10 9 21 9
18 0 19 -2 9 -15z"/>
<path d="M2720 3163 c0 -23 5 -43 10 -43 6 0 10 16 10 35 0 19 5 35 10 35 6 0
13 0 18 0 4 1 10 -16 13 -37 l6 -38 2 47 1 47 -35 -1 c-34 -1 -35 -2 -35 -45z"/>
<path d="M2912 3198 c-16 -16 -15 -53 3 -68 17 -14 47 -10 53 8 3 11 0 12 -16
3 -19 -10 -32 -6 -32 11 0 4 15 8 34 8 25 0 35 -5 39 -20 6 -22 51 -28 62 -9
10 16 -3 23 -18 10 -11 -9 -17 -8 -27 4 -11 13 -8 15 19 15 28 0 32 3 29 23
-4 31 -57 38 -65 8 -7 -27 -19 -27 -26 -1 -6 22 -36 27 -55 8z m34 -26 c-22
-5 -30 3 -21 18 5 8 11 7 22 -2 15 -12 14 -13 -1 -16z m94 7 c0 -5 -10 -9 -21
-9 -18 0 -19 2 -9 15 12 15 30 12 30 -6z"/>
<path d="M3081 3146 c1 -34 4 -52 6 -40 3 16 10 20 28 16 19 -3 27 1 34 19 14
38 -1 64 -38 65 l-31 1 1 -61z m59 19 c0 -7 -6 -18 -14 -24 -20 -17 -39 16
-24 42 7 15 12 16 24 6 8 -6 14 -17 14 -24z"/>
<path d="M3345 3200 c-11 -17 3 -25 19 -11 10 8 16 9 21 1 3 -5 -6 -15 -20
-20 -39 -15 -29 -45 16 -46 l35 -2 -5 42 c-5 35 -10 41 -33 44 -14 2 -29 -2
-33 -8z m43 -52 c-6 -18 -28 -21 -28 -4 0 9 7 16 16 16 9 0 14 -5 12 -12z"/>
<path d="M3473 3165 c0 -27 2 -38 4 -22 2 15 2 37 0 50 -2 12 -4 0 -4 -28z"/>
<path d="M2738 2879 c-12 -7 -18 -22 -18 -49 0 -46 22 -63 73 -57 26 3 33 8
35 30 3 25 1 27 -30 26 -24 -1 -27 -3 -10 -6 30 -6 23 -27 -11 -31 -33 -4 -53
28 -37 58 12 22 56 27 63 8 2 -7 8 -10 12 -6 12 12 -15 38 -39 38 -11 0 -29
-5 -38 -11z"/>
<path d="M3217 2883 c-4 -3 -7 -13 -7 -21 0 -13 3 -13 18 1 19 18 32 14 32
-10 0 -7 -8 -13 -17 -13 -17 -1 -17 -1 0 -11 18 -11 23 -34 8 -44 -5 -3 -17 2
-26 12 -16 16 -17 15 -13 -3 2 -14 12 -19 33 -19 28 0 30 3 32 40 2 58 -5 75
-31 75 -12 0 -26 -3 -29 -7z"/>
<path d="M3313 2883 c-18 -7 -27 -67 -13 -93 13 -24 47 -24 63 1 15 24 1 49
-28 49 -28 0 -32 12 -11 29 10 8 16 9 21 1 3 -5 11 -10 17 -10 7 0 6 6 -2 15
-13 15 -25 17 -47 8z m34 -69 c8 -20 -8 -36 -26 -25 -15 10 -8 41 9 41 6 0 13
-7 17 -16z"/>
<path d="M2840 2815 c0 -25 5 -45 10 -45 6 0 10 14 10 31 0 19 7 37 18 45 15
12 14 13 -10 14 -26 0 -28 -2 -28 -45z"/>
<path d="M2900 2846 c-28 -35 11 -93 48 -70 35 22 22 84 -18 84 -10 0 -23 -7
-30 -14z m50 -29 c0 -13 -3 -26 -6 -30 -12 -12 -34 6 -34 29 0 17 6 24 20 24
14 0 20 -7 20 -23z"/>
<path d="M2980 2828 c0 -45 11 -59 43 -56 25 2 27 5 26 48 -2 34 -3 38 -6 15
-9 -62 -43 -69 -43 -9 0 19 -4 34 -10 34 -5 0 -10 -15 -10 -32z"/>
<path d="M3070 2800 c0 -33 4 -60 10 -60 6 0 10 7 10 15 0 8 8 15 18 15 24 0
42 19 42 45 0 29 -19 45 -52 45 -28 0 -28 -1 -28 -60z m60 15 c0 -18 -5 -25
-20 -25 -15 0 -20 7 -20 25 0 18 5 25 20 25 15 0 20 -7 20 -25z"/>
<path d="M3842 3178 c1 -60 1 -61 7 -18 l6 45 13 -43 c15 -50 30 -50 48 -1
l12 34 1 -37 c2 -63 21 -42 21 22 0 75 -21 82 -40 14 -14 -50 -22 -48 -40 9
-18 56 -30 45 -28 -25z"/>
<path d="M4561 3222 c-12 -23 -3 -37 32 -48 15 -5 28 -13 30 -19 3 -15 -45
-19 -54 -4 -4 8 -11 10 -15 6 -13 -12 18 -37 47 -37 37 0 56 31 33 54 -8 9
-21 16 -27 16 -7 0 -19 5 -27 10 -13 9 -13 11 0 20 10 6 22 4 37 -6 20 -12 23
-12 23 0 0 29 -64 36 -79 8z"/>
<path d="M4660 3229 c0 -5 5 -7 10 -4 6 3 10 8 10 11 0 2 -4 4 -10 4 -5 0 -10
-5 -10 -11z"/>
<path d="M4870 3180 c0 -33 4 -60 10 -60 6 0 10 16 10 35 0 19 5 35 10 35 6 0
13 0 18 0 4 1 10 -16 13 -37 6 -37 6 -37 8 11 1 46 0 48 -24 44 -19 -4 -25 -1
-25 13 0 11 -4 19 -10 19 -6 0 -10 -27 -10 -60z"/>
<path d="M4468 3220 c-2 -6 -2 -31 0 -55 3 -33 8 -45 20 -45 12 0 13 3 4 12
-14 14 -16 65 -3 70 5 2 3 8 -4 15 -8 8 -15 8 -17 3z"/>
<path d="M3977 3203 c-14 -14 -6 -20 19 -15 19 3 25 1 20 -7 -4 -6 -15 -11
-26 -11 -19 0 -34 -25 -25 -41 3 -4 22 -8 41 -7 26 1 33 5 29 15 -3 8 -5 28
-5 44 0 24 -4 29 -23 29 -13 0 -27 -3 -30 -7z m43 -52 c0 -12 -28 -22 -34 -12
-3 5 -3 11 1 15 9 9 33 7 33 -3z"/>
<path d="M4050 3163 c0 -23 5 -43 10 -43 6 0 10 16 10 35 0 19 5 35 10 35 6 0
13 0 18 0 4 1 10 -16 13 -37 l6 -38 2 47 1 47 -35 -1 c-34 -1 -35 -2 -35 -45z"/>
<path d="M4140 3150 c0 -33 4 -60 10 -60 6 0 10 7 10 15 0 8 8 15 18 15 24 0
42 19 42 45 0 29 -19 45 -52 45 -28 0 -28 -1 -28 -60z m60 15 c0 -18 -5 -25
-20 -25 -15 0 -20 7 -20 25 0 18 5 25 20 25 15 0 20 -7 20 -25z"/>
<path d="M4230 3165 c0 -25 5 -45 10 -45 6 0 10 14 10 31 0 19 7 37 18 45 15
12 14 13 -10 14 -26 0 -28 -2 -28 -45z"/>
<path d="M4289 3189 c-24 -46 29 -93 61 -54 8 9 9 15 2 15 -6 0 -13 -4 -17
-10 -7 -11 -35 -2 -35 11 0 5 14 9 30 9 31 0 39 17 18 38 -19 19 -46 14 -59
-9z m51 -10 c0 -5 -9 -9 -20 -9 -22 0 -27 16 -7 23 15 5 27 -1 27 -14z"/>
<path d="M4382 3198 c-16 -16 -15 -53 3 -68 16 -14 47 -10 52 6 2 7 -6 10 -22
7 -15 -3 -25 -1 -25 6 0 6 14 11 30 11 18 0 30 5 30 13 0 18 -21 37 -40 37 -9
0 -21 -5 -28 -12z m48 -18 c0 -5 -9 -10 -20 -10 -11 0 -20 5 -20 10 0 6 9 10
20 10 11 0 20 -4 20 -10z"/>
<path d="M4660 3165 c0 -25 5 -45 10 -45 6 0 10 20 10 45 0 25 -4 45 -10 45
-5 0 -10 -20 -10 -45z"/>
<path d="M4690 3163 c0 -23 5 -43 10 -43 6 0 10 16 10 35 0 19 5 35 10 35 6 0
13 0 18 0 4 1 10 -16 13 -37 l6 -38 2 47 1 47 -35 -1 c-34 -1 -35 -2 -35 -45z"/>
<path d="M4792 3198 c-15 -15 -16 -55 -2 -63 8 -5 7 -11 -1 -21 -13 -16 7 -28
38 -22 14 2 19 14 21 58 3 52 1 56 -21 58 -13 1 -29 -4 -35 -10z m42 -46 c-20
-31 -44 -3 -29 35 5 15 7 15 23 0 13 -14 14 -21 6 -35z m0 -37 c-7 -17 -20
-20 -29 -6 -3 5 3 12 12 14 10 3 19 5 20 6 1 0 0 -6 -3 -14z"/>
<path d="M4076 2868 c-36 -51 -6 -100 57 -96 33 3 37 6 37 31 0 23 -4 27 -27
26 -18 -1 -22 -3 -10 -6 26 -7 15 -27 -16 -31 -31 -4 -42 15 -33 53 7 27 42
35 64 13 6 -6 14 -9 17 -6 11 10 -26 38 -50 38 -13 0 -31 -10 -39 -22z"/>
<path d="M4560 2875 c-7 -8 -9 -19 -5 -23 4 -4 10 -1 12 6 6 16 43 16 43 -1 0
-7 -13 -23 -30 -35 -43 -32 -39 -52 11 -52 24 0 38 4 34 10 -3 6 -18 10 -33
10 l-26 0 34 29 c29 25 33 32 24 48 -14 24 -47 28 -64 8z"/>
<path d="M4646 2874 c-12 -31 -7 -47 14 -41 27 7 47 -18 30 -38 -10 -12 -16
-13 -27 -4 -15 13 -28 6 -18 -10 11 -18 54 -12 65 9 14 26 -3 60 -30 60 -11 0
-20 5 -20 10 0 6 11 10 25 10 14 0 25 5 25 10 0 17 -57 12 -64 -6z"/>
<path d="M4191 2810 c2 -34 3 -37 6 -15 3 17 12 38 20 47 14 15 13 17 -6 15
-18 -1 -21 -7 -20 -47z"/>
<path d="M4244 2846 c-3 -8 -4 -27 -2 -43 2 -23 8 -28 32 -28 33 0 48 27 35
63 -10 25 -56 31 -65 8z m56 -31 c0 -7 -6 -18 -14 -24 -20 -17 -39 16 -24 42
7 15 12 16 24 6 8 -6 14 -17 14 -24z"/>
<path d="M4332 2818 c3 -40 5 -43 36 -46 32 -3 32 -3 32 42 0 55 -17 62 -22 9
-4 -52 -28 -56 -28 -4 0 23 -5 41 -11 41 -6 0 -9 -17 -7 -42z"/>
<path d="M4421 2796 c1 -34 4 -52 6 -40 3 16 10 20 28 16 19 -3 27 1 34 19 14
38 -1 64 -38 65 l-31 1 1 -61z m59 19 c0 -7 -6 -18 -14 -24 -20 -17 -39 16
-24 42 7 15 12 16 24 6 8 -6 14 -17 14 -24z"/>
<path d="M5281 3222 c-12 -23 -3 -37 32 -48 15 -5 28 -13 30 -19 3 -15 -45
-19 -54 -4 -4 8 -11 10 -15 6 -13 -12 18 -37 47 -37 37 0 56 31 33 54 -8 9
-21 16 -27 16 -7 0 -19 5 -27 10 -13 9 -13 11 0 20 10 6 22 4 37 -6 20 -12 23
-12 23 0 0 29 -64 36 -79 8z"/>
<path d="M5610 3225 c0 -8 -8 -15 -18 -15 -24 0 -42 -19 -42 -45 0 -29 19 -45
52 -45 28 0 28 1 28 60 0 33 -4 60 -10 60 -5 0 -10 -7 -10 -15z m0 -60 c0 -18
-5 -25 -20 -25 -15 0 -20 7 -20 25 0 18 5 25 20 25 15 0 20 -7 20 -25z"/>
<path d="M5962 3178 c1 -60 1 -61 7 -18 l6 45 13 -43 c15 -50 30 -50 48 -1
l12 34 1 -37 c2 -63 21 -42 21 22 0 75 -21 82 -40 14 -14 -50 -22 -48 -40 9
-18 56 -30 45 -28 -25z"/>
<path d="M6170 3180 c0 -33 4 -60 10 -60 6 0 10 27 10 60 0 33 -4 60 -10 60
-6 0 -10 -27 -10 -60z"/>
<path d="M6210 3230 c0 -5 5 -10 10 -10 6 0 10 5 10 10 0 6 -4 10 -10 10 -5 0
-10 -4 -10 -10z"/>
<path d="M6240 3180 c0 -33 4 -60 10 -60 6 0 10 9 10 20 0 11 3 20 8 20 4 0
13 -9 20 -20 20 -32 35 -23 16 9 -15 25 -15 32 -5 45 18 21 2 20 -21 -1 -17
-15 -18 -14 -18 15 0 18 -4 32 -10 32 -6 0 -10 -27 -10 -60z"/>
<path d="M5385 3200 c-11 -17 3 -25 19 -11 10 8 16 9 21 1 3 -5 -5 -14 -19
-20 -16 -6 -26 -17 -26 -29 0 -16 7 -20 38 -19 l38 0 -5 42 c-5 35 -10 41 -33
44 -14 2 -29 -2 -33 -8z m45 -49 c0 -14 -18 -23 -30 -16 -6 4 -8 11 -5 16 8
12 35 12 35 0z"/>
<path d="M5470 3166 c0 -55 17 -62 22 -8 2 20 8 37 13 37 6 0 11 -17 13 -37 2
-21 8 -38 13 -38 6 0 9 19 7 43 -3 39 -5 42 -35 45 -33 3 -33 3 -33 -42z"/>
<path d="M5649 3189 c-24 -46 29 -93 61 -54 8 9 9 15 2 15 -6 0 -13 -4 -17
-10 -7 -11 -35 -2 -35 11 0 5 14 9 30 9 31 0 39 17 18 38 -19 19 -46 14 -59
-9z m51 -10 c0 -5 -9 -9 -20 -9 -22 0 -27 16 -7 23 15 5 27 -1 27 -14z"/>
<path d="M5742 3198 c-16 -16 -15 -53 3 -68 16 -14 47 -10 52 6 2 7 -6 10 -22
7 -15 -3 -25 -1 -25 6 0 6 14 11 30 11 18 0 30 5 30 13 0 18 -21 37 -40 37 -9
0 -21 -5 -28 -12z m48 -18 c0 -5 -9 -10 -20 -10 -11 0 -20 5 -20 10 0 6 9 10
20 10 11 0 20 -4 20 -10z"/>
<path d="M5820 3150 c0 -33 4 -60 10 -60 6 0 10 7 10 15 0 8 8 15 18 15 24 0
42 19 42 45 0 29 -19 45 -52 45 -28 0 -28 -1 -28 -60z m60 15 c0 -18 -5 -25
-20 -25 -15 0 -20 7 -20 25 0 18 5 25 20 25 15 0 20 -7 20 -25z"/>
<path d="M6097 3203 c-14 -14 -6 -20 19 -15 19 3 25 1 20 -7 -4 -6 -15 -11
-26 -11 -19 0 -34 -25 -25 -41 3 -4 22 -8 41 -7 26 1 33 5 29 15 -3 8 -5 28
-5 44 0 24 -4 29 -23 29 -13 0 -27 -3 -30 -7z m43 -52 c0 -12 -28 -22 -34 -12
-3 5 -3 11 1 15 9 9 33 7 33 -3z"/>
<path d="M6210 3165 c0 -25 5 -45 10 -45 6 0 10 20 10 45 0 25 -4 45 -10 45
-5 0 -10 -20 -10 -45z"/>
<path d="M5476 2868 c-36 -51 -6 -100 57 -96 33 3 37 6 37 31 0 23 -4 27 -27
26 -18 -1 -22 -3 -10 -6 26 -7 15 -27 -16 -31 -31 -4 -42 15 -33 53 7 27 42
35 64 13 6 -6 14 -9 17 -6 11 10 -26 38 -50 38 -13 0 -31 -10 -39 -22z"/>
<path d="M5960 2875 c-7 -8 -9 -19 -5 -23 4 -4 10 -1 12 6 6 16 43 16 43 -1 0
-7 -13 -23 -30 -35 -43 -32 -39 -52 11 -52 24 0 38 4 34 10 -3 6 -18 10 -33
10 l-26 0 34 29 c29 25 33 32 24 48 -14 24 -47 28 -64 8z"/>
<path d="M6052 2878 c-15 -15 -16 -80 0 -96 17 -17 45 -15 57 5 12 23 -4 53
-29 53 -12 0 -20 7 -20 16 0 12 6 15 26 10 19 -5 25 -3 22 6 -6 18 -40 22 -56
6z m45 -64 c7 -18 -17 -38 -31 -24 -11 11 -1 40 14 40 6 0 13 -7 17 -16z"/>
<path d="M5591 2810 c2 -34 3 -37 6 -15 3 17 12 38 20 47 14 15 13 17 -6 15
-18 -1 -21 -7 -20 -47z"/>
<path d="M5644 2846 c-3 -8 -4 -27 -2 -43 2 -23 8 -28 32 -28 33 0 48 27 35
63 -10 25 -56 31 -65 8z m56 -31 c0 -7 -6 -18 -14 -24 -20 -17 -39 16 -24 42
7 15 12 16 24 6 8 -6 14 -17 14 -24z"/>
<path d="M5732 2818 c3 -40 5 -43 36 -46 32 -3 32 -3 32 42 0 55 -17 62 -22 9
-4 -52 -28 -56 -28 -4 0 23 -5 41 -11 41 -6 0 -9 -17 -7 -42z"/>
<path d="M5821 2796 c1 -34 4 -52 6 -40 3 16 10 20 28 16 19 -3 27 1 34 19 14
38 -1 64 -38 65 l-31 1 1 -61z m59 19 c0 -7 -6 -18 -14 -24 -20 -17 -39 16
-24 42 7 15 12 16 24 6 8 -6 14 -17 14 -24z"/>
<path d="M174 2644 c4 -9 11 -36 17 -60 14 -56 35 -57 47 -1 l9 42 7 -42 c5
-26 13 -43 21 -43 8 0 19 18 25 43 6 23 13 50 16 60 3 10 0 17 -9 17 -9 0 -18
-15 -22 -37 l-8 -38 -10 38 c-5 20 -15 37 -23 37 -7 0 -16 -16 -20 -37 l-8
-38 -9 38 c-5 22 -15 37 -24 37 -10 0 -13 -6 -9 -16z"/>
<path d="M470 2645 c0 -8 -9 -15 -19 -15 -11 0 -26 -9 -34 -20 l-14 -21 -6 21
c-8 29 -54 27 -68 -4 -16 -35 4 -68 38 -64 15 2 28 9 31 16 3 9 -3 11 -22 6
-16 -4 -26 -2 -26 5 0 19 54 12 68 -9 8 -14 23 -20 47 -20 l35 0 0 60 c0 47
-3 60 -15 60 -8 0 -15 -7 -15 -15z m-5 -60 c0 -10 -6 -20 -12 -22 -8 -3 -13 5
-13 22 0 17 5 25 13 23 6 -3 12 -13 12 -23z"/>
<path d="M850 2645 c0 -8 -8 -15 -19 -15 -26 0 -43 -24 -39 -57 3 -24 8 -28
41 -31 l37 -3 0 60 c0 34 -4 61 -10 61 -5 0 -10 -7 -10 -15z m-10 -60 c0 -26
-14 -33 -25 -15 -9 14 1 40 15 40 5 0 10 -11 10 -25z"/>
<path d="M520 2583 c0 -50 17 -59 22 -11 4 46 28 49 28 4 0 -25 4 -36 15 -36
10 0 15 10 15 33 0 44 -10 56 -48 55 -31 -1 -32 -2 -32 -45z"/>
<path d="M622 2618 c-7 -7 -12 -21 -12 -33 0 -42 45 -60 71 -28 13 15 11 16
-13 10 -15 -4 -30 -3 -33 3 -4 6 6 10 24 10 19 0 31 5 31 13 0 18 -21 37 -40
37 -9 0 -21 -5 -28 -12z"/>
<path d="M707 2624 c-14 -15 -6 -34 21 -49 l27 -16 -28 6 c-21 4 -28 2 -25 -7
6 -18 46 -22 64 -8 20 18 18 27 -13 45 -25 14 -25 15 -4 9 17 -4 22 -2 19 7
-5 15 -49 24 -61 13z"/>
<path d="M897 2624 c-14 -15 -6 -25 14 -19 15 5 19 4 15 -4 -4 -6 -13 -11 -21
-11 -18 0 -26 -14 -19 -33 4 -11 18 -16 43 -15 l37 0 -5 42 c-5 35 -10 41 -31
44 -14 2 -29 0 -33 -4z m33 -54 c0 -5 -4 -10 -10 -10 -5 0 -10 5 -10 10 0 6 5
10 10 10 6 0 10 -4 10 -10z"/>
<path d="M970 2626 c0 -2 7 -23 15 -46 11 -33 12 -46 4 -57 -14 -16 -6 -28 13
-20 14 5 53 115 44 124 -9 10 -26 -8 -27 -30 -1 -20 -2 -19 -12 6 -6 15 -17
27 -24 27 -7 0 -13 -2 -13 -4z"/>
<path d="M1410 2600 c0 -33 4 -60 10 -60 6 0 10 11 10 25 0 20 5 25 25 25 18
0 26 -7 31 -25 3 -14 10 -25 14 -25 5 0 5 13 0 29 -4 15 -4 34 0 42 16 25 -8
49 -50 49 l-40 0 0 -60z m75 31 c6 -10 -25 -31 -44 -31 -6 0 -11 9 -11 20 0
15 7 20 24 20 14 0 27 -4 31 -9z"/>
<path d="M1930 2600 l0 -60 80 2 c65 1 80 4 75 16 -3 7 -5 27 -5 43 0 27 -3
30 -27 27 -14 -2 -28 -8 -30 -14 -2 -7 6 -10 23 -6 19 3 25 1 20 -7 -4 -6 -16
-11 -26 -11 -10 0 -22 -9 -25 -20 -4 -14 -15 -20 -36 -20 -29 0 -29 1 -29 55
0 30 -4 55 -10 55 -6 0 -10 -27 -10 -60z m140 -29 c0 -12 -28 -22 -34 -12 -3
5 -3 11 1 15 9 9 33 7 33 -3z"/>
<path d="M2113 2600 c0 -36 2 -50 4 -32 2 17 2 47 0 65 -2 17 -4 3 -4 -33z"/>
<path d="M1608 2639 c-2 -7 -1 -30 2 -52 7 -54 27 -60 22 -7 -3 32 -1 40 12
40 12 0 16 -10 16 -40 0 -25 5 -40 13 -40 8 0 12 16 10 51 -1 50 -11 76 -20
52 -5 -15 -33 -17 -33 -3 0 14 -17 13 -22 -1z"/>
<path d="M1537 2624 c-14 -15 -6 -21 21 -16 18 3 24 1 17 -6 -5 -5 -19 -12
-30 -14 -12 -2 -20 -11 -20 -23 0 -16 7 -20 36 -21 l35 -2 -5 42 c-5 31 -11
42 -26 44 -12 2 -24 0 -28 -4z m33 -59 c-12 -15 -30 -12 -30 6 0 5 10 9 21 9
18 0 19 -2 9 -15z"/>
<path d="M1705 2620 c-11 -17 3 -25 19 -11 10 8 16 9 21 1 3 -5 -6 -15 -20
-20 -39 -15 -29 -45 16 -46 l35 -2 -5 42 c-5 35 -10 41 -33 44 -14 2 -29 -2
-33 -8z m43 -52 c-6 -18 -28 -21 -28 -4 0 9 7 16 16 16 9 0 14 -5 12 -12z"/>
<path d="M1790 2586 c0 -55 17 -62 22 -8 2 20 8 37 13 37 6 0 11 -17 13 -37 2
-21 8 -38 13 -38 6 0 9 19 7 43 -3 39 -5 42 -35 45 -33 3 -33 3 -33 -42z"/>
<path d="M1458 2299 c-12 -7 -18 -22 -18 -49 0 -46 22 -63 73 -57 26 3 33 8
35 30 3 25 1 27 -30 26 -24 -1 -27 -3 -10 -6 30 -6 23 -27 -11 -31 -33 -4 -53
28 -37 58 12 22 56 27 63 8 2 -7 8 -10 12 -6 12 12 -15 38 -39 38 -11 0 -29
-5 -38 -11z"/>
<path d="M1937 2303 c-4 -3 -7 -13 -7 -21 0 -13 3 -13 18 1 19 18 32 14 32
-10 0 -7 -8 -13 -17 -13 -17 -1 -17 -1 0 -11 18 -11 23 -34 8 -44 -5 -3 -17 2
-26 12 -16 16 -17 15 -13 -3 2 -14 12 -19 33 -19 28 0 30 3 32 40 2 58 -5 75
-31 75 -12 0 -26 -3 -29 -7z"/>
<path d="M2015 2300 c3 -5 17 -10 31 -10 l24 0 -20 -40 c-21 -41 -25 -60 -12
-60 4 0 16 24 27 53 11 28 21 55 23 60 2 4 -15 7 -38 7 -25 0 -39 -4 -35 -10z"/>
<path d="M1560 2235 c0 -25 5 -45 10 -45 6 0 10 14 10 31 0 19 7 37 18 45 15
12 14 13 -10 14 -26 0 -28 -2 -28 -45z"/>
<path d="M1620 2266 c-28 -35 11 -93 48 -70 35 22 22 84 -18 84 -10 0 -23 -7
-30 -14z m50 -29 c0 -13 -3 -26 -6 -30 -12 -12 -34 6 -34 29 0 17 6 24 20 24
14 0 20 -7 20 -23z"/>
<path d="M1700 2248 c0 -45 11 -59 43 -56 25 2 27 5 26 48 -2 34 -3 38 -6 15
-9 -62 -43 -69 -43 -9 0 19 -4 34 -10 34 -5 0 -10 -15 -10 -32z"/>
<path d="M1790 2220 c0 -33 4 -60 10 -60 6 0 10 7 10 15 0 8 8 15 18 15 24 0
42 19 42 45 0 29 -19 45 -52 45 -28 0 -28 -1 -28 -60z m60 15 c0 -18 -5 -25
-20 -25 -15 0 -20 7 -20 25 0 18 5 25 20 25 15 0 20 -7 20 -25z"/>
<path d="M2690 2600 c0 -33 4 -60 10 -60 6 0 10 11 10 25 0 20 5 25 25 25 18
0 26 -7 31 -25 3 -14 10 -25 14 -25 5 0 5 13 0 29 -4 15 -4 34 0 42 16 25 -8
49 -50 49 l-40 0 0 -60z m75 31 c6 -10 -25 -31 -44 -31 -6 0 -11 9 -11 20 0
15 7 20 24 20 14 0 27 -4 31 -9z"/>
<path d="M3210 2600 l0 -60 80 2 c65 1 80 4 75 16 -3 7 -5 27 -5 43 0 27 -3
30 -27 27 -14 -2 -28 -8 -30 -14 -2 -7 6 -10 23 -6 19 3 25 1 20 -7 -4 -6 -16
-11 -26 -11 -10 0 -22 -9 -25 -20 -4 -14 -15 -20 -36 -20 -29 0 -29 1 -29 55
0 30 -4 55 -10 55 -6 0 -10 -27 -10 -60z m140 -29 c0 -12 -28 -22 -34 -12 -3
5 -3 11 1 15 9 9 33 7 33 -3z"/>
<path d="M3393 2600 c0 -36 2 -50 4 -32 2 17 2 47 0 65 -2 17 -4 3 -4 -33z"/>
<path d="M2888 2639 c-2 -7 -1 -30 2 -52 7 -54 27 -60 22 -7 -3 32 -1 40 12
40 12 0 16 -10 16 -40 0 -25 5 -40 13 -40 8 0 12 16 10 51 -1 50 -11 76 -20
52 -5 -15 -33 -17 -33 -3 0 14 -17 13 -22 -1z"/>
<path d="M2817 2624 c-14 -15 -6 -21 21 -16 18 3 24 1 17 -6 -5 -5 -19 -12
-30 -14 -12 -2 -20 -11 -20 -23 0 -16 7 -20 36 -21 l35 -2 -5 42 c-5 31 -11
42 -26 44 -12 2 -24 0 -28 -4z m33 -59 c-12 -15 -30 -12 -30 6 0 5 10 9 21 9
18 0 19 -2 9 -15z"/>
<path d="M2985 2620 c-11 -17 3 -25 19 -11 10 8 16 9 21 1 3 -5 -6 -15 -20
-20 -39 -15 -29 -45 16 -46 l35 -2 -5 42 c-5 35 -10 41 -33 44 -14 2 -29 -2
-33 -8z m43 -52 c-6 -18 -28 -21 -28 -4 0 9 7 16 16 16 9 0 14 -5 12 -12z"/>
<path d="M3070 2586 c0 -55 17 -62 22 -8 2 20 8 37 13 37 6 0 11 -17 13 -37 2
-21 8 -38 13 -38 6 0 9 19 7 43 -3 39 -5 42 -35 45 -33 3 -33 3 -33 -42z"/>
<path d="M2738 2299 c-12 -7 -18 -22 -18 -49 0 -46 22 -63 73 -57 26 3 33 8
35 30 3 25 1 27 -30 26 -24 -1 -27 -3 -10 -6 30 -6 23 -27 -11 -31 -33 -4 -53
28 -37 58 12 22 56 27 63 8 2 -7 8 -10 12 -6 12 12 -15 38 -39 38 -11 0 -29
-5 -38 -11z"/>
<path d="M3217 2303 c-4 -3 -7 -13 -7 -21 0 -13 3 -13 18 1 19 18 32 14 32
-10 0 -7 -8 -13 -17 -13 -17 -1 -17 -1 0 -11 18 -11 23 -34 8 -44 -5 -3 -17 2
-26 12 -16 16 -17 15 -13 -3 2 -14 12 -19 33 -19 28 0 30 3 32 40 2 58 -5 75
-31 75 -12 0 -26 -3 -29 -7z"/>
<path d="M3304 2296 c-3 -8 -4 -20 -3 -27 1 -8 -1 -22 -6 -32 -16 -37 39 -64
66 -31 10 12 10 20 2 34 -8 12 -9 20 -1 28 8 8 8 15 -2 27 -16 19 -49 20 -56
1z m38 -28 c-9 -9 -15 -9 -24 0 -10 10 -10 15 2 22 20 12 38 -6 22 -22z m5
-34 c8 -20 -8 -36 -26 -25 -15 10 -8 41 9 41 6 0 13 -7 17 -16z"/>
<path d="M2840 2235 c0 -25 5 -45 10 -45 6 0 10 14 10 31 0 19 7 37 18 45 15
12 14 13 -10 14 -26 0 -28 -2 -28 -45z"/>
<path d="M2900 2266 c-28 -35 11 -93 48 -70 35 22 22 84 -18 84 -10 0 -23 -7
-30 -14z m50 -29 c0 -13 -3 -26 -6 -30 -12 -12 -34 6 -34 29 0 17 6 24 20 24
14 0 20 -7 20 -23z"/>
<path d="M2980 2248 c0 -45 11 -59 43 -56 25 2 27 5 26 48 -2 34 -3 38 -6 15
-9 -62 -43 -69 -43 -9 0 19 -4 34 -10 34 -5 0 -10 -15 -10 -32z"/>
<path d="M3070 2220 c0 -33 4 -60 10 -60 6 0 10 7 10 15 0 8 8 15 18 15 24 0
42 19 42 45 0 29 -19 45 -52 45 -28 0 -28 -1 -28 -60z m60 15 c0 -18 -5 -25
-20 -25 -15 0 -20 7 -20 25 0 18 5 25 20 25 15 0 20 -7 20 -25z"/>
<path d="M4040 2601 c0 -34 4 -61 10 -61 6 0 10 12 10 26 0 21 4 25 23 22 14
-2 23 -11 25 -25 7 -47 21 -21 19 35 l-2 57 -42 3 -43 3 0 -60z m70 25 c0 -13
-20 -26 -41 -26 -5 0 -9 9 -9 20 0 15 7 20 25 20 15 0 25 -6 25 -14z"/>
<path d="M4562 2603 l-2 -63 38 1 c36 1 36 2 7 8 -28 6 -30 10 -36 61 l-6 55
-1 -62z"/>
<path d="M4730 2600 c0 -33 4 -60 10 -60 6 0 10 27 10 60 0 33 -4 60 -10 60
-6 0 -10 -27 -10 -60z"/>
<path d="M4238 2640 c-7 -23 5 -100 16 -100 7 0 10 14 8 40 -3 24 0 40 6 40 6
0 12 -17 14 -37 5 -57 23 -50 21 8 -1 56 -9 71 -24 49 -8 -11 -12 -12 -16 -2
-6 15 -20 16 -25 2z"/>
<path d="M4155 2620 c-11 -17 3 -25 19 -11 10 8 16 9 21 1 3 -5 -5 -14 -19
-20 -16 -6 -26 -17 -26 -29 0 -16 7 -20 38 -19 l38 0 -5 42 c-5 35 -10 41 -33
44 -14 2 -29 -2 -33 -8z m45 -49 c0 -14 -18 -23 -30 -16 -6 4 -8 11 -5 16 8
12 35 12 35 0z"/>
<path d="M4337 2623 c-14 -14 -6 -20 19 -15 19 3 25 1 20 -7 -4 -6 -15 -11
-26 -11 -19 0 -34 -25 -25 -41 3 -4 22 -8 41 -7 26 1 33 5 29 15 -3 8 -5 28
-5 44 0 24 -4 29 -23 29 -13 0 -27 -3 -30 -7z m43 -52 c0 -12 -28 -22 -34 -12
-3 5 -3 11 1 15 9 9 33 7 33 -3z"/>
<path d="M4410 2583 c0 -23 5 -43 10 -43 6 0 10 16 10 35 0 19 5 35 10 35 6 0
13 0 18 0 4 1 10 -16 13 -37 l6 -38 2 47 1 47 -35 -1 c-34 -1 -35 -2 -35 -45z"/>
<path d="M4645 2620 c-11 -17 3 -25 19 -11 10 8 16 9 21 1 3 -5 -6 -15 -20
-20 -39 -15 -29 -45 16 -46 l35 -2 -5 42 c-5 35 -10 41 -33 44 -14 2 -29 -2
-33 -8z m43 -52 c-6 -18 -28 -21 -28 -4 0 9 7 16 16 16 9 0 14 -5 12 -12z"/>
<path d="M4076 2288 c-36 -51 -6 -100 57 -96 33 3 37 6 37 31 0 23 -4 27 -27
26 -18 -1 -22 -3 -10 -6 26 -7 15 -27 -16 -31 -31 -4 -42 15 -33 53 7 27 42
35 64 13 6 -6 14 -9 17 -6 11 10 -26 38 -50 38 -13 0 -31 -10 -39 -22z"/>
<path d="M4560 2295 c-7 -8 -9 -19 -5 -23 4 -4 10 -1 12 6 6 16 43 16 43 -1 0
-7 -13 -23 -30 -35 -43 -32 -39 -52 11 -52 24 0 38 4 34 10 -3 6 -18 10 -33
10 l-26 0 34 29 c29 25 33 32 24 48 -14 24 -47 28 -64 8z"/>
<path d="M4640 2300 c0 -5 12 -10 26 -10 17 0 24 -4 21 -12 -3 -7 -12 -30 -21
-50 -25 -58 -3 -45 24 15 13 28 25 55 28 60 2 4 -15 7 -37 7 -23 0 -41 -4 -41
-10z"/>
<path d="M4191 2230 c2 -34 3 -37 6 -15 3 17 12 38 20 47 14 15 13 17 -6 15
-18 -1 -21 -7 -20 -47z"/>
<path d="M4244 2266 c-3 -8 -4 -27 -2 -43 2 -23 8 -28 32 -28 33 0 48 27 35
63 -10 25 -56 31 -65 8z m56 -31 c0 -7 -6 -18 -14 -24 -20 -17 -39 16 -24 42
7 15 12 16 24 6 8 -6 14 -17 14 -24z"/>
<path d="M4332 2238 c3 -40 5 -43 36 -46 32 -3 32 -3 32 42 0 55 -17 62 -22 9
-4 -52 -28 -56 -28 -4 0 23 -5 41 -11 41 -6 0 -9 -17 -7 -42z"/>
<path d="M4421 2216 c1 -34 4 -52 6 -40 3 16 10 20 28 16 19 -3 27 1 34 19 14
38 -1 64 -38 65 l-31 1 1 -61z m59 19 c0 -7 -6 -18 -14 -24 -20 -17 -39 16
-24 42 7 15 12 16 24 6 8 -6 14 -17 14 -24z"/>
<path d="M5440 2601 c0 -34 4 -61 10 -61 6 0 10 12 10 26 0 21 4 25 23 22 14
-2 23 -11 25 -25 7 -47 21 -21 19 35 l-2 57 -42 3 -43 3 0 -60z m70 25 c0 -13
-20 -26 -41 -26 -5 0 -9 9 -9 20 0 15 7 20 25 20 15 0 25 -6 25 -14z"/>
<path d="M5962 2603 l-2 -63 38 1 c36 1 36 2 7 8 -28 6 -30 10 -36 61 l-6 55
-1 -62z"/>
<path d="M6130 2600 c0 -33 4 -60 10 -60 6 0 10 27 10 60 0 33 -4 60 -10 60
-6 0 -10 -27 -10 -60z"/>
<path d="M5638 2640 c-7 -23 5 -100 16 -100 7 0 10 14 8 40 -3 24 0 40 6 40 6
0 12 -17 14 -37 5 -57 23 -50 21 8 -1 56 -9 71 -24 49 -8 -11 -12 -12 -16 -2
-6 15 -20 16 -25 2z"/>
<path d="M5555 2620 c-11 -17 3 -25 19 -11 10 8 16 9 21 1 3 -5 -5 -14 -19
-20 -16 -6 -26 -17 -26 -29 0 -16 7 -20 38 -19 l38 0 -5 42 c-5 35 -10 41 -33
44 -14 2 -29 -2 -33 -8z m45 -49 c0 -14 -18 -23 -30 -16 -6 4 -8 11 -5 16 8
12 35 12 35 0z"/>
<path d="M5737 2623 c-14 -14 -6 -20 19 -15 19 3 25 1 20 -7 -4 -6 -15 -11
-26 -11 -19 0 -34 -25 -25 -41 3 -4 22 -8 41 -7 26 1 33 5 29 15 -3 8 -5 28
-5 44 0 24 -4 29 -23 29 -13 0 -27 -3 -30 -7z m43 -52 c0 -12 -28 -22 -34 -12
-3 5 -3 11 1 15 9 9 33 7 33 -3z"/>
<path d="M5810 2583 c0 -23 5 -43 10 -43 6 0 10 16 10 35 0 19 5 35 10 35 6 0
13 0 18 0 4 1 10 -16 13 -37 l6 -38 2 47 1 47 -35 -1 c-34 -1 -35 -2 -35 -45z"/>
<path d="M6045 2620 c-11 -17 3 -25 19 -11 10 8 16 9 21 1 3 -5 -6 -15 -20
-20 -39 -15 -29 -45 16 -46 l35 -2 -5 42 c-5 35 -10 41 -33 44 -14 2 -29 -2
-33 -8z m43 -52 c-6 -18 -28 -21 -28 -4 0 9 7 16 16 16 9 0 14 -5 12 -12z"/>
<path d="M5476 2288 c-36 -51 -6 -100 57 -96 33 3 37 6 37 31 0 23 -4 27 -27
26 -18 -1 -22 -3 -10 -6 26 -7 15 -27 -16 -31 -31 -4 -42 15 -33 53 7 27 42
35 64 13 6 -6 14 -9 17 -6 11 10 -26 38 -50 38 -13 0 -31 -10 -39 -22z"/>
<path d="M5960 2295 c-7 -8 -9 -19 -5 -23 4 -4 10 -1 12 6 6 16 43 16 43 -1 0
-7 -13 -23 -30 -35 -43 -32 -39 -52 11 -52 24 0 38 4 34 10 -3 6 -18 10 -33
10 l-26 0 34 29 c29 25 33 32 24 48 -14 24 -47 28 -64 8z"/>
<path d="M6053 2298 c-6 -7 -10 -33 -10 -58 2 -41 4 -45 29 -48 18 -2 30 3 37
16 6 11 8 22 4 26 -3 3 -6 20 -7 38 -1 25 -6 34 -22 36 -11 2 -26 -3 -31 -10z
m37 -24 c0 -16 -16 -19 -25 -4 -8 13 4 32 16 25 5 -4 9 -13 9 -21z m10 -49 c0
-16 -27 -27 -36 -14 -3 5 -3 16 0 24 6 17 36 9 36 -10z"/>
<path d="M5591 2230 c2 -34 3 -37 6 -15 3 17 12 38 20 47 14 15 13 17 -6 15
-18 -1 -21 -7 -20 -47z"/>
<path d="M5644 2266 c-3 -8 -4 -27 -2 -43 2 -23 8 -28 32 -28 33 0 48 27 35
63 -10 25 -56 31 -65 8z m56 -31 c0 -7 -6 -18 -14 -24 -20 -17 -39 16 -24 42
7 15 12 16 24 6 8 -6 14 -17 14 -24z"/>
<path d="M5732 2238 c3 -40 5 -43 36 -46 32 -3 32 -3 32 42 0 55 -17 62 -22 9
-4 -52 -28 -56 -28 -4 0 23 -5 41 -11 41 -6 0 -9 -17 -7 -42z"/>
<path d="M5821 2216 c1 -34 4 -52 6 -40 3 16 10 20 28 16 19 -3 27 1 34 19 14
38 -1 64 -38 65 l-31 1 1 -61z m59 19 c0 -7 -6 -18 -14 -24 -20 -17 -39 16
-24 42 7 15 12 16 24 6 8 -6 14 -17 14 -24z"/>
<path d="M260 2070 c0 -5 7 -10 15 -10 11 0 15 -12 15 -50 0 -38 4 -50 15 -50
11 0 15 12 15 50 0 38 4 50 15 50 8 0 15 5 15 10 0 6 -20 10 -45 10 -25 0 -45
-4 -45 -10z"/>
<path d="M360 2020 c0 -47 3 -60 15 -60 10 0 15 11 15 35 0 19 5 35 10 35 6 0
10 -16 10 -35 0 -25 4 -35 16 -35 12 0 14 9 12 43 -2 35 -7 43 -25 45 -13 2
-23 10 -23 18 0 8 -7 14 -15 14 -12 0 -15 -13 -15 -60z"/>
<path d="M760 2065 c0 -8 -8 -15 -18 -15 -24 0 -42 -19 -42 -45 0 -30 19 -45
57 -45 l33 0 0 60 c0 47 -3 60 -15 60 -8 0 -15 -7 -15 -15z m-5 -60 c0 -10 -6
-20 -12 -22 -8 -3 -13 5 -13 22 0 17 5 25 13 23 6 -3 12 -13 12 -23z"/>
<path d="M462 2008 c3 -42 4 -43 41 -46 l37 -3 0 45 c0 34 -4 46 -15 46 -11 0
-15 -11 -15 -36 0 -45 -24 -42 -28 4 -5 48 -24 38 -20 -10z"/>
<path d="M560 2004 c0 -24 5 -44 10 -44 6 0 10 14 10 30 0 18 6 33 15 36 23 9
18 22 -10 22 -23 0 -25 -4 -25 -44z"/>
<path d="M627 2044 c-15 -16 -6 -41 21 -52 26 -11 26 -11 -8 -5 -32 5 -33 4
-21 -11 20 -23 65 -17 69 9 2 15 -5 24 -25 33 l-28 12 28 -6 c21 -3 28 -1 25
8 -5 14 -50 23 -61 12z"/>
<path d="M807 2043 c-16 -15 -5 -25 21 -19 l27 6 -28 -16 c-40 -22 -32 -48 16
-51 36 -2 37 -1 37 30 0 18 -5 38 -12 45 -13 13 -50 16 -61 5z m43 -53 c0 -5
-4 -10 -10 -10 -5 0 -10 5 -10 10 0 6 5 10 10 10 6 0 10 -4 10 -10z"/>
<path d="M890 2041 c0 -5 6 -27 14 -49 10 -29 11 -43 3 -51 -6 -6 -8 -14 -4
-17 12 -12 33 15 46 57 7 23 15 47 18 55 3 8 -1 14 -11 14 -9 0 -16 -8 -16
-20 0 -11 -4 -20 -9 -20 -5 0 -11 9 -14 20 -5 20 -27 29 -27 11z"/>
<path d="M1300 2020 c0 -64 19 -85 21 -22 l1 37 12 -34 c17 -49 30 -48 46 1
l14 43 7 -45 c6 -43 6 -43 7 18 2 75 -14 80 -37 11 l-15 -44 -15 48 c-21 68
-41 62 -41 -13z"/>
<path d="M1780 2020 c0 -33 4 -60 10 -60 6 0 10 11 10 24 0 37 17 40 36 6 10
-16 22 -30 26 -30 13 0 9 10 -13 42 l-21 29 23 25 c31 33 12 31 -23 -3 l-28
-27 0 27 c0 15 -4 27 -10 27 -6 0 -10 -27 -10 -60z"/>
<path d="M1435 2040 c-11 -17 3 -25 19 -11 10 8 16 9 21 1 3 -5 -6 -15 -20
-20 -39 -15 -29 -45 16 -46 l35 -2 -5 42 c-5 35 -10 41 -33 44 -14 2 -29 -2
-33 -8z m43 -52 c-6 -18 -28 -21 -28 -4 0 9 7 16 16 16 9 0 14 -5 12 -12z"/>
<path d="M1520 2006 c0 -55 17 -62 22 -8 2 20 8 37 13 37 6 0 11 -17 13 -37 2
-21 8 -38 13 -38 6 0 9 19 7 43 -3 39 -5 42 -35 45 -33 3 -33 3 -33 -42z"/>
<path d="M1611 2028 c-17 -46 21 -86 54 -58 18 15 19 52 3 68 -19 19 -48 14
-57 -10z m48 -40 c-8 -15 -13 -17 -25 -7 -17 14 -18 31 -2 47 19 19 41 -14 27
-40z"/>
<path d="M1700 2002 c0 -26 -5 -53 -12 -60 -9 -9 -8 -12 5 -12 14 0 17 10 17
60 0 33 -2 60 -5 60 -3 0 -5 -22 -5 -48z"/>
<path d="M1880 2018 c0 -45 11 -59 43 -56 25 2 27 5 26 48 -2 34 -3 38 -6 15
-9 -62 -43 -69 -43 -9 0 19 -4 34 -10 34 -5 0 -10 -15 -10 -32z"/>
<path d="M1970 2005 c0 -54 18 -60 22 -7 2 20 8 37 13 37 6 0 11 -17 13 -37 4
-48 20 -49 24 -3 2 20 8 35 13 35 6 0 11 -15 13 -35 2 -19 8 -35 13 -35 6 0 9
19 7 43 l-3 42 -57 3 -58 2 0 -45z"/>
<path d="M2117 2043 c-14 -14 -6 -20 19 -15 19 3 25 1 20 -7 -4 -6 -15 -11
-26 -11 -19 0 -34 -25 -25 -41 3 -4 22 -8 41 -7 26 1 33 5 29 15 -3 8 -5 28
-5 44 0 24 -4 29 -23 29 -13 0 -27 -3 -30 -7z m43 -52 c0 -12 -28 -22 -34 -12
-3 5 -3 11 1 15 9 9 33 7 33 -3z"/>
<path d="M2201 2000 c2 -34 3 -37 6 -15 3 17 12 38 20 47 14 15 13 17 -6 15
-18 -1 -21 -7 -20 -47z"/>
<path d="M1458 1719 c-12 -7 -18 -22 -18 -49 0 -46 22 -63 73 -57 26 3 33 8
35 30 3 25 1 27 -30 26 -24 -1 -27 -3 -10 -6 30 -6 23 -27 -11 -31 -33 -4 -53
28 -37 58 12 22 56 27 63 8 2 -7 8 -10 12 -6 12 12 -15 38 -39 38 -11 0 -29
-5 -38 -11z"/>
<path d="M1937 1723 c-4 -3 -7 -13 -7 -21 0 -13 3 -13 18 1 19 18 32 14 32
-10 0 -7 -8 -13 -17 -13 -17 -1 -17 -1 0 -11 18 -11 23 -34 8 -44 -5 -3 -17 2
-26 12 -16 16 -17 15 -13 -3 2 -14 12 -19 33 -19 28 0 30 3 32 40 2 58 -5 75
-31 75 -12 0 -26 -3 -29 -7z"/>
<path d="M2020 1715 c-18 -22 -3 -55 26 -55 15 0 24 -6 24 -16 0 -12 -7 -15
-25 -11 -16 3 -24 0 -22 -7 6 -19 40 -19 54 0 16 22 17 76 1 92 -16 16 -43 15
-58 -3z m48 -22 c-2 -10 -10 -18 -18 -18 -8 0 -16 8 -18 18 -2 12 3 17 18 17
15 0 20 -5 18 -17z"/>
<path d="M1560 1655 c0 -25 5 -45 10 -45 6 0 10 14 10 31 0 19 7 37 18 45 15
12 14 13 -10 14 -26 0 -28 -2 -28 -45z"/>
<path d="M1620 1686 c-28 -35 11 -93 48 -70 35 22 22 84 -18 84 -10 0 -23 -7
-30 -14z m50 -29 c0 -13 -3 -26 -6 -30 -12 -12 -34 6 -34 29 0 17 6 24 20 24
14 0 20 -7 20 -23z"/>
<path d="M1700 1668 c0 -45 11 -59 43 -56 25 2 27 5 26 48 -2 34 -3 38 -6 15
-9 -62 -43 -69 -43 -9 0 19 -4 34 -10 34 -5 0 -10 -15 -10 -32z"/>
<path d="M1790 1640 c0 -33 4 -60 10 -60 6 0 10 7 10 15 0 8 8 15 18 15 24 0
42 19 42 45 0 29 -19 45 -52 45 -28 0 -28 -1 -28 -60z m60 15 c0 -18 -5 -25
-20 -25 -15 0 -20 7 -20 25 0 18 5 25 20 25 15 0 20 -7 20 -25z"/>
<path d="M2580 2020 c0 -64 19 -85 21 -22 l1 37 12 -34 c17 -49 30 -48 46 1
l14 43 7 -45 c6 -43 6 -43 7 18 2 75 -14 80 -37 11 l-15 -44 -15 48 c-21 68
-41 62 -41 -13z"/>
<path d="M3060 2020 c0 -33 4 -60 10 -60 6 0 10 11 10 24 0 37 17 40 36 6 10
-16 22 -30 26 -30 13 0 9 10 -13 42 l-21 29 23 25 c31 33 12 31 -23 -3 l-28
-27 0 27 c0 15 -4 27 -10 27 -6 0 -10 -27 -10 -60z"/>
<path d="M2715 2040 c-11 -17 3 -25 19 -11 10 8 16 9 21 1 3 -5 -6 -15 -20
-20 -39 -15 -29 -45 16 -46 l35 -2 -5 42 c-5 35 -10 41 -33 44 -14 2 -29 -2
-33 -8z m43 -52 c-6 -18 -28 -21 -28 -4 0 9 7 16 16 16 9 0 14 -5 12 -12z"/>
<path d="M2800 2006 c0 -55 17 -62 22 -8 2 20 8 37 13 37 6 0 11 -17 13 -37 2
-21 8 -38 13 -38 6 0 9 19 7 43 -3 39 -5 42 -35 45 -33 3 -33 3 -33 -42z"/>
<path d="M2891 2028 c-17 -46 21 -86 54 -58 18 15 19 52 3 68 -19 19 -48 14
-57 -10z m48 -40 c-8 -15 -13 -17 -25 -7 -17 14 -18 31 -2 47 19 19 41 -14 27
-40z"/>
<path d="M2980 2002 c0 -26 -5 -53 -12 -60 -9 -9 -8 -12 5 -12 14 0 17 10 17
60 0 33 -2 60 -5 60 -3 0 -5 -22 -5 -48z"/>
<path d="M3160 2018 c0 -45 11 -59 43 -56 25 2 27 5 26 48 -2 34 -3 38 -6 15
-9 -62 -43 -69 -43 -9 0 19 -4 34 -10 34 -5 0 -10 -15 -10 -32z"/>
<path d="M3250 2005 c0 -54 18 -60 22 -7 2 20 8 37 13 37 6 0 11 -17 13 -37 4
-48 20 -49 24 -3 2 20 8 35 13 35 6 0 11 -15 13 -35 2 -19 8 -35 13 -35 6 0 9
19 7 43 l-3 42 -57 3 -58 2 0 -45z"/>
<path d="M3397 2043 c-14 -14 -6 -20 19 -15 19 3 25 1 20 -7 -4 -6 -15 -11
-26 -11 -19 0 -34 -25 -25 -41 3 -4 22 -8 41 -7 26 1 33 5 29 15 -3 8 -5 28
-5 44 0 24 -4 29 -23 29 -13 0 -27 -3 -30 -7z m43 -52 c0 -12 -28 -22 -34 -12
-3 5 -3 11 1 15 9 9 33 7 33 -3z"/>
<path d="M3481 2000 c2 -34 3 -37 6 -15 3 17 12 38 20 47 14 15 13 17 -6 15
-18 -1 -21 -7 -20 -47z"/>
<path d="M2738 1719 c-12 -7 -18 -22 -18 -49 0 -46 22 -63 73 -57 26 3 33 8
35 30 3 25 1 27 -30 26 -24 -1 -27 -3 -10 -6 30 -6 23 -27 -11 -31 -33 -4 -53
28 -37 58 12 22 56 27 63 8 2 -7 8 -10 12 -6 12 12 -15 38 -39 38 -11 0 -29
-5 -38 -11z"/>
<path d="M3233 1693 c-40 -49 -40 -53 -8 -53 16 0 25 -6 25 -15 0 -21 17 -19
22 3 2 9 1 37 -2 62 l-5 44 -32 -41z m17 -23 c0 -11 -7 -20 -15 -20 -13 0 -13
3 -3 20 7 11 14 20 15 20 2 0 3 -9 3 -20z"/>
<path d="M3299 1703 c-16 -42 0 -88 31 -88 51 0 53 106 2 113 -16 3 -25 -4
-33 -25z m51 -31 c0 -45 -8 -56 -27 -41 -13 12 -18 61 -6 72 18 19 33 5 33
-31z"/>
<path d="M2840 1655 c0 -25 5 -45 10 -45 6 0 10 14 10 31 0 19 7 37 18 45 15
12 14 13 -10 14 -26 0 -28 -2 -28 -45z"/>
<path d="M2900 1686 c-28 -35 11 -93 48 -70 35 22 22 84 -18 84 -10 0 -23 -7
-30 -14z m50 -29 c0 -13 -3 -26 -6 -30 -12 -12 -34 6 -34 29 0 17 6 24 20 24
14 0 20 -7 20 -23z"/>
<path d="M2980 1668 c0 -45 11 -59 43 -56 25 2 27 5 26 48 -2 34 -3 38 -6 15
-9 -62 -43 -69 -43 -9 0 19 -4 34 -10 34 -5 0 -10 -15 -10 -32z"/>
<path d="M3070 1640 c0 -33 4 -60 10 -60 6 0 10 7 10 15 0 8 8 15 18 15 24 0
42 19 42 45 0 29 -19 45 -52 45 -28 0 -28 -1 -28 -60z m60 15 c0 -18 -5 -25
-20 -25 -15 0 -20 7 -20 25 0 18 5 25 20 25 15 0 20 -7 20 -25z"/>
<path d="M3932 2018 c1 -60 1 -61 7 -18 l6 45 13 -43 c15 -50 30 -50 48 -1
l12 34 1 -37 c2 -63 21 -42 21 22 0 75 -21 82 -40 14 -14 -50 -22 -48 -40 9
-18 56 -30 45 -28 -25z"/>
<path d="M4320 2070 c0 -5 5 -10 10 -10 6 0 10 5 10 10 0 6 -4 10 -10 10 -5 0
-10 -4 -10 -10z"/>
<path d="M4412 2020 c0 -39 3 -55 7 -41 9 34 25 36 45 6 9 -14 21 -25 27 -25
7 0 5 9 -5 23 -28 39 -29 47 -6 73 19 20 21 24 7 24 -9 0 -24 -11 -33 -25 -21
-32 -32 -32 -37 3 -2 15 -4 -2 -5 -38z"/>
<path d="M4067 2043 c-14 -14 -6 -20 19 -15 19 3 25 1 20 -7 -4 -6 -15 -11
-26 -11 -19 0 -34 -25 -25 -41 3 -4 22 -8 41 -7 26 1 33 5 29 15 -3 8 -5 28
-5 44 0 24 -4 29 -23 29 -13 0 -27 -3 -30 -7z m43 -52 c0 -12 -28 -22 -34 -12
-3 5 -3 11 1 15 9 9 33 7 33 -3z"/>
<path d="M4140 2003 c0 -23 5 -43 10 -43 6 0 10 16 10 35 0 19 5 35 10 35 6 0
13 0 18 0 4 1 10 -16 13 -37 l6 -38 2 47 1 47 -35 -1 c-34 -1 -35 -2 -35 -45z"/>
<path d="M4242 2038 c-28 -28 -3 -84 34 -76 28 5 40 33 26 62 -12 28 -40 34
-60 14z m48 -32 c0 -23 -22 -41 -34 -29 -3 4 -6 17 -6 30 0 16 6 23 20 23 14
0 20 -7 20 -24z"/>
<path d="M4318 1990 c-2 -37 1 -59 7 -57 13 5 19 117 6 117 -5 0 -11 -27 -13
-60z"/>
<path d="M4512 2008 c3 -40 5 -43 36 -46 32 -3 32 -3 32 42 0 55 -17 62 -22 9
-4 -52 -28 -56 -28 -4 0 23 -5 41 -11 41 -6 0 -9 -17 -7 -42z"/>
<path d="M4600 2005 c0 -54 18 -60 22 -7 2 20 8 37 13 37 6 0 11 -17 13 -37 4
-48 20 -49 24 -3 4 47 21 45 29 -2 l6 -38 2 46 1 47 -55 1 -55 0 0 -44z"/>
<path d="M4735 2040 c-11 -17 3 -25 19 -11 10 8 16 9 21 1 3 -5 -6 -15 -20
-20 -39 -15 -29 -45 16 -46 l35 -2 -5 42 c-5 35 -10 41 -33 44 -14 2 -29 -2
-33 -8z m43 -52 c-6 -18 -28 -21 -28 -4 0 9 7 16 16 16 9 0 14 -5 12 -12z"/>
<path d="M4820 2005 c0 -25 5 -45 10 -45 6 0 10 14 10 31 0 19 7 37 18 45 15
12 14 13 -10 14 -26 0 -28 -2 -28 -45z"/>
<path d="M4076 1708 c-36 -51 -6 -100 57 -96 33 3 37 6 37 31 0 23 -4 27 -27
26 -18 -1 -22 -3 -10 -6 26 -7 15 -27 -16 -31 -31 -4 -42 15 -33 53 7 27 42
35 64 13 6 -6 14 -9 17 -6 11 10 -26 38 -50 38 -13 0 -31 -10 -39 -22z"/>
<path d="M4560 1715 c-7 -8 -9 -19 -5 -23 4 -4 10 -1 12 6 6 16 43 16 43 -1 0
-7 -13 -23 -30 -35 -43 -32 -39 -52 11 -52 24 0 38 4 34 10 -3 6 -18 10 -33
10 l-26 0 34 29 c29 25 33 32 24 48 -14 24 -47 28 -64 8z"/>
<path d="M4644 1716 c-11 -29 1 -51 29 -54 24 -3 26 -6 16 -23 -8 -16 -13 -18
-25 -8 -16 13 -30 6 -19 -10 9 -16 41 -13 55 4 13 15 16 77 5 94 -9 16 -55 13
-61 -3z m49 -32 c-8 -20 -33 -17 -33 4 0 10 3 22 7 25 10 11 32 -13 26 -29z"/>
<path d="M4191 1650 c2 -34 3 -37 6 -15 3 17 12 38 20 47 14 15 13 17 -6 15
-18 -1 -21 -7 -20 -47z"/>
<path d="M4244 1686 c-3 -8 -4 -27 -2 -43 2 -23 8 -28 32 -28 33 0 48 27 35
63 -10 25 -56 31 -65 8z m56 -31 c0 -7 -6 -18 -14 -24 -20 -17 -39 16 -24 42
7 15 12 16 24 6 8 -6 14 -17 14 -24z"/>
<path d="M4332 1658 c3 -40 5 -43 36 -46 32 -3 32 -3 32 42 0 55 -17 62 -22 9
-4 -52 -28 -56 -28 -4 0 23 -5 41 -11 41 -6 0 -9 -17 -7 -42z"/>
<path d="M4421 1636 c1 -34 4 -52 6 -40 3 16 10 20 28 16 19 -3 27 1 34 19 14
38 -1 64 -38 65 l-31 1 1 -61z m59 19 c0 -7 -6 -18 -14 -24 -20 -17 -39 16
-24 42 7 15 12 16 24 6 8 -6 14 -17 14 -24z"/>
<path d="M5355 2044 c-22 -54 -29 -84 -17 -84 5 0 12 9 15 20 3 12 14 20 25
20 12 0 23 -9 27 -20 3 -11 11 -20 16 -20 6 0 7 9 3 23 -34 107 -45 117 -69
61z m35 -20 c0 -8 -6 -14 -14 -14 -9 0 -12 7 -9 20 6 22 23 18 23 -6z"/>
<path d="M5490 2065 c0 -8 -9 -15 -20 -15 -28 0 -45 -36 -31 -66 8 -19 18 -24
41 -22 30 2 30 3 30 60 0 32 -4 58 -10 58 -5 0 -10 -7 -10 -15z m0 -58 c0 -13
-3 -26 -6 -30 -12 -12 -34 6 -34 29 0 17 6 24 20 24 14 0 20 -7 20 -23z"/>
<path d="M5530 2069 c0 -5 5 -7 10 -4 6 3 10 8 10 11 0 2 -4 4 -10 4 -5 0 -10
-5 -10 -11z"/>
<path d="M5831 2062 c-12 -23 -3 -37 32 -48 15 -5 28 -13 30 -19 3 -15 -45
-19 -54 -4 -4 8 -11 10 -15 6 -13 -12 18 -37 47 -37 37 0 56 31 33 54 -8 9
-21 16 -27 16 -7 0 -19 5 -27 10 -13 9 -13 11 0 20 10 6 22 4 37 -6 20 -12 23
-12 23 0 0 29 -64 36 -79 8z"/>
<path d="M5930 2069 c0 -5 5 -7 10 -4 6 3 10 8 10 11 0 2 -4 4 -10 4 -5 0 -10
-5 -10 -11z"/>
<path d="M6140 2020 c0 -33 4 -60 10 -60 6 0 10 27 10 60 0 33 -4 60 -10 60
-6 0 -10 -27 -10 -60z"/>
<path d="M5569 2062 c-2 -7 -3 -33 -1 -57 3 -33 8 -45 20 -45 12 0 13 3 4 12
-17 17 -15 68 1 68 20 0 42 -78 26 -96 -9 -11 -8 -14 3 -14 8 0 23 25 36 60
21 61 16 83 -8 33 l-13 -28 -9 28 c-6 16 -17 27 -28 27 -10 0 -20 6 -22 13 -4
9 -6 9 -9 -1z"/>
<path d="M5530 2005 c0 -25 5 -45 10 -45 6 0 10 20 10 45 0 25 -4 45 -10 45
-5 0 -10 -20 -10 -45z"/>
<path d="M5695 2040 c-11 -17 3 -25 19 -11 10 8 16 9 21 1 3 -5 -5 -14 -19
-20 -16 -6 -26 -17 -26 -29 0 -16 7 -20 38 -19 l38 0 -5 42 c-5 35 -10 41 -33
44 -14 2 -29 -2 -33 -8z m45 -49 c0 -14 -18 -23 -30 -16 -6 4 -8 11 -5 16 8
12 35 12 35 0z"/>
<path d="M5930 2005 c0 -25 5 -45 10 -45 6 0 10 20 10 45 0 25 -4 45 -10 45
-5 0 -10 -20 -10 -45z"/>
<path d="M5960 2003 c0 -23 5 -43 10 -43 6 0 10 16 10 35 0 19 5 35 10 35 6 0
13 0 18 0 4 1 10 -16 13 -37 l6 -38 2 47 1 47 -35 -1 c-34 -1 -35 -2 -35 -45z"/>
<path d="M6062 2038 c-15 -15 -16 -55 -2 -63 8 -5 7 -11 -1 -21 -13 -16 7 -28
38 -22 14 2 19 14 21 58 3 52 1 56 -21 58 -13 1 -29 -4 -35 -10z m42 -46 c-20
-31 -44 -3 -29 35 5 15 7 15 23 0 13 -14 14 -21 6 -35z m0 -37 c-7 -17 -20
-20 -29 -6 -3 5 3 12 12 14 10 3 19 5 20 6 1 0 0 -6 -3 -14z"/>
<path d="M6185 2040 c-11 -17 3 -25 19 -11 10 8 16 9 21 1 3 -5 -5 -14 -19
-20 -16 -6 -26 -17 -26 -29 0 -16 7 -20 38 -19 l38 0 -5 42 c-5 35 -10 41 -33
44 -14 2 -29 -2 -33 -8z m45 -49 c0 -14 -18 -23 -30 -16 -6 4 -8 11 -5 16 8
12 35 12 35 0z"/>
<path d="M5476 1708 c-36 -51 -6 -100 57 -96 33 3 37 6 37 31 0 23 -4 27 -27
26 -18 -1 -22 -3 -10 -6 26 -7 15 -27 -16 -31 -31 -4 -42 15 -33 53 7 27 42
35 64 13 6 -6 14 -9 17 -6 11 10 -26 38 -50 38 -13 0 -31 -10 -39 -22z"/>
<path d="M5960 1715 c-7 -8 -10 -19 -6 -22 4 -4 11 -1 16 6 5 9 15 11 26 7 18
-7 18 -8 0 -21 -17 -13 -17 -15 -3 -21 10 -3 17 -12 17 -19 0 -21 -29 -26 -39
-7 -11 20 -26 10 -18 -13 8 -19 51 -20 67 0 7 8 9 22 5 32 -4 10 -8 29 -9 43
-1 30 -36 39 -56 15z"/>
<path d="M6052 1718 c-17 -17 -15 -83 3 -98 36 -30 68 12 55 75 -6 33 -36 45
-58 23z m44 -32 c6 -27 -12 -70 -27 -61 -16 10 -11 85 6 85 8 0 17 -11 21 -24z"/>
<path d="M5591 1650 c2 -34 3 -37 6 -15 3 17 12 38 20 47 14 15 13 17 -6 15
-18 -1 -21 -7 -20 -47z"/>
<path d="M5644 1686 c-3 -8 -4 -27 -2 -43 2 -23 8 -28 32 -28 33 0 48 27 35
63 -10 25 -56 31 -65 8z m56 -31 c0 -7 -6 -18 -14 -24 -20 -17 -39 16 -24 42
7 15 12 16 24 6 8 -6 14 -17 14 -24z"/>
<path d="M5732 1658 c3 -40 5 -43 36 -46 32 -3 32 -3 32 42 0 55 -17 62 -22 9
-4 -52 -28 -56 -28 -4 0 23 -5 41 -11 41 -6 0 -9 -17 -7 -42z"/>
<path d="M5821 1636 c1 -34 4 -52 6 -40 3 16 10 20 28 16 19 -3 27 1 34 19 14
38 -1 64 -38 65 l-31 1 1 -61z m59 19 c0 -7 -6 -18 -14 -24 -20 -17 -39 16
-24 42 7 15 12 16 24 6 8 -6 14 -17 14 -24z"/>
<path d="M380 1440 c0 -47 3 -60 15 -60 9 0 15 9 15 25 0 20 5 25 25 25 14 0
25 5 25 10 0 6 -11 10 -25 10 -16 0 -25 6 -25 15 0 10 10 15 30 15 17 0 30 5
30 10 0 6 -20 10 -45 10 l-45 0 0 -60z"/>
<path d="M540 1490 c0 -5 7 -10 15 -10 8 0 15 5 15 10 0 6 -7 10 -15 10 -8 0
-15 -4 -15 -10z"/>
<path d="M640 1485 c0 -8 -8 -15 -18 -15 -24 0 -42 -19 -42 -45 0 -30 19 -45
57 -45 l33 0 0 60 c0 47 -3 60 -15 60 -8 0 -15 -7 -15 -15z m-5 -60 c0 -10 -6
-20 -12 -22 -8 -3 -13 5 -13 22 0 17 5 25 13 23 6 -3 12 -13 12 -23z"/>
<path d="M480 1425 c0 -33 4 -45 15 -45 10 0 15 10 15 29 0 17 5 33 10 36 18
11 10 25 -15 25 -23 0 -25 -4 -25 -45z"/>
<path d="M540 1425 c0 -33 4 -45 15 -45 11 0 15 12 15 45 0 33 -4 45 -15 45
-11 0 -15 -12 -15 -45z"/>
<path d="M687 1463 c-16 -15 -5 -25 21 -19 l27 6 -28 -16 c-40 -22 -32 -48 16
-51 36 -2 37 -1 37 30 0 18 -5 38 -12 45 -13 13 -50 16 -61 5z m43 -53 c0 -5
-4 -10 -10 -10 -5 0 -10 5 -10 10 0 6 5 10 10 10 6 0 10 -4 10 -10z"/>
<path d="M770 1461 c0 -5 6 -27 14 -49 10 -29 11 -43 3 -51 -6 -6 -8 -14 -4
-17 12 -12 33 15 46 57 7 23 15 47 18 55 3 8 -1 14 -11 14 -9 0 -16 -8 -16
-20 0 -11 -4 -20 -9 -20 -5 0 -11 9 -14 20 -5 20 -27 29 -27 11z"/>
<path d="M1310 1441 c0 -34 4 -61 10 -61 6 0 10 12 10 26 0 21 4 25 23 22 14
-2 23 -11 25 -25 7 -47 21 -21 19 35 l-2 57 -42 3 -43 3 0 -60z m70 25 c0 -13
-20 -26 -41 -26 -5 0 -9 9 -9 20 0 15 7 20 25 20 15 0 25 -6 25 -14z"/>
<path d="M1420 1489 c0 -5 5 -7 10 -4 6 3 10 8 10 11 0 2 -4 4 -10 4 -5 0 -10
-5 -10 -11z"/>
<path d="M1672 1440 c1 -36 3 -51 5 -35 9 62 43 69 43 9 0 -19 5 -34 11 -34 6
0 9 17 7 43 -3 37 -6 42 -28 42 -16 0 -27 7 -32 20 -3 11 -6 -9 -6 -45z"/>
<path d="M1811 1482 c-12 -23 -3 -37 32 -48 15 -5 28 -13 30 -19 3 -15 -45
-19 -54 -4 -4 8 -11 10 -15 6 -13 -12 18 -37 47 -37 37 0 56 31 33 54 -8 9
-21 16 -27 16 -7 0 -19 5 -27 10 -13 9 -13 11 0 20 10 6 22 4 37 -6 20 -12 23
-12 23 0 0 29 -64 36 -79 8z"/>
<path d="M1910 1489 c0 -5 5 -7 10 -4 6 3 10 8 10 11 0 2 -4 4 -10 4 -5 0 -10
-5 -10 -11z"/>
<path d="M2120 1440 c0 -33 4 -60 10 -60 6 0 10 27 10 60 0 33 -4 60 -10 60
-6 0 -10 -27 -10 -60z"/>
<path d="M1458 1480 c-2 -6 -2 -31 0 -55 3 -33 8 -45 20 -45 12 0 13 3 4 12
-14 14 -16 65 -3 70 5 2 3 8 -4 15 -8 8 -15 8 -17 3z"/>
<path d="M1420 1425 c0 -25 5 -45 10 -45 6 0 10 20 10 45 0 25 -4 45 -10 45
-5 0 -10 -20 -10 -45z"/>
<path d="M1501 1448 c-5 -13 -5 -32 -1 -43 8 -22 47 -32 63 -16 15 15 0 26
-16 12 -11 -9 -17 -8 -27 4 -11 13 -8 15 19 15 28 0 32 3 29 23 -5 33 -55 37
-67 5z m49 -9 c0 -5 -10 -9 -21 -9 -18 0 -19 2 -9 15 12 15 30 12 30 -6z"/>
<path d="M1587 1457 c-6 -17 3 -32 26 -40 10 -4 15 -12 12 -17 -5 -8 -11 -7
-21 1 -17 14 -32 3 -17 -12 16 -16 57 -7 61 13 2 12 -6 21 -23 28 -14 5 -23
15 -20 20 5 8 11 7 21 -1 16 -13 30 -6 19 10 -9 16 -52 14 -58 -2z"/>
<path d="M1910 1425 c0 -25 5 -45 10 -45 6 0 10 20 10 45 0 25 -4 45 -10 45
-5 0 -10 -20 -10 -45z"/>
<path d="M1940 1423 c0 -23 5 -43 10 -43 6 0 10 16 10 35 0 19 5 35 10 35 6 0
13 0 18 0 4 1 10 -16 13 -37 l6 -38 2 47 1 47 -35 -1 c-34 -1 -35 -2 -35 -45z"/>
<path d="M2042 1458 c-15 -15 -16 -55 -2 -63 8 -5 7 -11 -1 -21 -13 -16 7 -28
38 -22 14 2 19 14 21 58 3 52 1 56 -21 58 -13 1 -29 -4 -35 -10z m42 -46 c-20
-31 -44 -3 -29 35 5 15 7 15 23 0 13 -14 14 -21 6 -35z m0 -37 c-7 -17 -20
-20 -29 -6 -3 5 3 12 12 14 10 3 19 5 20 6 1 0 0 -6 -3 -14z"/>
<path d="M2165 1460 c-11 -17 3 -25 19 -11 10 8 16 9 21 1 3 -5 -5 -14 -19
-20 -16 -6 -26 -17 -26 -29 0 -16 7 -20 38 -19 l38 0 -5 42 c-5 35 -10 41 -33
44 -14 2 -29 -2 -33 -8z m45 -49 c0 -14 -18 -23 -30 -16 -6 4 -8 11 -5 16 8
12 35 12 35 0z"/>
<path d="M1458 1139 c-12 -7 -18 -22 -18 -49 0 -46 22 -63 73 -57 26 3 33 8
35 30 3 25 1 27 -30 26 -24 -1 -27 -3 -10 -6 30 -6 23 -27 -11 -31 -33 -4 -53
28 -37 58 12 22 56 27 63 8 2 -7 8 -10 12 -6 12 12 -15 38 -39 38 -11 0 -29
-5 -38 -11z"/>
<path d="M1937 1143 c-4 -3 -7 -13 -7 -21 0 -13 3 -13 18 1 19 18 32 14 32
-10 0 -7 -8 -13 -17 -13 -17 -1 -17 -1 0 -11 18 -11 23 -34 8 -44 -5 -3 -17 2
-26 12 -16 16 -17 15 -13 -3 2 -14 12 -19 33 -19 28 0 30 3 32 40 2 58 -5 75
-31 75 -12 0 -26 -3 -29 -7z"/>
<path d="M2036 1129 c-17 -16 -17 -19 -3 -19 11 0 17 -12 20 -42 3 -34 4 -30
5 20 1 34 1 62 0 61 -2 0 -12 -9 -22 -20z"/>
<path d="M1560 1075 c0 -25 5 -45 10 -45 6 0 10 14 10 31 0 19 7 37 18 45 15
12 14 13 -10 14 -26 0 -28 -2 -28 -45z"/>
<path d="M1620 1106 c-28 -35 11 -93 48 -70 35 22 22 84 -18 84 -10 0 -23 -7
-30 -14z m50 -29 c0 -13 -3 -26 -6 -30 -12 -12 -34 6 -34 29 0 17 6 24 20 24
14 0 20 -7 20 -23z"/>
<path d="M1700 1088 c0 -45 11 -59 43 -56 25 2 27 5 26 48 -2 34 -3 38 -6 15
-9 -62 -43 -69 -43 -9 0 19 -4 34 -10 34 -5 0 -10 -15 -10 -32z"/>
<path d="M1790 1060 c0 -33 4 -60 10 -60 6 0 10 7 10 15 0 8 8 15 18 15 24 0
42 19 42 45 0 29 -19 45 -52 45 -28 0 -28 -1 -28 -60z m60 15 c0 -18 -5 -25
-20 -25 -15 0 -20 7 -20 25 0 18 5 25 20 25 15 0 20 -7 20 -25z"/>
<path d="M2501 1482 c-12 -23 -3 -37 32 -48 15 -5 28 -13 30 -19 3 -15 -45
-19 -54 -4 -4 8 -11 10 -15 6 -13 -12 18 -37 47 -37 37 0 56 31 33 54 -8 9
-21 16 -27 16 -7 0 -19 5 -27 10 -13 9 -13 11 0 20 10 6 22 4 37 -6 20 -12 23
-12 23 0 0 29 -64 36 -79 8z"/>
<path d="M2921 1444 l-1 -61 31 1 c37 1 52 27 38 65 -7 18 -15 22 -34 19 -18
-4 -25 0 -28 16 -2 12 -5 -6 -6 -40z m53 -32 c-13 -20 -25 -20 -38 1 -7 10 -5
21 4 32 12 15 15 15 29 0 12 -12 13 -19 5 -33z"/>
<path d="M3010 1440 c0 -66 17 -83 22 -22 4 46 22 45 26 -3 2 -19 8 -35 13
-35 6 0 9 19 7 43 -2 35 -7 43 -25 45 -13 2 -23 10 -23 18 0 8 -4 14 -10 14
-6 0 -10 -27 -10 -60z"/>
<path d="M3146 1478 c21 -68 32 -92 41 -95 6 -2 20 23 31 57 11 33 17 60 12
60 -5 0 -15 -18 -21 -40 -7 -22 -15 -40 -19 -40 -4 0 -12 18 -19 40 -6 22 -16
40 -22 40 -6 0 -7 -9 -3 -22z"/>
<path d="M2605 1460 c-11 -17 3 -25 19 -11 10 8 16 9 21 1 3 -5 -5 -14 -19
-20 -16 -6 -26 -17 -26 -29 0 -16 7 -20 38 -19 l38 0 -5 42 c-5 35 -10 41 -33
44 -14 2 -29 -2 -33 -8z m45 -49 c0 -14 -18 -23 -30 -16 -6 4 -8 11 -5 16 8
12 35 12 35 0z"/>
<path d="M2692 1428 c3 -40 5 -43 36 -46 32 -3 32 -3 32 42 0 55 -17 62 -22 9
-4 -52 -28 -56 -28 -4 0 23 -5 41 -11 41 -6 0 -9 -17 -7 -42z"/>
<path d="M2781 1420 c2 -34 3 -37 6 -15 3 17 12 38 20 47 14 15 13 17 -6 15
-18 -1 -21 -7 -20 -47z"/>
<path d="M2835 1460 c-11 -17 3 -25 19 -11 10 8 16 9 21 1 3 -5 -6 -15 -20
-20 -39 -15 -29 -45 16 -46 l35 -2 -5 42 c-5 35 -10 41 -33 44 -14 2 -29 -2
-33 -8z m43 -52 c-6 -18 -28 -21 -28 -4 0 9 7 16 16 16 9 0 14 -5 12 -12z"/>
<path d="M3251 1448 c-5 -13 -5 -32 -1 -43 8 -22 47 -32 63 -16 15 15 0 26
-16 12 -11 -9 -17 -8 -27 4 -11 13 -8 15 19 15 28 0 32 3 29 23 -5 33 -55 37
-67 5z m49 -9 c0 -5 -10 -9 -21 -9 -18 0 -19 2 -9 15 12 15 30 12 30 -6z"/>
<path d="M3340 1425 c0 -25 5 -45 10 -45 6 0 10 16 10 35 0 19 5 35 10 35 6 0
10 5 10 10 0 6 -9 10 -20 10 -17 0 -20 -7 -20 -45z"/>
<path d="M3390 1425 c0 -54 18 -60 22 -7 2 20 8 37 13 37 6 0 11 -17 13 -37 4
-48 20 -49 24 -3 2 20 8 35 13 35 6 0 11 -15 13 -35 4 -44 22 -46 22 -2 0 47
-9 54 -67 56 l-53 1 0 -45z"/>
<path d="M3537 1464 c-14 -15 -6 -21 21 -16 18 3 24 1 17 -6 -5 -5 -19 -12
-30 -14 -12 -2 -20 -11 -20 -23 0 -16 7 -20 36 -21 l35 -2 -5 42 c-5 31 -11
42 -26 44 -12 2 -24 0 -28 -4z m33 -59 c-12 -15 -30 -12 -30 6 0 5 10 9 21 9
18 0 19 -2 9 -15z"/>
<path d="M2738 1139 c-12 -7 -18 -22 -18 -49 0 -46 22 -63 73 -57 26 3 33 8
35 30 3 25 1 27 -30 26 -24 -1 -27 -3 -10 -6 30 -6 23 -27 -11 -31 -33 -4 -53
28 -37 58 12 22 56 27 63 8 2 -7 8 -10 12 -6 12 12 -15 38 -39 38 -11 0 -29
-5 -38 -11z"/>
<path d="M3217 1143 c-4 -3 -7 -13 -7 -21 0 -13 3 -13 18 1 19 18 32 14 32
-10 0 -7 -8 -13 -17 -13 -17 -1 -17 -1 0 -11 18 -11 23 -34 8 -44 -5 -3 -17 2
-26 12 -16 16 -17 15 -13 -3 2 -14 12 -19 33 -19 28 0 30 3 32 40 2 58 -5 75
-31 75 -12 0 -26 -3 -29 -7z"/>
<path d="M3300 1130 c-13 -24 -3 -26 22 -4 16 16 18 15 24 0 5 -12 -3 -27 -25
-46 -41 -38 -39 -50 10 -50 24 0 38 4 34 10 -3 6 -16 10 -28 10 -21 0 -21 1 6
25 29 28 34 44 15 63 -18 18 -46 14 -58 -8z"/>
<path d="M2840 1075 c0 -25 5 -45 10 -45 6 0 10 14 10 31 0 19 7 37 18 45 15
12 14 13 -10 14 -26 0 -28 -2 -28 -45z"/>
<path d="M2900 1106 c-28 -35 11 -93 48 -70 35 22 22 84 -18 84 -10 0 -23 -7
-30 -14z m50 -29 c0 -13 -3 -26 -6 -30 -12 -12 -34 6 -34 29 0 17 6 24 20 24
14 0 20 -7 20 -23z"/>
<path d="M2980 1088 c0 -45 11 -59 43 -56 25 2 27 5 26 48 -2 34 -3 38 -6 15
-9 -62 -43 -69 -43 -9 0 19 -4 34 -10 34 -5 0 -10 -15 -10 -32z"/>
<path d="M3070 1060 c0 -33 4 -60 10 -60 6 0 10 7 10 15 0 8 8 15 18 15 24 0
42 19 42 45 0 29 -19 45 -52 45 -28 0 -28 -1 -28 -60z m60 15 c0 -18 -5 -25
-20 -25 -15 0 -20 7 -20 25 0 18 5 25 20 25 15 0 20 -7 20 -25z"/>
<path d="M3930 1440 c0 -33 4 -60 10 -60 6 0 10 11 10 25 0 20 5 25 25 25 18
0 26 -7 31 -25 3 -14 10 -25 14 -25 5 0 5 13 0 29 -4 15 -4 34 0 42 16 25 -8
49 -50 49 l-40 0 0 -60z m75 31 c6 -10 -25 -31 -44 -31 -6 0 -11 9 -11 20 0
15 7 20 24 20 14 0 27 -4 31 -9z"/>
<path d="M4045 1490 c3 -5 8 -10 11 -10 2 0 4 5 4 10 0 6 -5 10 -11 10 -5 0
-7 -4 -4 -10z"/>
<path d="M4290 1440 c0 -33 4 -60 10 -60 6 0 10 15 10 34 0 60 33 53 43 -9 3
-19 4 -13 3 15 -1 39 -4 45 -23 48 -13 2 -23 10 -23 18 0 8 -4 14 -10 14 -6 0
-10 -27 -10 -60z"/>
<path d="M4442 1488 c-21 -21 -13 -37 23 -52 19 -8 35 -20 35 -25 0 -15 -43
-14 -58 1 -9 9 -12 8 -12 -4 0 -30 59 -38 81 -12 16 20 1 46 -31 54 -13 3 -25
10 -27 17 -6 17 25 24 41 8 17 -17 30 -7 15 12 -14 16 -51 17 -67 1z"/>
<path d="M4535 1490 c3 -5 8 -10 11 -10 2 0 4 5 4 10 0 6 -5 10 -11 10 -5 0
-7 -4 -4 -10z"/>
<path d="M4750 1440 c0 -33 4 -60 10 -60 6 0 10 27 10 60 0 33 -4 60 -10 60
-6 0 -10 -27 -10 -60z"/>
<path d="M4078 1479 c-7 -20 6 -92 17 -96 8 -2 11 41 6 100 -1 11 -19 8 -23
-4z"/>
<path d="M4040 1425 c0 -25 5 -45 10 -45 6 0 10 20 10 45 0 25 -4 45 -10 45
-5 0 -10 -20 -10 -45z"/>
<path d="M4132 1458 c-16 -16 -15 -53 3 -68 16 -14 47 -10 52 6 2 7 -6 10 -22
7 -15 -3 -25 -1 -25 6 0 6 14 11 30 11 18 0 30 5 30 13 0 18 -21 37 -40 37 -9
0 -21 -5 -28 -12z m48 -18 c0 -5 -9 -10 -20 -10 -11 0 -20 5 -20 10 0 6 9 10
20 10 11 0 20 -4 20 -10z"/>
<path d="M4217 1464 c-15 -15 -6 -35 19 -44 14 -6 22 -14 19 -20 -4 -7 -13 -6
-27 1 -16 9 -19 8 -16 -3 7 -20 54 -22 62 -3 7 20 0 35 -19 35 -8 0 -17 5 -21
12 -5 8 0 9 15 5 14 -3 21 -1 18 6 -4 14 -39 21 -50 11z"/>
<path d="M4530 1425 c0 -25 5 -45 10 -45 6 0 10 20 10 45 0 25 -4 45 -10 45
-5 0 -10 -20 -10 -45z"/>
<path d="M4570 1426 c0 -55 17 -62 22 -8 2 20 8 37 13 37 6 0 11 -17 13 -37 2
-21 8 -38 13 -38 6 0 9 19 7 43 -3 39 -5 42 -35 45 -33 3 -33 3 -33 -42z"/>
<path d="M4660 1444 c-6 -14 -7 -30 -4 -36 4 -6 7 -20 8 -32 1 -11 9 -22 19
-24 31 -6 47 17 47 69 0 48 -1 49 -30 49 -24 0 -33 -6 -40 -26z m50 -18 c0
-31 -14 -40 -30 -21 -15 18 -6 45 15 45 9 0 15 -9 15 -24z m-8 -58 c-9 -9 -15
-9 -24 0 -9 9 -7 12 12 12 19 0 21 -3 12 -12z"/>
<path d="M4797 1464 c-14 -15 -6 -21 21 -16 18 3 24 1 17 -6 -5 -5 -19 -12
-30 -14 -12 -2 -20 -11 -20 -23 0 -16 7 -20 36 -21 l35 -2 -5 42 c-5 31 -11
42 -26 44 -12 2 -24 0 -28 -4z m33 -59 c-12 -15 -30 -12 -30 6 0 5 10 9 21 9
18 0 19 -2 9 -15z"/>
<path d="M4076 1128 c-36 -51 -6 -100 57 -96 33 3 37 6 37 31 0 23 -4 27 -27
26 -18 -1 -22 -3 -10 -6 26 -7 15 -27 -16 -31 -31 -4 -42 15 -33 53 7 27 42
35 64 13 6 -6 14 -9 17 -6 11 10 -26 38 -50 38 -13 0 -31 -10 -39 -22z"/>
<path d="M4560 1135 c-7 -8 -9 -19 -5 -23 4 -4 10 -1 12 6 6 16 43 16 43 -1 0
-7 -13 -23 -30 -35 -43 -32 -39 -52 11 -52 24 0 38 4 34 10 -3 6 -18 10 -33
10 l-26 0 34 29 c29 25 33 32 24 48 -14 24 -47 28 -64 8z"/>
<path d="M4665 1134 c-14 -11 -16 -18 -7 -21 7 -3 12 -22 12 -44 0 -21 5 -39
10 -39 6 0 10 27 10 60 0 33 -1 60 -2 60 -2 0 -12 -8 -23 -16z"/>
<path d="M4191 1070 c2 -34 3 -37 6 -15 3 17 12 38 20 47 14 15 13 17 -6 15
-18 -1 -21 -7 -20 -47z"/>
<path d="M4244 1106 c-3 -8 -4 -27 -2 -43 2 -23 8 -28 32 -28 33 0 48 27 35
63 -10 25 -56 31 -65 8z m56 -31 c0 -7 -6 -18 -14 -24 -20 -17 -39 16 -24 42
7 15 12 16 24 6 8 -6 14 -17 14 -24z"/>
<path d="M4332 1078 c3 -40 5 -43 36 -46 32 -3 32 -3 32 42 0 55 -17 62 -22 9
-4 -52 -28 -56 -28 -4 0 23 -5 41 -11 41 -6 0 -9 -17 -7 -42z"/>
<path d="M4421 1056 c1 -34 4 -52 6 -40 3 16 10 20 28 16 19 -3 27 1 34 19 14
38 -1 64 -38 65 l-31 1 1 -61z m59 19 c0 -7 -6 -18 -14 -24 -20 -17 -39 16
-24 42 7 15 12 16 24 6 8 -6 14 -17 14 -24z"/>
<path d="M5252 1488 c-21 -21 -13 -37 23 -52 19 -8 35 -20 35 -25 0 -15 -43
-14 -58 1 -9 9 -12 8 -12 -4 0 -30 59 -38 81 -12 16 20 1 46 -31 54 -13 3 -25
10 -27 17 -6 17 25 24 41 8 17 -17 30 -7 15 12 -14 16 -51 17 -67 1z"/>
<path d="M5660 1440 c0 -59 0 -60 28 -60 33 0 52 16 52 45 0 26 -18 45 -42 45
-10 0 -18 7 -18 15 0 8 -4 15 -10 15 -6 0 -10 -27 -10 -60z m60 -15 c0 -18 -5
-25 -20 -25 -15 0 -20 7 -20 25 0 18 5 25 20 25 15 0 20 -7 20 -25z"/>
<path d="M5750 1440 c0 -33 4 -60 10 -60 6 0 10 16 10 35 0 19 5 35 10 35 6 0
13 0 18 0 4 1 10 -16 13 -37 6 -37 6 -37 8 11 1 46 0 48 -24 44 -19 -4 -25 -1
-25 13 0 11 -4 19 -10 19 -6 0 -10 -27 -10 -60z"/>
<path d="M5904 1440 c11 -33 26 -60 32 -60 12 0 49 109 40 118 -8 8 -11 3 -28
-48 l-15 -45 -14 44 c-9 25 -20 46 -26 48 -6 2 -1 -23 11 -57z"/>
<path d="M5357 1464 c-14 -15 -6 -21 21 -16 18 3 24 1 17 -6 -5 -5 -19 -12
-30 -14 -12 -2 -20 -11 -20 -23 0 -16 7 -20 36 -21 l35 -2 -5 42 c-5 31 -11
42 -26 44 -12 2 -24 0 -28 -4z m33 -59 c-12 -15 -30 -12 -30 6 0 5 10 9 21 9
18 0 19 -2 9 -15z"/>
<path d="M5430 1438 c0 -45 11 -59 43 -56 25 2 27 5 26 48 -2 34 -3 38 -6 15
-9 -62 -43 -69 -43 -9 0 19 -4 34 -10 34 -5 0 -10 -15 -10 -32z"/>
<path d="M5520 1425 c0 -25 5 -45 10 -45 6 0 10 14 10 31 0 19 7 37 18 45 15
12 14 13 -10 14 -26 0 -28 -2 -28 -45z"/>
<path d="M5587 1463 c-14 -14 -6 -20 19 -15 19 3 25 1 20 -7 -4 -6 -15 -11
-26 -11 -19 0 -34 -25 -25 -41 3 -4 22 -8 41 -7 26 1 33 5 29 15 -3 8 -5 28
-5 44 0 24 -4 29 -23 29 -13 0 -27 -3 -30 -7z m43 -52 c0 -12 -28 -22 -34 -12
-3 5 -3 11 1 15 9 9 33 7 33 -3z"/>
<path d="M6002 1458 c-16 -16 -15 -53 3 -68 16 -14 47 -10 52 6 2 7 -6 10 -22
7 -15 -3 -25 -1 -25 6 0 6 14 11 30 11 18 0 30 5 30 13 0 18 -21 37 -40 37 -9
0 -21 -5 -28 -12z m48 -18 c0 -5 -9 -10 -20 -10 -11 0 -20 5 -20 10 0 6 9 10
20 10 11 0 20 -4 20 -10z"/>
<path d="M6080 1424 c0 -24 5 -44 10 -44 6 0 10 12 10 27 0 14 7 34 15 43 15
16 14 18 -10 18 -23 0 -25 -4 -25 -44z"/>
<path d="M6142 1422 c1 -35 2 -39 5 -15 2 17 10 37 18 43 15 12 14 13 28 -55
3 -11 5 -4 6 16 1 23 7 39 16 43 12 4 15 -3 15 -34 0 -22 5 -40 11 -40 6 0 9
17 7 42 l-3 43 -52 2 -53 3 2 -48z"/>
<path d="M6275 1460 c-11 -17 3 -25 19 -11 10 8 16 9 21 1 3 -5 -5 -14 -19
-20 -16 -6 -26 -17 -26 -29 0 -16 7 -20 38 -19 l38 0 -5 42 c-5 35 -10 41 -33
44 -14 2 -29 -2 -33 -8z m45 -49 c0 -14 -18 -23 -30 -16 -6 4 -8 11 -5 16 8
12 35 12 35 0z"/>
<path d="M5476 1128 c-36 -51 -6 -100 57 -96 33 3 37 6 37 31 0 23 -4 27 -27
26 -18 -1 -22 -3 -10 -6 26 -7 15 -27 -16 -31 -31 -4 -42 15 -33 53 7 27 42
35 64 13 6 -6 14 -9 17 -6 11 10 -26 38 -50 38 -13 0 -31 -10 -39 -22z"/>
<path d="M5960 1135 c-7 -8 -9 -19 -5 -23 4 -4 10 -1 12 6 6 16 43 16 43 -1 0
-7 -13 -23 -30 -35 -43 -32 -39 -52 11 -52 24 0 38 4 34 10 -3 6 -18 10 -33
10 l-26 0 34 29 c29 25 33 32 24 48 -14 24 -47 28 -64 8z"/>
<path d="M6046 1134 c-4 -9 -3 -20 0 -23 4 -3 9 0 11 7 6 16 43 16 43 -1 0 -7
-13 -23 -30 -35 -43 -32 -39 -52 11 -52 24 0 38 4 34 10 -3 6 -18 10 -32 10
l-25 0 32 30 c26 25 30 32 20 50 -13 24 -55 27 -64 4z"/>
<path d="M5591 1070 c2 -34 3 -37 6 -15 3 17 12 38 20 47 14 15 13 17 -6 15
-18 -1 -21 -7 -20 -47z"/>
<path d="M5644 1106 c-3 -8 -4 -27 -2 -43 2 -23 8 -28 32 -28 33 0 48 27 35
63 -10 25 -56 31 -65 8z m56 -31 c0 -7 -6 -18 -14 -24 -20 -17 -39 16 -24 42
7 15 12 16 24 6 8 -6 14 -17 14 -24z"/>
<path d="M5732 1078 c3 -40 5 -43 36 -46 32 -3 32 -3 32 42 0 55 -17 62 -22 9
-4 -52 -28 -56 -28 -4 0 23 -5 41 -11 41 -6 0 -9 -17 -7 -42z"/>
<path d="M5821 1056 c1 -34 4 -52 6 -40 3 16 10 20 28 16 19 -3 27 1 34 19 14
38 -1 64 -38 65 l-31 1 1 -61z m59 19 c0 -7 -6 -18 -14 -24 -20 -17 -39 16
-24 42 7 15 12 16 24 6 8 -6 14 -17 14 -24z"/>
</g>
</svg>
