<?xml version="1.0" standalone="no"?>
<!DOCTYPE svg PUBLIC "-//W3C//DTD SVG 20010904//EN"
 "http://www.w3.org/TR/2001/REC-SVG-20010904/DTD/svg10.dtd">
<svg version="1.0" xmlns="http://www.w3.org/2000/svg"
 width="1200.000000pt" height="305.000000pt" viewBox="0 0 1200.000000 305.000000"
 preserveAspectRatio="xMidYMid meet">

<g transform="translate(0.000000,305.000000) scale(0.100000,-0.100000)"
fill="#000000" stroke="none">
<path d="M2090 2825 l0 -115 85 0 c78 0 85 2 85 20 0 18 -7 20 -60 20 l-60 0
0 95 c0 95 0 95 -25 95 l-25 0 0 -115z"/>
<path d="M2290 2920 c0 -13 7 -20 20 -20 13 0 20 7 20 20 0 13 -7 20 -20 20
-13 0 -20 -7 -20 -20z"/>
<path d="M3206 2932 c-7 -12 -76 -205 -76 -214 0 -5 11 -8 24 -8 17 0 26 7 30
25 6 22 12 25 50 25 38 0 45 -3 50 -25 5 -18 13 -25 31 -25 14 0 25 3 24 8 0
4 -17 54 -37 112 -34 95 -39 105 -64 108 -14 2 -29 -1 -32 -6z m53 -124 c1 -5
-10 -8 -24 -8 -28 0 -30 4 -13 51 l11 33 13 -34 c7 -19 13 -38 13 -42z"/>
<path d="M3370 2825 c0 -108 1 -115 20 -115 19 0 20 7 20 115 0 108 -1 115
-20 115 -19 0 -20 -7 -20 -115z"/>
<path d="M3830 2826 l0 -113 58 -1 c74 -1 102 22 102 83 0 57 -34 90 -85 82
-34 -6 -35 -5 -35 29 0 27 -4 34 -20 34 -19 0 -20 -7 -20 -114z m111 -7 c16
-31 -4 -71 -34 -67 -39 5 -37 88 2 88 11 0 25 -10 32 -21z"/>
<path d="M4900 2898 c0 -33 -3 -39 -12 -30 -19 19 -57 14 -83 -13 -32 -31 -34
-96 -5 -125 22 -22 69 -27 88 -8 9 9 12 9 12 0 0 -7 11 -12 25 -12 l25 0 0
115 0 115 -25 0 c-23 0 -25 -4 -25 -42z m-8 -84 c15 -33 0 -59 -33 -59 -19 0
-25 6 -27 28 -5 40 4 57 28 57 12 0 25 -10 32 -26z"/>
<path d="M5080 2825 l0 -115 66 0 c59 0 68 3 95 29 25 26 29 37 29 86 0 49 -4
60 -29 86 -27 26 -36 29 -95 29 l-66 0 0 -115z m124 59 c10 -9 16 -33 16 -59
0 -51 -19 -75 -61 -75 l-29 0 0 75 0 75 29 0 c16 0 37 -7 45 -16z"/>
<path d="M5310 2920 c0 -13 7 -20 20 -20 13 0 20 7 20 20 0 13 -7 20 -20 20
-13 0 -20 -7 -20 -20z"/>
<path d="M5407 2910 c-6 -16 -15 -30 -19 -30 -4 0 -8 -7 -8 -15 0 -8 5 -15 10
-15 6 0 10 -30 10 -70 0 -68 1 -70 25 -70 24 0 25 2 25 70 l0 70 30 0 30 0 0
-70 c0 -63 2 -70 20 -70 18 0 20 7 20 70 0 56 3 70 15 70 8 0 15 7 15 15 0 8
-7 15 -17 15 -15 0 -15 1 0 18 24 26 21 42 -6 42 -28 0 -47 -17 -47 -42 0 -13
-8 -18 -30 -18 -16 0 -30 5 -30 10 0 6 5 10 10 10 6 0 10 9 10 20 0 15 -7 20
-26 20 -19 0 -28 -7 -37 -30z"/>
<path d="M6290 2915 c0 -14 -4 -25 -10 -25 -5 0 -10 -7 -10 -15 0 -8 5 -15 10
-15 6 0 10 -28 10 -63 0 -68 10 -87 47 -87 27 0 31 24 8 46 -9 9 -15 34 -15
60 0 32 4 44 15 44 8 0 15 7 15 15 0 8 -7 15 -15 15 -9 0 -15 9 -15 25 0 18
-5 25 -20 25 -15 0 -20 -7 -20 -25z"/>
<path d="M6390 2920 c0 -15 7 -20 25 -20 18 0 25 5 25 20 0 15 -7 20 -25 20
-18 0 -25 -5 -25 -20z"/>
<path d="M6660 2825 c0 -108 1 -115 20 -115 19 0 20 7 20 115 0 108 -1 115
-20 115 -19 0 -20 -7 -20 -115z"/>
<path d="M6840 2825 l0 -115 90 0 c83 0 90 1 90 20 0 18 -7 20 -65 20 l-65 0
0 30 c0 30 1 30 55 30 48 0 55 2 55 20 0 18 -7 20 -55 20 -52 0 -55 1 -55 25
0 24 3 25 60 25 53 0 60 2 60 20 0 18 -7 20 -85 20 l-85 0 0 -115z"/>
<path d="M7620 2915 c0 -14 -4 -25 -10 -25 -5 0 -10 -7 -10 -15 0 -8 5 -15 10
-15 6 0 10 -28 10 -63 0 -68 10 -87 47 -87 16 0 23 6 23 20 0 11 -4 20 -10 20
-5 0 -10 25 -10 55 0 30 5 55 10 55 6 0 10 7 10 15 0 8 -4 15 -10 15 -5 0 -10
11 -10 25 0 20 -5 25 -25 25 -20 0 -25 -5 -25 -25z"/>
<path d="M7720 2920 c0 -15 7 -20 25 -20 18 0 25 5 25 20 0 15 -7 20 -25 20
-18 0 -25 -5 -25 -20z"/>
<path d="M8660 2825 l0 -115 30 0 30 0 1 68 1 67 15 -67 c15 -63 18 -68 43
-68 25 0 28 5 42 68 l15 67 2 -67 c1 -65 2 -68 26 -68 l25 0 0 115 0 115 -34
0 c-38 0 -38 0 -56 -92 -8 -38 -16 -68 -19 -68 -4 0 -14 36 -24 80 l-18 80
-40 0 -39 0 0 -115z"/>
<path d="M8910 2920 c0 -16 7 -20 35 -20 l35 0 0 -95 c0 -95 0 -95 25 -95 25
0 25 0 25 95 l0 95 35 0 c28 0 35 4 35 20 0 19 -7 20 -95 20 -88 0 -95 -1 -95
-20z"/>
<path d="M9130 2825 l0 -115 80 0 c73 0 80 2 80 20 0 18 -7 20 -55 20 l-55 0
0 95 c0 95 0 95 -25 95 l-25 0 0 -115z"/>
<path d="M9467 2920 c-9 -11 -26 -20 -37 -20 -11 0 -20 -7 -20 -15 0 -9 9 -15
25 -15 25 0 25 -1 25 -80 0 -79 0 -80 25 -80 l25 0 0 115 c0 122 -7 137 -43
95z"/>
<path d="M9605 2915 c-22 -21 -25 -33 -25 -90 0 -57 3 -69 25 -90 13 -14 36
-25 50 -25 14 0 37 11 50 25 22 21 25 33 25 90 0 57 -3 69 -25 90 -13 14 -36
25 -50 25 -14 0 -37 -11 -50 -25z m78 -52 c18 -62 -14 -136 -44 -106 -16 16
-22 85 -10 116 14 37 42 32 54 -10z"/>
<path d="M9825 2920 c-10 -11 -26 -20 -37 -20 -10 0 -18 -7 -18 -15 0 -9 9
-15 25 -15 25 0 25 -1 25 -80 0 -79 0 -80 25 -80 l25 0 0 115 c0 123 -7 137
-45 95z"/>
<path d="M2290 2795 c0 -78 2 -85 20 -85 18 0 20 7 20 85 0 78 -2 85 -20 85
-18 0 -20 -7 -20 -85z"/>
<path d="M2370 2795 c0 -84 0 -85 25 -85 23 0 24 4 27 63 3 59 4 62 28 62 24
0 25 -3 28 -62 3 -59 4 -63 27 -63 24 0 25 3 25 63 0 74 -18 107 -59 107 -15
0 -32 -5 -39 -12 -9 -9 -12 -9 -12 0 0 7 -11 12 -25 12 -25 0 -25 -1 -25 -85z"/>
<path d="M2583 2860 c-30 -27 -38 -72 -19 -108 23 -45 80 -57 124 -26 35 24
26 35 -29 32 -35 -2 -53 1 -56 10 -3 9 12 12 57 12 l62 0 -7 28 c-16 66 -87
94 -132 52z m81 -35 c4 -12 -3 -15 -29 -15 -33 0 -43 8 -28 23 12 13 51 7 57
-8z"/>
<path d="M2762 2864 c-12 -8 -22 -22 -22 -30 0 -16 36 -19 45 -4 8 13 55 13
55 0 0 -5 -12 -12 -27 -16 -58 -12 -73 -23 -73 -52 0 -35 16 -52 50 -52 14 0
31 5 38 12 9 9 12 9 12 0 0 -7 13 -12 28 -12 l28 0 -7 72 c-5 52 -11 75 -25
85 -24 18 -75 17 -102 -3z m73 -94 c-5 -15 -13 -20 -28 -18 -30 4 -28 31 3 38
31 8 33 7 25 -20z"/>
<path d="M2920 2795 c0 -84 0 -85 25 -85 22 0 24 4 27 58 3 50 6 57 26 60 16
3 22 10 22 28 0 28 -12 31 -34 8 -15 -14 -16 -14 -16 0 0 10 -9 16 -25 16 -25
0 -25 -1 -25 -85z"/>
<path d="M3473 2854 c-30 -30 -30 -82 -1 -119 18 -23 27 -26 55 -22 25 4 33 2
33 -9 0 -21 -29 -29 -51 -16 -26 16 -49 15 -49 -3 0 -37 97 -48 130 -15 17 17
20 33 20 114 l0 94 -57 0 c-45 -1 -61 -5 -80 -24z m82 -59 c0 -36 -2 -40 -25
-40 -20 0 -26 6 -28 28 -5 42 5 59 30 55 20 -3 23 -9 23 -43z"/>
<path d="M3665 2855 c-52 -51 -16 -145 54 -145 18 0 41 10 58 25 l28 26 -57
-7 c-49 -5 -58 -4 -58 10 0 13 11 16 55 16 52 0 55 1 55 25 0 36 -42 75 -80
75 -19 0 -40 -9 -55 -25z m83 -32 c2 -9 -7 -13 -27 -13 -30 0 -39 9 -24 24 11
10 46 3 51 -11z"/>
<path d="M4020 2795 c0 -84 0 -85 25 -85 22 0 24 4 27 58 3 50 6 57 26 60 16
3 22 10 22 28 0 28 -12 31 -34 8 -15 -14 -16 -14 -16 0 0 10 -9 16 -25 16 -25
0 -25 -1 -25 -85z"/>
<path d="M4160 2860 c-27 -27 -25 -40 5 -40 14 0 25 5 25 10 0 6 11 10 25 10
34 0 32 -18 -2 -26 -16 -3 -36 -8 -45 -11 -20 -5 -33 -44 -25 -68 8 -20 56
-30 78 -17 12 8 20 8 24 2 3 -6 16 -10 29 -10 21 0 22 3 18 68 -3 52 -8 71
-24 85 -28 23 -83 22 -108 -3z m76 -95 c-7 -20 -46 -19 -46 0 0 9 10 19 23 24
24 9 33 0 23 -24z"/>
<path d="M4432 2864 c-12 -8 -22 -22 -22 -30 0 -16 36 -19 45 -4 8 13 55 13
55 0 0 -5 -12 -12 -27 -16 -58 -12 -73 -23 -73 -52 0 -35 16 -52 50 -52 14 0
31 5 38 12 9 9 12 9 12 0 0 -7 13 -12 28 -12 l28 0 -7 72 c-5 52 -11 75 -25
85 -24 18 -75 17 -102 -3z m73 -94 c-5 -15 -13 -20 -28 -18 -30 4 -28 31 3 38
31 8 33 7 25 -20z"/>
<path d="M4590 2795 c0 -84 0 -85 25 -85 24 0 25 3 25 59 0 51 3 61 20 66 32
10 40 -3 40 -66 0 -56 1 -59 25 -59 24 0 25 2 25 68 0 54 -4 72 -18 85 -22 20
-63 22 -80 5 -9 -9 -12 -9 -12 0 0 7 -11 12 -25 12 -25 0 -25 -1 -25 -85z"/>
<path d="M5310 2795 c0 -78 2 -85 20 -85 18 0 20 7 20 85 0 78 -2 85 -20 85
-18 0 -20 -7 -20 -85z"/>
<path d="M5623 2860 c-30 -27 -38 -72 -19 -108 23 -45 80 -57 124 -26 35 24
26 35 -29 32 -35 -2 -53 1 -56 10 -3 9 12 12 57 12 l62 0 -7 28 c-16 66 -87
94 -132 52z m81 -35 c4 -12 -3 -15 -29 -15 -33 0 -43 8 -28 23 12 13 51 7 57
-8z"/>
<path d="M5780 2795 c0 -84 0 -85 25 -85 22 0 24 4 27 58 3 50 6 57 26 60 16
3 22 10 22 28 0 28 -12 31 -34 8 -15 -14 -16 -14 -16 0 0 10 -9 16 -25 16 -25
0 -25 -1 -25 -85z"/>
<path d="M5926 2859 c-35 -28 -37 -95 -3 -127 27 -26 73 -29 105 -6 36 25 26
35 -27 28 -39 -5 -49 -3 -54 10 -5 14 3 16 53 16 66 0 72 8 45 59 -24 46 -74
55 -119 20z m82 -36 c2 -9 -8 -13 -32 -13 -28 0 -34 3 -29 16 7 18 54 16 61
-3z"/>
<path d="M6090 2795 c0 -78 2 -85 20 -85 17 0 20 7 20 53 0 55 12 77 41 77 22
0 29 -20 29 -81 0 -42 3 -49 20 -49 18 0 20 7 20 69 0 92 -31 123 -91 91 -13
-7 -19 -7 -19 0 0 5 -9 10 -20 10 -18 0 -20 -7 -20 -85z"/>
<path d="M6390 2795 c0 -84 0 -85 25 -85 25 0 25 1 25 85 0 84 0 85 -25 85
-25 0 -25 -1 -25 -85z"/>
<path d="M6492 2864 c-12 -8 -22 -22 -22 -30 0 -16 36 -19 45 -4 8 13 55 13
55 0 0 -5 -12 -12 -27 -16 -58 -12 -73 -23 -73 -52 0 -35 16 -52 50 -52 14 0
31 5 38 12 9 9 12 9 12 0 0 -7 13 -12 28 -12 l28 0 -7 72 c-5 52 -11 75 -25
85 -24 18 -75 17 -102 -3z m73 -94 c-5 -15 -13 -20 -28 -18 -30 4 -28 31 3 38
31 8 33 7 25 -20z"/>
<path d="M7062 2857 c-31 -33 -30 -96 1 -125 26 -24 48 -27 78 -12 17 10 19 7
19 -30 0 -33 3 -40 20 -40 19 0 20 7 20 115 0 108 -1 115 -20 115 -11 0 -20
-5 -20 -10 0 -7 -6 -7 -19 0 -31 16 -56 12 -79 -13z m87 -39 c11 -31 -2 -62
-27 -66 -29 -4 -49 36 -33 67 15 28 49 27 60 -1z"/>
<path d="M7240 2812 c0 -54 4 -72 18 -85 22 -20 63 -22 80 -5 9 9 12 9 12 0 0
-7 11 -12 25 -12 25 0 25 1 25 85 0 84 0 85 -25 85 -23 0 -24 -4 -27 -62 -3
-60 -4 -63 -28 -63 -24 0 -25 3 -28 63 -3 58 -4 62 -27 62 -24 0 -25 -2 -25
-68z"/>
<path d="M7452 2864 c-12 -8 -22 -22 -22 -30 0 -16 36 -19 45 -4 8 13 55 13
55 0 0 -5 -12 -12 -27 -16 -58 -12 -73 -23 -73 -52 0 -35 16 -52 50 -52 14 0
31 5 38 12 9 9 12 9 12 0 0 -7 13 -12 28 -12 l28 0 -7 72 c-5 52 -11 75 -25
85 -24 18 -75 17 -102 -3z m73 -94 c-5 -15 -13 -20 -28 -18 -30 4 -28 31 3 38
31 8 33 7 25 -20z"/>
<path d="M7720 2795 c0 -84 0 -85 25 -85 25 0 25 1 25 85 0 84 0 85 -25 85
-25 0 -25 -1 -25 -85z"/>
<path d="M7832 2860 c-84 -79 26 -202 113 -127 59 50 20 147 -59 147 -19 0
-41 -9 -54 -20z m90 -46 c9 -18 9 -30 1 -42 -22 -36 -73 -21 -73 22 0 48 53
63 72 20z"/>
<path d="M8010 2795 c0 -78 2 -85 20 -85 17 0 20 7 20 53 0 55 12 77 41 77 22
0 29 -20 29 -81 0 -42 3 -49 20 -49 18 0 20 7 20 69 0 92 -31 123 -91 91 -13
-7 -19 -7 -19 0 0 5 -9 10 -20 10 -18 0 -20 -7 -20 -85z"/>
<path d="M8216 2861 c-31 -34 -17 -64 37 -79 26 -7 47 -17 47 -23 0 -12 -57
-12 -65 1 -3 6 -15 10 -26 10 -24 0 -24 -15 1 -40 40 -40 140 -15 140 34 0 23
-26 43 -65 50 -40 8 -47 26 -10 26 14 0 25 -4 25 -10 0 -5 9 -10 20 -10 27 0
25 25 -2 44 -31 22 -81 20 -102 -3z"/>
<path d="M8460 2800 c0 -17 7 -20 45 -20 38 0 45 3 45 20 0 17 -7 20 -45 20
-38 0 -45 -3 -45 -20z"/>
<path d="M1013 2165 c0 -38 2 -53 4 -32 2 20 2 52 0 70 -2 17 -4 1 -4 -38z"/>
<path d="M2127 2212 c-21 -23 -22 -76 -1 -96 29 -30 84 -14 84 24 -1 12 -3 12
-15 -3 -8 -11 -23 -17 -37 -15 -20 3 -23 9 -23 43 0 35 3 40 24 43 13 2 27 -2
32 -9 4 -8 11 -10 15 -6 11 11 -17 37 -41 37 -12 0 -29 -8 -38 -18z"/>
<path d="M2711 2163 c1 -38 4 -56 6 -42 3 21 11 28 38 33 64 12 55 76 -11 76
l-34 0 1 -67z m67 30 c-2 -11 -14 -19 -31 -21 -22 -3 -27 1 -27 17 0 17 6 21
31 21 24 0 30 -4 27 -17z"/>
<path d="M2910 2165 c0 -37 4 -65 10 -65 6 0 10 28 10 65 0 37 -4 65 -10 65
-6 0 -10 -28 -10 -65z"/>
<path d="M3480 2166 c0 -37 4 -66 10 -66 6 0 10 11 10 25 0 21 5 25 30 25 25
0 30 -4 30 -25 0 -15 6 -25 15 -25 9 0 12 6 8 16 -3 10 -7 38 -7 63 l-1 46
-47 3 -48 3 0 -65z m78 27 c-2 -11 -14 -19 -31 -21 -22 -3 -27 1 -27 17 0 17
6 21 31 21 24 0 30 -4 27 -17z"/>
<path d="M4350 2206 c0 -19 -4 -22 -25 -19 -19 4 -27 0 -36 -20 -17 -38 2 -67
46 -65 l35 1 0 64 c0 35 -4 63 -10 63 -5 0 -10 -11 -10 -24z m-4 -51 c4 -8 0
-22 -7 -31 -11 -13 -14 -13 -27 0 -17 17 -9 46 13 46 9 0 18 -7 21 -15z"/>
<path d="M4525 2220 c3 -5 8 -10 11 -10 2 0 4 5 4 10 0 6 -5 10 -11 10 -5 0
-7 -4 -4 -10z"/>
<path d="M5065 2220 c3 -5 13 -10 21 -10 10 0 14 -14 14 -55 0 -30 5 -55 10
-55 6 0 10 25 10 55 0 48 2 55 20 55 11 0 20 5 20 10 0 6 -23 10 -51 10 -31 0
-48 -4 -44 -10z"/>
<path d="M5465 2220 c3 -5 8 -10 11 -10 2 0 4 5 4 10 0 6 -5 10 -11 10 -5 0
-7 -4 -4 -10z"/>
<path d="M5603 2165 c0 -38 2 -53 4 -32 2 20 2 52 0 70 -2 17 -4 1 -4 -38z"/>
<path d="M5717 2223 c-13 -23 -38 -115 -33 -121 4 -3 9 4 13 16 7 29 53 31 60
2 6 -22 23 -28 22 -7 0 6 -8 34 -18 61 -16 47 -34 67 -44 49z m23 -54 c0 -11
-7 -19 -16 -19 -11 0 -14 5 -10 16 3 9 6 20 6 25 0 6 5 7 10 4 6 -3 10 -15 10
-26z"/>
<path d="M5803 2165 c0 -38 2 -53 4 -32 2 20 2 52 0 70 -2 17 -4 1 -4 -38z"/>
<path d="M5830 2165 c0 -37 4 -65 10 -65 6 0 10 28 10 65 0 37 -4 65 -10 65
-6 0 -10 -28 -10 -65z"/>
<path d="M6733 2165 c0 -38 2 -53 4 -32 2 20 2 52 0 70 -2 17 -4 1 -4 -38z"/>
<path d="M1229 2206 c-2 -11 -2 -39 0 -63 2 -31 7 -43 19 -43 12 0 13 3 4 12
-15 15 -15 51 0 66 8 8 9 12 1 12 -6 0 -13 8 -15 18 -4 15 -5 15 -9 -2z"/>
<path d="M5969 2206 c-2 -11 -2 -39 0 -63 2 -31 7 -43 19 -43 12 0 13 3 4 12
-7 7 -12 21 -12 33 0 12 5 26 12 33 8 8 9 12 1 12 -6 0 -13 8 -15 18 -4 15 -5
15 -9 -2z"/>
<path d="M6351 2208 c-1 -10 -6 -18 -13 -18 -9 0 -9 -3 0 -12 7 -7 12 -27 12
-45 0 -24 4 -33 17 -33 13 0 14 3 5 12 -16 16 -15 68 1 68 8 0 9 3 1 8 -6 4
-14 14 -17 22 -4 12 -6 11 -6 -2z"/>
<path d="M7161 2208 c-1 -16 -24 -24 -53 -19 -5 0 -8 -20 -7 -46 1 -46 1 -47
9 -15 15 64 50 68 50 6 0 -25 4 -34 17 -34 13 0 14 3 5 12 -16 16 -15 68 1 68
8 0 9 3 1 8 -6 4 -14 14 -17 22 -4 12 -6 11 -6 -2z"/>
<path d="M1508 2200 c-7 -22 5 -100 16 -100 9 0 12 40 7 103 -1 11 -19 9 -23
-3z"/>
<path d="M4478 2199 c-7 -20 6 -92 17 -96 8 -2 11 41 6 100 -1 11 -19 8 -23
-4z"/>
<path d="M5268 2200 c-7 -22 5 -100 16 -100 9 0 12 40 7 103 -1 11 -19 9 -23
-3z"/>
<path d="M1051 2141 c2 -34 3 -38 6 -16 9 62 43 69 43 9 0 -19 5 -34 11 -34 6
0 9 17 7 43 -3 40 -5 42 -35 43 -33 1 -33 1 -32 -45z"/>
<path d="M1147 2184 c-15 -15 -6 -35 19 -44 14 -6 22 -14 19 -20 -4 -7 -13 -6
-27 1 -16 9 -19 8 -16 -3 3 -7 18 -13 34 -13 43 0 44 30 2 50 -32 15 -32 15
-5 11 17 -2 26 1 24 8 -4 13 -40 20 -50 10z"/>
<path d="M1270 2144 c0 -24 5 -44 10 -44 6 0 10 14 10 31 0 18 7 37 17 44 15
11 14 13 -10 13 -25 0 -27 -3 -27 -44z"/>
<path d="M1332 2148 c3 -41 5 -43 36 -44 32 -1 32 -1 31 45 -2 34 -3 38 -6 16
-9 -62 -43 -69 -43 -9 0 19 -5 34 -11 34 -6 0 -9 -17 -7 -42z"/>
<path d="M1432 2178 c-16 -16 -15 -53 3 -68 17 -14 47 -10 53 8 3 11 0 12 -16
3 -28 -15 -48 9 -32 39 9 17 14 19 26 9 16 -13 30 -6 19 10 -8 15 -38 14 -53
-1z"/>
<path d="M1560 2176 c-28 -35 11 -93 48 -70 35 22 22 84 -18 84 -10 0 -23 -7
-30 -14z m53 -18 c7 -20 -12 -48 -28 -42 -23 9 -19 54 4 54 11 0 21 -6 24 -12z"/>
<path d="M1650 2144 c0 -24 5 -44 10 -44 6 0 10 14 10 31 0 18 7 37 17 44 15
11 14 13 -10 13 -25 0 -27 -3 -27 -44z"/>
<path d="M1712 2177 c-13 -16 -4 -28 33 -41 16 -6 17 -9 5 -16 -9 -6 -19 -5
-24 0 -16 16 -30 11 -16 -5 15 -18 41 -20 57 -4 16 16 5 39 -17 39 -11 0 -22
5 -26 11 -5 8 1 10 20 7 17 -4 25 -1 23 6 -5 17 -42 19 -55 3z"/>
<path d="M2240 2176 c-28 -35 11 -93 48 -70 35 22 22 84 -18 84 -10 0 -23 -7
-30 -14z m50 -30 c0 -29 -26 -42 -38 -18 -13 23 -4 42 19 42 13 0 19 -7 19
-24z"/>
<path d="M2320 2161 c0 -49 9 -61 46 -61 34 0 34 1 34 45 0 54 -18 60 -22 8
-2 -26 -8 -38 -18 -38 -10 0 -16 12 -18 38 -4 44 -22 50 -22 8z"/>
<path d="M2420 2144 c0 -24 5 -44 10 -44 6 0 10 14 10 31 0 18 7 37 17 44 15
11 14 13 -10 13 -25 0 -27 -3 -27 -44z"/>
<path d="M2482 2177 c-13 -16 -4 -28 33 -41 16 -6 17 -9 5 -16 -9 -6 -19 -5
-24 0 -16 16 -30 11 -16 -5 15 -18 41 -20 57 -4 16 16 5 39 -17 39 -11 0 -22
5 -26 11 -5 8 1 10 20 7 17 -4 25 -1 23 6 -5 17 -42 19 -55 3z"/>
<path d="M2572 2178 c-7 -7 -12 -21 -12 -33 0 -41 45 -60 70 -30 11 13 8 14
-19 9 -20 -4 -31 -3 -31 5 0 6 14 11 30 11 18 0 30 5 30 13 0 18 -21 37 -40
37 -9 0 -21 -5 -28 -12z m48 -18 c0 -5 -9 -10 -20 -10 -11 0 -20 5 -20 10 0 6
9 10 20 10 11 0 20 -4 20 -10z"/>
<path d="M2820 2169 c-19 -34 2 -71 38 -67 24 3 27 7 27 43 0 36 -3 40 -27 43
-19 2 -30 -3 -38 -19z m60 -23 c0 -18 -21 -35 -36 -29 -17 6 -18 50 -1 56 15
5 37 -11 37 -27z"/>
<path d="M2953 2145 c0 -27 2 -38 4 -22 2 15 2 37 0 50 -2 12 -4 0 -4 -28z"/>
<path d="M2992 2178 c-7 -7 -12 -21 -12 -33 0 -41 45 -60 70 -30 8 9 9 15 2
15 -6 0 -13 -4 -17 -10 -10 -17 -35 2 -35 27 0 23 3 25 31 19 27 -5 30 -4 19
9 -15 18 -42 19 -58 3z"/>
<path d="M3078 2139 c14 -43 14 -51 2 -59 -8 -5 -11 -12 -7 -16 12 -12 33 14
46 57 7 23 15 47 18 55 3 8 1 14 -4 14 -6 0 -15 -15 -20 -32 l-10 -33 -13 33
c-19 52 -30 37 -12 -19z"/>
<path d="M3612 2178 c-7 -7 -12 -21 -12 -33 0 -41 45 -60 70 -30 11 13 8 14
-19 9 -20 -4 -31 -3 -31 5 0 6 14 11 30 11 18 0 30 5 30 13 0 18 -21 37 -40
37 -9 0 -21 -5 -28 -12z m48 -18 c0 -5 -9 -10 -20 -10 -11 0 -20 5 -20 10 0 6
9 10 20 10 11 0 20 -4 20 -10z"/>
<path d="M3702 2178 c-7 -7 -12 -21 -12 -33 0 -41 45 -60 70 -30 8 9 9 15 2
15 -6 0 -13 -4 -17 -10 -10 -17 -35 2 -35 27 0 23 3 25 31 19 27 -5 30 -4 19
9 -15 18 -42 19 -58 3z"/>
<path d="M3781 2168 c-5 -13 -5 -32 -1 -43 8 -22 47 -32 63 -16 15 15 0 26
-16 13 -10 -9 -17 -8 -25 0 -24 24 -1 68 25 46 15 -12 28 -5 18 11 -12 20 -55
12 -64 -11z"/>
<path d="M3870 2176 c-28 -35 11 -93 48 -70 35 22 22 84 -18 84 -10 0 -23 -7
-30 -14z m53 -18 c7 -20 -12 -48 -28 -42 -23 9 -19 54 4 54 11 0 21 -6 24 -12z"/>
<path d="M3960 2145 c0 -54 18 -60 22 -7 2 20 8 37 13 37 6 0 11 -17 13 -37 4
-48 20 -49 24 -3 2 20 8 35 13 35 6 0 11 -15 13 -35 2 -19 8 -35 13 -35 6 0 9
19 7 43 l-3 42 -57 3 -58 2 0 -45z"/>
<path d="M4110 2175 c-11 -13 -8 -14 21 -9 23 5 31 3 24 -4 -5 -5 -19 -12 -30
-14 -12 -2 -20 -11 -20 -23 0 -16 7 -20 37 -21 36 -2 37 -1 32 30 -3 17 -7 37
-10 44 -5 17 -39 15 -54 -3z m50 -44 c0 -11 -26 -22 -34 -14 -12 12 -5 23 14
23 11 0 20 -4 20 -9z"/>
<path d="M4201 2141 c2 -34 3 -38 6 -16 9 62 43 69 43 9 0 -19 5 -34 11 -34 6
0 9 17 7 43 -3 40 -5 42 -35 43 -33 1 -33 1 -32 -45z"/>
<path d="M4397 2183 c-14 -14 -6 -20 21 -15 18 3 24 1 17 -6 -5 -5 -19 -12
-30 -14 -12 -2 -20 -11 -20 -23 0 -16 7 -20 41 -22 34 -1 41 1 38 15 -13 68
-15 72 -38 72 -12 0 -26 -3 -29 -7z m43 -52 c0 -11 -26 -22 -34 -14 -12 12 -5
23 14 23 11 0 20 -4 20 -9z"/>
<path d="M4533 2145 c0 -27 2 -38 4 -22 2 15 2 37 0 50 -2 12 -4 0 -4 -28z"/>
<path d="M4570 2176 c-28 -35 11 -93 48 -70 35 22 22 84 -18 84 -10 0 -23 -7
-30 -14z m53 -18 c7 -20 -12 -48 -28 -42 -23 9 -19 54 4 54 11 0 21 -6 24 -12z"/>
<path d="M4661 2141 c1 -42 2 -43 8 -15 16 64 41 69 41 8 0 -19 5 -34 11 -34
6 0 9 17 7 43 -3 40 -5 42 -35 43 -33 1 -33 1 -32 -45z"/>
<path d="M5172 2148 c3 -42 4 -43 41 -46 l37 -3 0 45 c0 25 -4 46 -10 46 -5 0
-10 -15 -10 -34 0 -20 -6 -36 -14 -39 -20 -8 -26 2 -26 40 0 18 -5 33 -11 33
-6 0 -9 -17 -7 -42z"/>
<path d="M5320 2176 c-28 -35 11 -93 48 -70 35 22 22 84 -18 84 -10 0 -23 -7
-30 -14z m53 -18 c7 -20 -12 -48 -28 -42 -23 9 -19 54 4 54 11 0 21 -6 24 -12z"/>
<path d="M5411 2140 c1 -43 1 -44 9 -13 4 18 13 39 19 47 10 12 9 15 -8 13
-18 -1 -21 -8 -20 -47z"/>
<path d="M5473 2145 c0 -27 2 -38 4 -22 2 15 2 37 0 50 -2 12 -4 0 -4 -28z"/>
<path d="M5510 2175 c-11 -13 -8 -14 21 -9 23 5 31 3 24 -4 -5 -5 -19 -12 -30
-14 -12 -2 -20 -11 -20 -23 0 -16 7 -20 37 -21 36 -2 37 -1 32 30 -3 17 -7 37
-10 44 -5 17 -39 15 -54 -3z m50 -44 c0 -11 -26 -22 -34 -14 -12 12 -5 23 14
23 11 0 20 -4 20 -9z"/>
<path d="M5882 2181 c-8 -5 -12 -22 -10 -42 2 -29 7 -34 30 -37 21 -3 30 2 39
21 20 45 -19 84 -59 58z m48 -36 c0 -26 -22 -39 -39 -22 -22 22 -2 61 25 50 8
-3 14 -15 14 -28z"/>
<path d="M6010 2145 c0 -54 17 -61 22 -8 4 52 28 56 28 4 0 -23 5 -41 10 -41
6 0 10 15 10 34 0 40 27 58 35 23 12 -57 13 -59 12 -17 l-2 45 -57 3 -58 2 0
-45z"/>
<path d="M6162 2178 c-7 -7 -12 -21 -12 -33 0 -41 45 -60 70 -30 11 13 8 14
-19 9 -20 -4 -31 -3 -31 5 0 6 14 11 30 11 18 0 30 5 30 13 0 18 -21 37 -40
37 -9 0 -21 -5 -28 -12z m48 -18 c0 -5 -9 -10 -20 -10 -11 0 -20 5 -20 10 0 6
9 10 20 10 11 0 20 -4 20 -10z"/>
<path d="M6251 2141 c1 -42 2 -43 8 -15 16 64 41 69 41 8 0 -19 5 -34 11 -34
6 0 9 17 7 43 -3 40 -5 42 -35 43 -33 1 -33 1 -32 -45z"/>
<path d="M6772 2140 c1 -40 2 -41 5 -10 8 62 42 63 44 2 2 -34 2 -35 6 -7 9
62 43 69 43 9 0 -19 5 -34 10 -34 12 0 13 59 2 76 -4 7 -30 11 -59 11 l-53 -1
2 -46z"/>
<path d="M6911 2125 c1 -33 4 -51 6 -39 3 16 10 20 28 16 19 -3 27 2 36 21 17
37 -3 68 -41 65 -30 -2 -30 -3 -29 -63z m55 30 c4 -8 0 -22 -7 -31 -11 -13
-14 -13 -27 0 -17 17 -9 46 13 46 9 0 18 -7 21 -15z"/>
<path d="M7010 2175 c-11 -13 -8 -14 21 -9 23 5 31 3 24 -4 -5 -5 -19 -12 -30
-14 -12 -2 -20 -11 -20 -23 0 -16 7 -20 37 -21 36 -2 37 -1 32 30 -3 17 -7 37
-10 44 -5 17 -39 15 -54 -3z m50 -44 c0 -11 -26 -22 -34 -14 -12 12 -5 23 14
23 11 0 20 -4 20 -9z"/>
<path d="M7202 2148 c3 -41 5 -43 36 -44 32 -1 32 -1 31 45 -2 34 -3 38 -6 16
-9 -62 -43 -69 -43 -9 0 19 -5 34 -11 34 -6 0 -9 -17 -7 -42z"/>
<path d="M7296 2175 c-8 -22 1 -35 24 -35 10 0 21 -4 24 -9 9 -14 -20 -21 -33
-8 -6 6 -14 8 -18 4 -12 -12 13 -29 38 -25 34 4 37 36 5 48 -34 12 -34 24 0
16 19 -5 25 -3 22 6 -7 20 -54 22 -62 3z"/>
<path d="M282 1648 c3 -7 18 -59 33 -115 25 -92 31 -103 51 -103 20 0 25 9 42
83 l19 82 18 -82 c17 -75 21 -83 41 -83 20 0 26 9 40 58 9 31 22 79 30 106 18
65 18 66 -10 66 -22 0 -26 -6 -36 -57 -6 -32 -15 -69 -19 -83 -7 -22 -8 -20
-15 20 -15 96 -25 120 -51 120 -21 0 -25 -7 -41 -82 l-18 -82 -13 60 c-7 32
-15 69 -18 82 -4 16 -13 22 -31 22 -17 0 -25 -5 -22 -12z"/>
<path d="M600 1545 l0 -115 90 0 c83 0 90 1 90 20 0 18 -7 20 -65 20 l-65 0 0
30 c0 30 1 30 55 30 48 0 55 2 55 20 0 18 -7 20 -55 20 -52 0 -55 1 -55 25 0
24 3 25 60 25 53 0 60 2 60 20 0 18 -7 20 -85 20 l-85 0 0 -115z"/>
<path d="M810 1545 l0 -115 85 0 c78 0 85 2 85 20 0 18 -7 20 -60 20 l-60 0 0
95 c0 95 0 95 -25 95 l-25 0 0 -115z"/>
<path d="M1051 1646 c-72 -40 -67 -175 9 -206 58 -24 140 9 140 56 0 21 -43
17 -58 -6 -28 -45 -92 -7 -92 55 0 39 28 75 60 75 11 0 25 -9 32 -20 13 -20
58 -28 58 -11 0 56 -90 90 -149 57z"/>
<path d="M1264 1626 c-29 -29 -34 -41 -34 -81 0 -40 5 -52 34 -81 28 -28 42
-34 76 -34 34 0 48 6 76 34 29 29 34 41 34 81 0 40 -5 52 -34 81 -28 28 -42
34 -76 34 -34 0 -48 -6 -76 -34z m116 -26 c41 -41 14 -130 -40 -130 -32 0 -60
36 -60 75 0 39 28 75 60 75 11 0 29 -9 40 -20z"/>
<path d="M1480 1545 l0 -115 30 0 30 0 1 68 1 67 15 -67 c15 -63 18 -68 43
-68 25 0 28 5 42 68 l15 67 2 -67 c1 -65 2 -68 26 -68 l25 0 0 115 0 115 -34
0 c-38 0 -38 0 -56 -92 -8 -38 -16 -68 -19 -68 -4 0 -14 36 -24 80 l-18 80
-40 0 -39 0 0 -115z"/>
<path d="M1750 1545 l0 -115 90 0 c83 0 90 1 90 20 0 18 -7 20 -65 20 l-65 0
0 30 0 30 60 0 c53 0 60 2 60 20 0 18 -7 20 -60 20 -57 0 -60 1 -60 25 0 24 3
25 60 25 53 0 60 2 60 20 0 18 -7 20 -85 20 l-85 0 0 -115z"/>
<path d="M2040 1640 c0 -16 7 -20 35 -20 l35 0 0 -95 c0 -95 0 -95 25 -95 25
0 25 0 25 95 l0 95 30 0 c23 0 30 4 30 20 0 19 -7 20 -90 20 -83 0 -90 -1 -90
-20z"/>
<path d="M2294 1641 c-42 -26 -61 -79 -45 -131 17 -56 44 -75 106 -75 61 0 88
18 106 72 34 104 -74 191 -167 134z m101 -46 c14 -13 25 -36 25 -50 0 -29 -40
-75 -65 -75 -25 0 -65 46 -65 75 0 29 40 75 65 75 9 0 27 -11 40 -25z"/>
<path d="M2590 1545 l0 -115 80 0 c73 0 80 2 80 20 0 18 -7 20 -55 20 l-55 0
0 95 c0 95 0 95 -25 95 l-25 0 0 -115z"/>
<path d="M2780 1545 l0 -115 25 0 25 0 0 115 0 115 -25 0 -25 0 0 -115z"/>
<path d="M2870 1545 l0 -115 25 0 c25 0 25 2 25 78 l0 77 46 -77 c37 -63 51
-78 70 -78 24 0 24 0 24 115 l0 115 -25 0 c-23 0 -24 -3 -27 -71 l-3 -72 -40
71 c-34 61 -44 72 -67 72 l-28 0 0 -115z"/>
<path d="M3110 1545 l0 -115 85 0 c78 0 85 2 85 20 0 18 -7 20 -60 20 l-60 0
0 30 c0 30 1 30 55 30 48 0 55 2 55 20 0 18 -7 20 -55 20 -52 0 -55 1 -55 25
0 24 3 25 60 25 53 0 60 2 60 20 0 18 -7 20 -85 20 l-85 0 0 -115z"/>
<path d="M3373 1628 c-6 -18 -24 -70 -41 -115 l-31 -83 25 0 c17 0 27 8 34 25
8 22 16 25 54 25 39 0 45 -3 48 -22 2 -17 11 -24 31 -26 15 -2 27 -2 27 0 0 2
-18 53 -39 113 -37 104 -40 110 -68 113 -25 3 -31 -1 -40 -30z m63 -105 c-2
-2 -15 -3 -29 -1 -25 3 -25 3 -10 38 l15 35 15 -34 c8 -18 12 -35 9 -38z"/>
<path d="M3550 1545 l0 -115 25 0 c23 0 25 4 25 46 l0 45 37 -3 c35 -3 38 -5
46 -45 7 -39 11 -43 38 -43 26 0 29 2 19 19 -5 11 -10 30 -10 43 0 13 -5 29
-11 35 -9 9 -8 16 5 28 21 22 20 68 -2 88 -14 13 -38 17 -95 17 l-77 0 0 -115z
m135 45 c0 -22 -5 -25 -42 -28 -42 -3 -43 -2 -43 28 0 30 1 31 43 28 37 -3 42
-6 42 -28z"/>
<path d="M3923 1628 c-6 -18 -24 -70 -41 -115 l-31 -83 25 0 c17 0 27 8 34 25
8 22 16 25 54 25 39 0 45 -3 48 -22 2 -17 11 -24 31 -26 15 -2 27 -2 27 0 0 2
-18 53 -39 113 -37 104 -40 110 -68 113 -25 3 -31 -1 -40 -30z m63 -105 c-2
-2 -15 -3 -29 -1 -25 3 -25 3 -10 38 l15 35 15 -34 c8 -18 12 -35 9 -38z"/>
<path d="M4100 1545 l0 -115 80 0 c73 0 80 2 80 20 0 18 -7 20 -55 20 l-55 0
0 95 c0 95 0 95 -25 95 l-25 0 0 -115z"/>
<path d="M4345 1648 c-38 -21 -55 -51 -55 -101 0 -42 5 -54 34 -83 38 -38 85
-45 124 -18 12 8 22 10 22 5 0 -6 7 -11 15 -11 12 0 15 13 15 60 l0 60 -45 0
c-38 0 -45 -3 -45 -19 0 -14 8 -21 28 -23 l27 -3 -22 -22 c-48 -48 -106 -12
-101 60 2 33 8 44 31 57 25 14 30 13 58 -2 33 -19 69 -24 69 -9 0 5 -14 21
-31 35 -33 28 -88 34 -124 14z"/>
<path d="M4550 1545 l0 -115 85 0 c78 0 85 2 85 20 0 18 -7 20 -60 20 l-60 0
0 30 c0 30 1 30 55 30 48 0 55 2 55 20 0 18 -7 20 -55 20 -52 0 -55 1 -55 25
0 24 3 25 60 25 53 0 60 2 60 20 0 18 -7 20 -85 20 l-85 0 0 -115z"/>
<path d="M4760 1545 l0 -115 74 0 c69 0 76 2 95 26 26 33 27 56 1 79 -17 15
-17 19 -5 32 8 8 15 25 15 38 0 38 -35 55 -112 55 l-68 0 0 -115z m125 50 c0
-16 -8 -21 -37 -23 -35 -3 -38 -1 -38 23 0 24 3 26 38 23 29 -2 37 -7 37 -23z
m10 -95 c0 -22 -5 -25 -42 -28 -42 -3 -43 -2 -43 28 0 30 1 31 43 28 37 -3 42
-6 42 -28z"/>
<path d="M4990 1545 l0 -115 25 0 c23 0 25 4 25 46 l0 45 38 -3 c35 -3 37 -5
42 -43 4 -34 9 -40 32 -43 26 -3 26 -2 21 40 -3 24 -10 49 -16 56 -7 9 -5 18
7 30 20 23 20 51 0 80 -13 20 -24 22 -95 22 l-79 0 0 -115z m135 45 c0 -22 -5
-25 -42 -28 -42 -3 -43 -2 -43 28 0 30 1 31 43 28 37 -3 42 -6 42 -28z"/>
<path d="M5286 1652 c-7 -12 -76 -205 -76 -214 0 -5 11 -8 24 -8 17 0 26 7 30
25 6 22 12 25 50 25 38 0 45 -3 50 -25 5 -18 13 -25 31 -25 14 0 25 3 24 8 0
4 -17 54 -37 112 -34 95 -39 105 -64 108 -14 2 -29 -1 -32 -6z m53 -124 c1 -5
-10 -8 -24 -8 -28 0 -30 4 -13 51 l11 33 13 -34 c7 -19 13 -38 13 -42z"/>
<path d="M5575 1639 c-16 -16 -17 -25 -9 -48 9 -23 7 -32 -13 -55 -52 -60 26
-134 100 -95 16 9 22 9 25 0 2 -6 18 -11 35 -11 l30 0 -21 23 c-15 16 -18 27
-12 37 17 27 12 60 -10 60 -12 0 -20 -7 -20 -17 0 -15 -2 -14 -19 2 -20 17
-20 17 1 46 20 27 20 29 4 53 -21 32 -65 35 -91 5z m63 -31 c-3 -7 -11 -13
-18 -13 -7 0 -15 6 -17 13 -3 7 4 12 17 12 13 0 20 -5 18 -12z m-8 -102 l23
-25 -26 -6 c-31 -8 -47 0 -47 24 0 37 18 40 50 7z"/>
<path d="M5860 1545 l0 -115 68 0 c80 0 104 16 123 80 10 33 9 47 -5 85 -22
56 -38 65 -120 65 l-66 0 0 -115z m125 61 c13 -10 18 -26 18 -61 0 -54 -18
-75 -65 -75 l-28 0 0 75 0 75 28 0 c16 0 37 -6 47 -14z"/>
<path d="M6090 1545 l0 -115 25 0 25 0 0 115 0 115 -25 0 -25 0 0 -115z"/>
<path d="M6180 1545 l0 -115 25 0 c23 0 25 3 25 50 l0 50 50 0 c43 0 50 3 50
20 0 17 -7 20 -50 20 -47 0 -50 2 -50 25 0 24 3 25 60 25 53 0 60 2 60 20 0
18 -7 20 -85 20 l-85 0 0 -115z"/>
<path d="M6370 1545 l0 -115 30 0 c29 0 30 1 30 50 l0 50 50 0 c43 0 50 3 50
20 0 17 -7 20 -50 20 -47 0 -50 2 -50 25 0 24 3 25 55 25 48 0 55 2 55 20 0
18 -7 20 -85 20 l-85 0 0 -115z"/>
<path d="M6570 1545 l0 -115 90 0 c83 0 90 1 90 20 0 18 -7 20 -65 20 l-65 0
0 30 c0 30 1 30 55 30 48 0 55 2 55 20 0 18 -7 20 -55 20 -52 0 -55 1 -55 25
0 24 3 25 60 25 53 0 60 2 60 20 0 18 -7 20 -85 20 l-85 0 0 -115z"/>
<path d="M6780 1545 l0 -115 25 0 c23 0 25 4 25 45 l0 45 39 0 c42 0 51 -11
51 -61 0 -25 4 -29 29 -29 28 0 28 1 20 43 -4 23 -10 49 -14 58 -3 10 -2 20 4
24 17 10 13 71 -5 89 -11 12 -36 16 -95 16 l-79 0 0 -115z m135 45 c0 -22 -5
-25 -42 -28 -42 -3 -43 -2 -43 28 0 30 1 31 43 28 37 -3 42 -6 42 -28z"/>
<path d="M7020 1545 l0 -115 85 0 c78 0 85 2 85 20 0 18 -7 20 -60 20 l-60 0
0 30 c0 30 1 30 55 30 48 0 55 2 55 20 0 18 -7 20 -55 20 -52 0 -55 1 -55 25
0 24 3 25 60 25 53 0 60 2 60 20 0 18 -7 20 -85 20 l-85 0 0 -115z"/>
<path d="M7230 1545 l0 -115 25 0 c23 0 24 3 27 71 l3 72 40 -72 c34 -61 44
-71 68 -71 l27 0 0 115 0 115 -25 0 c-25 0 -25 -2 -25 -77 l0 -78 -46 78 c-37
62 -51 77 -70 77 -24 0 -24 0 -24 -115z"/>
<path d="M7440 1640 c0 -16 7 -20 35 -20 l35 0 0 -95 c0 -95 0 -95 25 -95 25
0 25 0 25 95 l0 95 35 0 c28 0 35 4 35 20 0 19 -7 20 -95 20 -88 0 -95 -1 -95
-20z"/>
<path d="M7650 1545 l0 -115 25 0 25 0 0 115 0 115 -25 0 -25 0 0 -115z"/>
<path d="M7805 1648 c-54 -149 -75 -210 -75 -213 0 -3 11 -5 25 -5 18 0 26 7
31 25 5 22 12 25 50 25 38 0 44 -3 50 -25 4 -18 13 -25 30 -25 13 0 24 3 24 8
0 4 -16 55 -37 115 -35 102 -39 107 -65 107 -16 0 -31 -6 -33 -12z m55 -115
c0 -7 -12 -13 -26 -13 -20 0 -25 4 -20 16 3 9 9 28 13 42 l6 27 13 -30 c7 -16
13 -36 14 -42z"/>
<path d="M7980 1545 l0 -115 80 0 c73 0 80 2 80 20 0 18 -7 20 -55 20 l-55 0
0 95 c0 95 0 95 -25 95 l-25 0 0 -115z"/>
<path d="M8260 1545 l0 -115 90 0 c83 0 90 1 90 20 0 18 -7 20 -65 20 l-65 0
0 30 c0 30 1 30 55 30 48 0 55 2 55 20 0 18 -7 20 -55 20 -52 0 -55 1 -55 25
0 24 3 25 60 25 53 0 60 2 60 20 0 18 -7 20 -85 20 l-85 0 0 -115z"/>
<path d="M8514 1641 c-67 -41 -67 -150 -1 -192 26 -16 43 -19 84 -15 31 4 54
2 58 -4 5 -8 11 -7 21 1 11 9 12 15 3 26 -9 10 -9 20 0 39 48 105 -66 205
-165 145z m101 -46 c25 -24 32 -59 16 -84 -6 -9 -10 -10 -16 -2 -5 9 -10 9
-21 0 -11 -9 -11 -15 -3 -25 18 -22 -24 -18 -52 5 -45 37 -18 131 38 131 7 0
25 -11 38 -25z"/>
<path d="M8720 1571 c0 -103 13 -128 72 -138 47 -7 92 11 107 43 6 14 11 61
11 104 0 79 0 80 -25 80 -25 0 -25 -1 -25 -79 0 -83 -12 -111 -49 -111 -33 0
-41 22 -41 107 0 82 0 83 -25 83 -25 0 -25 -1 -25 -89z"/>
<path d="M9015 1648 c-54 -149 -75 -210 -75 -213 0 -3 11 -5 25 -5 18 0 26 7
31 25 5 22 12 25 50 25 38 0 44 -3 50 -25 4 -18 13 -25 30 -25 13 0 24 3 24 8
0 4 -16 55 -37 115 -35 102 -39 107 -65 107 -16 0 -31 -6 -33 -12z m55 -115
c0 -7 -12 -13 -26 -13 -20 0 -25 4 -20 16 3 9 9 28 13 42 l6 27 13 -30 c7 -16
13 -36 14 -42z"/>
<path d="M9160 1640 c0 -16 7 -20 35 -20 l35 0 0 -95 c0 -95 0 -95 25 -95 25
0 25 0 25 95 l0 95 35 0 c28 0 35 4 35 20 0 19 -7 20 -95 20 -88 0 -95 -1 -95
-20z"/>
<path d="M9370 1545 l0 -115 25 0 25 0 0 115 0 115 -25 0 -25 0 0 -115z"/>
<path d="M9494 1626 c-29 -29 -34 -41 -34 -81 0 -40 5 -52 34 -81 28 -28 42
-34 76 -34 34 0 48 6 76 34 29 29 34 41 34 81 0 40 -5 52 -34 81 -28 28 -42
34 -76 34 -34 0 -48 -6 -76 -34z m116 -26 c41 -41 14 -130 -40 -130 -32 0 -60
36 -60 75 0 39 28 75 60 75 11 0 29 -9 40 -20z"/>
<path d="M9710 1545 l0 -115 25 0 c23 0 24 3 27 78 l3 77 44 -77 c39 -68 48
-78 73 -78 l28 0 0 115 0 115 -30 0 -30 0 0 -72 -1 -73 -41 73 c-36 62 -46 72
-70 72 l-28 0 0 -115z"/>
<path d="M9972 1648 c-12 -6 -25 -21 -28 -34 -12 -46 -1 -58 65 -80 36 -11 67
-26 69 -33 10 -30 -56 -42 -82 -16 -19 19 -56 20 -56 1 0 -27 50 -56 97 -56
33 0 50 6 68 25 48 47 26 91 -56 109 -42 10 -54 17 -54 32 0 25 46 31 68 10
20 -20 57 -21 57 -2 0 43 -93 70 -148 44z"/>
<path d="M10265 1608 c-15 -32 -25 -71 -25 -98 0 -53 42 -150 65 -150 19 0 19
-5 -5 63 -11 31 -20 69 -20 85 0 26 17 91 35 135 5 12 2 17 -9 17 -11 0 -26
-20 -41 -52z"/>
<path d="M10350 1545 l0 -115 25 0 c23 0 24 3 27 78 l3 77 18 -78 c18 -75 20
-78 45 -75 24 3 28 10 43 73 l17 70 1 -72 c1 -71 2 -73 26 -73 l25 0 0 116 0
115 -37 -3 -37 -3 -20 -85 -19 -85 -20 88 -20 87 -39 0 -38 0 0 -115z"/>
<path d="M10600 1640 c0 -16 7 -20 35 -20 l35 0 0 -95 c0 -95 0 -95 25 -95 25
0 25 0 25 95 l0 95 35 0 c28 0 35 4 35 20 0 19 -7 20 -95 20 -88 0 -95 -1 -95
-20z"/>
<path d="M10820 1545 l0 -115 80 0 c73 0 80 2 80 20 0 18 -7 20 -55 20 l-55 0
0 95 c0 95 0 95 -25 95 l-25 0 0 -115z"/>
<path d="M11157 1640 c-9 -11 -26 -20 -37 -20 -11 0 -20 -7 -20 -15 0 -9 9
-15 25 -15 25 0 25 -1 25 -80 0 -79 0 -80 25 -80 l25 0 0 115 c0 122 -7 137
-43 95z"/>
<path d="M11295 1635 c-22 -21 -25 -33 -25 -90 0 -57 3 -69 25 -90 31 -32 69
-32 100 0 22 21 25 33 25 90 0 57 -3 69 -25 90 -13 14 -36 25 -50 25 -14 0
-37 -11 -50 -25z m78 -52 c18 -62 -14 -136 -44 -106 -16 16 -22 85 -10 116 14
37 42 32 54 -10z"/>
<path d="M11515 1640 c-10 -11 -26 -20 -37 -20 -10 0 -18 -7 -18 -15 0 -9 9
-15 25 -15 25 0 25 -1 25 -80 0 -79 0 -80 25 -80 l25 0 0 115 c0 123 -7 137
-45 95z"/>
<path d="M11641 1610 c25 -65 24 -143 -1 -199 -22 -47 -20 -57 5 -47 26 9 55
86 55 144 0 66 -34 152 -60 152 -17 0 -17 -3 1 -50z"/>
</g>
</svg>
